STARTFONT 2.1
COMMENT
COMMENT Converted from OpenType font "uvnbaisau_regular.ttf" by "otf2bdf 3.0".
COMMENT
FONT -FreeType-UVN Bai Sau-Bold-R-Normal--89-640-100-100-P-434-ISO10646-1
SIZE 64 100 100
FONTBOUNDINGBOX 125 123 -15 -23
STARTPROPERTIES 19
FOUNDRY "FreeType"
FAMILY_NAME "UVN Bai Sau"
WEIGHT_NAME "Bold"
SLANT "R"
SETWIDTH_NAME "Normal"
ADD_STYLE_NAME ""
PIXEL_SIZE 89
POINT_SIZE 640
RESOLUTION_X 100
RESOLUTION_Y 100
SPACING "P"
AVERAGE_WIDTH 434
CHARSET_REGISTRY "ISO10646"
CHARSET_ENCODING "1"
FONT_ASCENT 100
FONT_DESCENT 23
COPYRIGHT "(c) Copyright 2001 by Tom Truong. All Rights Reserved"
_OTF_FONTFILE "uvnbaisau_regular.ttf"
_OTF_PSNAME "UVNBaiSauBold"
ENDPROPERTIES
CHARS 383
STARTCHAR 0020
ENCODING 32
SWIDTH 281 0
DWIDTH 25 0
BBX 0 0 0 0
BITMAP
ENDCHAR
STARTCHAR 0021
ENCODING 33
SWIDTH 326 0
DWIDTH 29 0
BBX 17 63 6 -1
BITMAP
FFFF80
FFFF80
FFFF80
FFFF80
FFFF80
FFFF80
FFFF80
7FFF80
7FFF80
7FFF80
7FFF80
7FFF00
7FFF00
7FFF00
7FFF00
7FFF00
7FFF00
7FFF00
7FFF00
7FFF00
7FFF00
7FFF00
7FFF00
7FFF00
7FFF00
7FFF00
7FFF00
7FFF00
7FFF00
7FFF00
7FFF00
7FFF00
7FFF00
7FFF00
7FFF00
7FFF00
7FFF00
7FFF00
7FFF00
7FFF00
7FFF00
7FFF00
000000
000000
000000
008000
0FF800
1FFC00
3FFE00
7FFF00
FFFF80
FFFF80
FFFF80
FFFF80
FFFF80
FFFF80
FFFF80
FFFF80
7FFF00
7FFF00
3FFE00
1FFC00
07F000
ENDCHAR
STARTCHAR 0022
ENCODING 34
SWIDTH 337 0
DWIDTH 30 0
BBX 25 24 3 38
BITMAP
FFC1FF80
FFC1FF80
FFC1FF80
FFC1FF80
FFC1FF80
FFC1FF80
FFC1FF80
FFC1FF80
FFC1FF80
FFC1FF80
FFC1FF80
FFC1FF80
FFC1FF80
FFC1FF80
FFC1FF80
FFC1FF80
FFC1FF80
FFC1FF80
FFC1FF80
FFC1FF80
FFC1FF80
FFC1FF80
FFC1FF80
FFC1FF80
ENDCHAR
STARTCHAR 0023
ENCODING 35
SWIDTH 765 0
DWIDTH 68 0
BBX 66 65 1 -1
BITMAP
00000007FE003FF800
0000000FFE007FF000
0000000FFE007FF000
0000000FFC007FF000
0000001FFC00FFE000
0000001FFC00FFE000
0000003FF800FFE000
0000003FF801FFC000
0000003FF801FFC000
0000007FF001FF8000
0000007FF003FF8000
0000007FF003FF8000
000000FFE007FF0000
000000FFE007FF0000
000000FFE007FF0000
000001FFC00FFE0000
000001FFC00FFE0000
003FFFFFFFFFFFFFC0
003FFFFFFFFFFFFFC0
003FFFFFFFFFFFFFC0
007FFFFFFFFFFFFF80
007FFFFFFFFFFFFF80
007FFFFFFFFFFFFF00
00FFFFFFFFFFFFFF00
00FFFFFFFFFFFFFF00
01FFFFFFFFFFFFFE00
01FFFFFFFFFFFFFE00
00001FFC00FFE00000
00001FF800FFE00000
00003FF800FFC00000
00003FF801FFC00000
00003FF001FFC00000
00007FF001FF800000
00007FF003FF800000
0000FFE003FF800000
0000FFE007FF000000
0000FFE007FF000000
0FFFFFC007FFFFF000
1FFFFFFFFFFFFFE000
1FFFFFFFFFFFFFE000
1FFFFFFFFFFFFFC000
3FFFFFFFFFFFFFC000
3FFFFFFFFFFFFFC000
7FFFFFFFFFFFFF8000
7FFFFFFFFFFFFF8000
7FFFFFFFFFFFFF8000
FFFFFFFFFFFFFF0000
000FFE007FF0000000
000FFC007FF0000000
001FFC00FFE0000000
001FFC00FFE0000000
003FF800FFE0000000
003FF801FFC0000000
003FF801FFC0000000
007FF001FF80000000
007FF003FF80000000
007FF003FF80000000
00FFE007FF00000000
00FFE007FF00000000
00FFE007FF00000000
01FFC00FFE00000000
01FFC00FFE00000000
01FF800FFE00000000
03FF801FFC00000000
03FF801FFC00000000
ENDCHAR
STARTCHAR 0024
ENCODING 36
SWIDTH 562 0
DWIDTH 50 0
BBX 35 70 9 -3
BITMAP
0007F80000
0007F80000
0007F80000
0007F80000
0007F80000
0007F80000
0007F80000
0007F80000
003FFFFE00
01FFFFFE00
07FFFFFE00
0FFFFFFE00
1FFFFFFE00
3FFFFFFE00
3FFFFFFE00
7FFFFFFE00
7FFFFFFE00
7FFFFFFE00
FFFFFFFE00
FFFF000000
FFFE000000
FFFC000000
FFFE000000
7FFE000000
7FFF800000
7FFFC00000
3FFFE00000
3FFFF80000
1FFFFC0000
1FFFFF0000
0FFFFF8000
07FFFFC000
03FFFFF000
01FFFFF800
00FFFFFC00
007FFFFE00
001FFFFF00
000FFFFF00
0007FFFF80
0001FFFFC0
0000FFFFC0
00007FFFC0
00001FFFC0
00001FFFE0
00000FFFE0
00000FFFE0
00001FFFE0
00003FFFE0
7FFFFFFFC0
7FFFFFFFC0
7FFFFFFFC0
7FFFFFFFC0
7FFFFFFF80
7FFFFFFF80
7FFFFFFF00
7FFFFFFE00
7FFFFFFC00
7FFFFFF800
7FFFFFE000
7FFFFF8000
7FFFFC0000
0007F80000
0007F80000
0007F80000
0007F80000
0007F80000
0007F80000
0007F80000
0007F80000
0007F80000
ENDCHAR
STARTCHAR 0025
ENCODING 37
SWIDTH 866 0
DWIDTH 77 0
BBX 72 62 3 0
BITMAP
000FF80000003FF000
007FFE0000003FE000
01FFFF8000007FC000
03FFFFC00000FFC000
07FFFFE00000FF8000
0FFFFFF00001FF0000
1FFFFFF80003FF0000
3FFFFFFC0003FE0000
3FFFFFFC0007FE0000
7FFFFFFE0007FC0000
7FF81FFE000FF80000
7FF007FF001FF80000
FFE003FF001FF00000
FFC003FF003FE00000
FFC003FF007FE00000
FFC003FF007FC00000
FFC003FF00FFC00000
FFC003FF00FF800000
FFC003FF01FF000000
FFE007FF03FF000000
7FF007FE03FE000000
7FF81FFE07FC000000
7FFFFFFE0FFC000000
3FFFFFFC0FF8000000
3FFFFFFC1FF8000000
1FFFFFF81FF0000000
0FFFFFF03FE0000000
07FFFFE07FE0000000
03FFFFC07FC0000000
01FFFF80FF80000000
007FFE01FF800FE000
000FF001FF007FFC00
00000003FF01FFFF00
00000003FE03FFFFC0
00000007FC07FFFFE0
0000000FFC0FFFFFF0
0000000FF81FFFFFF8
0000001FF03FFFFFF8
0000003FF07FFFFFFC
0000003FE07FFFFFFC
0000007FE07FF81FFE
0000007FC0FFE00FFE
000000FF80FFC007FE
000001FF80FFC003FE
000001FF00FFC003FF
000003FE00FF8003FF
000007FE00FF8003FF
000007FC00FF8003FF
00000FFC00FFC003FE
00000FF800FFC007FE
00001FF000FFE00FFE
00003FF000FFF01FFE
00003FE0007FFFFFFC
00007FC0007FFFFFFC
0000FFC0003FFFFFF8
0000FF80001FFFFFF8
0001FF80001FFFFFF0
0001FF00000FFFFFE0
0003FE000007FFFFC0
0007FE000001FFFF80
0007FC0000007FFE00
000FF80000001FF000
ENDCHAR
STARTCHAR 0026
ENCODING 38
SWIDTH 753 0
DWIDTH 67 0
BBX 63 63 4 -1
BITMAP
0007FFFFFFF00000
001FFFFFFFF00000
007FFFFFFFF00000
00FFFFFFFFF00000
01FFFFFFFFF00000
01FFFFFFFFF00000
03FFFFFFFFF00000
03FFFFFFFFF00000
03FFFFFFFFF00000
03FFFFFFFFF00000
03FFFFFFFFF00000
03FFFFFFFFF00000
01FFFFFFFFF00000
01FFFF8000000000
00FFFFC000000000
007FFFE000001000
003FFFE000003800
003FFFF00000F800
001FFFF80001FC00
007FFFFC0003FE00
00FFFFFE000FFE00
01FFFFFE001FFF00
03FFFFFF003FFF80
07FFFFFF80FFFF80
0FFFFFFFC07FFF80
0FFFFFFFE03FFFC0
1FFFFFFFE03FFFC0
1FFFFFFFF01FFFC0
3FFFFFFFF81FFFE0
3FFFFFFFFC0FFFE0
7FFFE7FFFE0FFFE0
7FFFC7FFFE0FFFE0
7FFFC3FFFF0FFFE0
7FFF81FFFF8FFFE0
FFFF80FFFFCFFFE0
FFFF007FFFEFFFE0
FFFF007FFFEFFFE0
FFFF003FFFFFFFE0
FFFF001FFFFFFFE0
FFFF000FFFFFFFC0
FFFF000FFFFFFFC0
FFFF0007FFFFFFC0
7FFF8003FFFFFF80
7FFF8001FFFFFF80
7FFFC000FFFFFF80
7FFFE000FFFFFF00
3FFFF0007FFFFF00
3FFFF8003FFFFE00
1FFFFF00FFFFFC00
1FFFFFFFFFFFFC00
0FFFFFFFFFFFFC00
0FFFFFFFFFFFFE00
07FFFFFFFFFFFF00
03FFFFFFFFFFFF80
01FFFFFFFFFFFFC0
00FFFFFFFFFFFFC0
007FFFFFFFFFFFE0
003FFFFFFFFFFFF0
000FFFFFFFFFFFF8
0007FFFFFFFFFFFC
0001FFFFFF8FFFFC
00003FFFFC07FFFE
000003FFC0000000
ENDCHAR
STARTCHAR 0027
ENCODING 39
SWIDTH 180 0
DWIDTH 16 0
BBX 10 24 3 38
BITMAP
FFC0
FFC0
FFC0
FFC0
FFC0
FFC0
FFC0
FFC0
FFC0
FFC0
FFC0
FFC0
FFC0
FFC0
FFC0
FFC0
FFC0
FFC0
FFC0
FFC0
FFC0
FFC0
FFC0
FFC0
ENDCHAR
STARTCHAR 0028
ENCODING 40
SWIDTH 393 0
DWIDTH 35 0
BBX 26 83 7 -21
BITMAP
00003000
00007800
0000FC00
0001FC00
0003FE00
0007FF00
000FFF80
001FFF80
001FFF00
003FFE00
007FFC00
00FFFC00
00FFF800
01FFF000
01FFE000
03FFC000
07FFC000
07FF8000
0FFF8000
0FFF0000
0FFE0000
1FFE0000
1FFC0000
3FFC0000
3FFC0000
3FF80000
3FF80000
7FF80000
7FF00000
7FF00000
7FF00000
FFF00000
FFE00000
FFE00000
FFE00000
FFE00000
FFE00000
FFE00000
FFE00000
FFE00000
FFE00000
FFE00000
FFE00000
FFE00000
FFE00000
FFE00000
FFE00000
FFE00000
FFE00000
FFE00000
FFF00000
FFF00000
7FF00000
7FF00000
7FF80000
7FF80000
7FF80000
3FFC0000
3FFC0000
3FFC0000
1FFE0000
1FFE0000
0FFF0000
0FFF0000
0FFF8000
07FFC000
07FFC000
03FFE000
03FFF000
01FFF000
00FFF800
00FFFC00
007FFE00
003FFF00
001FFF80
001FFFC0
000FFFC0
0007FF80
0003FF00
0001FE00
0000FC00
00007800
00003000
ENDCHAR
STARTCHAR 0029
ENCODING 41
SWIDTH 393 0
DWIDTH 35 0
BBX 27 83 2 -21
BITMAP
03000000
07800000
0FC00000
1FE00000
3FF00000
7FF80000
FFFC0000
FFFE0000
7FFE0000
3FFF0000
1FFF8000
0FFFC000
0FFFC000
07FFE000
03FFE000
01FFF000
00FFF800
00FFF800
007FFC00
007FFC00
003FFC00
001FFE00
001FFE00
001FFF00
000FFF00
000FFF00
0007FF80
0007FF80
0007FF80
0003FF80
0003FFC0
0003FFC0
0001FFC0
0001FFC0
0001FFC0
0001FFC0
0001FFC0
0001FFC0
0001FFE0
0000FFE0
0000FFE0
0000FFE0
0000FFE0
0000FFE0
0000FFE0
0000FFC0
0001FFC0
0001FFC0
0001FFC0
0001FFC0
0001FFC0
0001FFC0
0001FFC0
0003FF80
0003FF80
0003FF80
0007FF80
0007FF00
0007FF00
000FFF00
000FFE00
001FFE00
001FFE00
003FFC00
003FFC00
007FF800
007FF800
00FFF000
01FFF000
01FFE000
03FFE000
07FFC000
0FFF8000
1FFF8000
3FFF0000
7FFE0000
FFFC0000
7FFC0000
3FF80000
1FF00000
0FE00000
07C00000
03800000
ENDCHAR
STARTCHAR 002A
ENCODING 42
SWIDTH 483 0
DWIDTH 43 0
BBX 32 32 6 31
BITMAP
003FFC00
003FF800
001FF800
001FF820
0C1FF060
0E0FF070
1F0FF0F0
1F8FE1F8
3FC7E3FC
3FE7E7FC
7FF7EFFE
FFFBDFFE
FFFFFFFF
7FFFFFFE
07FFFFE0
007FFE00
001FF800
03FFFF80
3FFFFFFC
FFFFFFFF
FFFBDFFF
7FF7CFFE
7FE7E7FC
3FC7E7FC
3F8FE3F8
1F0FF1F8
0E0FF0F0
0C1FF070
041FF020
001FF800
001FF800
003FF800
ENDCHAR
STARTCHAR 002B
ENCODING 43
SWIDTH 832 0
DWIDTH 74 0
BBX 52 53 11 0
BITMAP
000007FE000000
000007FE000000
000007FE000000
000007FE000000
000007FE000000
000007FE000000
000007FE000000
000007FE000000
000007FE000000
000007FE000000
000007FE000000
000007FE000000
000007FE000000
000007FE000000
000007FE000000
000007FE000000
000007FE000000
000007FE000000
000007FE000000
000007FE000000
000007FE000000
FFFFFFFFFFFFF0
FFFFFFFFFFFFF0
FFFFFFFFFFFFF0
FFFFFFFFFFFFF0
FFFFFFFFFFFFF0
FFFFFFFFFFFFF0
FFFFFFFFFFFFF0
FFFFFFFFFFFFF0
FFFFFFFFFFFFF0
FFFFFFFFFFFFF0
000007FE000000
000007FE000000
000007FE000000
000007FE000000
000007FE000000
000007FE000000
000007FE000000
000007FE000000
000007FE000000
000007FE000000
000007FE000000
000007FE000000
000007FE000000
000007FE000000
000007FE000000
000007FE000000
000007FE000000
000007FE000000
000007FE000000
000007FE000000
000007FE000000
000007FE000000
ENDCHAR
STARTCHAR 002C
ENCODING 44
SWIDTH 281 0
DWIDTH 25 0
BBX 19 26 2 -13
BITMAP
0FFFE0
0FFFE0
0FFFC0
0FFFC0
1FFFC0
1FFF80
1FFF80
1FFF80
1FFF00
1FFF00
3FFF00
3FFE00
3FFE00
3FFE00
3FFC00
7FFC00
7FFC00
7FF800
7FF800
7FF000
FFF000
FFF000
FFE000
FFE000
FFE000
FFC000
ENDCHAR
STARTCHAR 002D
ENCODING 45
SWIDTH 326 0
DWIDTH 29 0
BBX 23 12 3 16
BITMAP
FFFFFE
FFFFFE
FFFFFE
FFFFFE
FFFFFE
FFFFFE
FFFFFE
FFFFFE
FFFFFE
FFFFFE
FFFFFE
FFFFFE
ENDCHAR
STARTCHAR 002E
ENCODING 46
SWIDTH 281 0
DWIDTH 25 0
BBX 17 18 4 -1
BITMAP
008000
0FF800
1FFC00
3FFE00
7FFF00
FFFF80
FFFF80
FFFF80
FFFF80
FFFF80
FFFF80
FFFF80
FFFF80
7FFF00
7FFF00
3FFE00
1FFC00
07F000
ENDCHAR
STARTCHAR 002F
ENCODING 47
SWIDTH 270 0
DWIDTH 24 0
BBX 30 71 -3 -8
BITMAP
000003FC
000003FC
000003FC
000007F8
000007F8
000007F8
00000FF0
00000FF0
00000FF0
00001FE0
00001FE0
00001FE0
00001FC0
00003FC0
00003FC0
00003FC0
00007F80
00007F80
00007F80
0000FF00
0000FF00
0000FF00
0001FE00
0001FE00
0001FE00
0003FC00
0003FC00
0003FC00
0007F800
0007F800
0007F800
000FF000
000FF000
000FF000
000FE000
001FE000
001FE000
001FE000
003FC000
003FC000
003FC000
007F8000
007F8000
007F8000
00FF0000
00FF0000
00FF0000
01FE0000
01FE0000
01FE0000
03FC0000
03FC0000
03FC0000
07F80000
07F80000
07F80000
07F80000
0FF00000
0FF00000
0FF00000
1FE00000
1FE00000
1FE00000
3FC00000
3FC00000
3FC00000
7F800000
7F800000
7F800000
FF000000
FF000000
ENDCHAR
STARTCHAR 0030
ENCODING 48
SWIDTH 562 0
DWIDTH 50 0
BBX 44 64 3 -1
BITMAP
0000FFF00000
0007FFFE0000
001FFFFFC000
007FFFFFE000
00FFFFFFF800
03FFFFFFFC00
07FFFFFFFE00
0FFFFFFFFF00
0FFFFFFFFF80
1FFFFFFFFF80
3FFFFFFFFFC0
3FFFFFFFFFC0
7FFFFFFFFFE0
7FFFF0FFFFE0
7FFFC03FFFF0
FFFF801FFFF0
FFFF000FFFF0
FFFF0007FFF0
FFFE0007FFF0
FFFE0007FFF0
FFFE0007FFF0
FFFE0003FFF0
FFFE0003FFF0
FFFE0003FFF0
FFFE0003FFF0
FFFE0003FFF0
FFFE0003FFF0
FFFE0003FFF0
FFFE0003FFF0
FFFE0003FFF0
FFFE0003FFF0
FFFE0003FFF0
FFFE0003FFF0
FFFE0003FFF0
FFFE0003FFF0
FFFE0003FFF0
FFFE0003FFF0
FFFE0003FFF0
FFFE0003FFF0
FFFE0003FFF0
FFFE0003FFF0
FFFE0003FFF0
FFFE0003FFF0
FFFE0007FFF0
FFFE0007FFF0
FFFE0007FFF0
FFFF000FFFF0
FFFF000FFFF0
FFFF801FFFF0
7FFFE07FFFF0
7FFFFFFFFFE0
7FFFFFFFFFE0
3FFFFFFFFFC0
3FFFFFFFFFC0
1FFFFFFFFF80
0FFFFFFFFF00
0FFFFFFFFF00
07FFFFFFFE00
03FFFFFFFC00
00FFFFFFF000
007FFFFFE000
001FFFFF8000
0007FFFE0000
0000FFF00000
ENDCHAR
STARTCHAR 0031
ENCODING 49
SWIDTH 562 0
DWIDTH 50 0
BBX 24 62 12 0
BITMAP
FFFFFF
FFFFFF
FFFFFF
FFFFFF
FFFFFF
FFFFFF
FFFFFF
FFFFFF
FFFFFF
FFFFFF
FFFFFF
FFFFFF
FFFFFF
FFFFFF
003FFF
003FFF
003FFF
003FFF
003FFF
003FFF
003FFF
003FFF
003FFF
003FFF
003FFF
003FFF
003FFF
003FFF
003FFF
003FFF
003FFF
003FFF
003FFF
003FFF
003FFF
003FFF
003FFF
003FFF
003FFF
003FFF
003FFF
003FFF
003FFF
003FFF
003FFF
003FFF
003FFF
003FFF
003FFF
003FFF
003FFF
003FFF
003FFF
003FFF
003FFF
003FFF
003FFF
003FFF
003FFF
003FFF
003FFF
003FFF
ENDCHAR
STARTCHAR 0032
ENCODING 50
SWIDTH 562 0
DWIDTH 50 0
BBX 42 63 4 0
BITMAP
0001FFE00000
000FFFFC0000
003FFFFF0000
00FFFFFF8000
01FFFFFFE000
03FFFFFFF000
07FFFFFFF800
0FFFFFFFFC00
1FFFFFFFFC00
1FFFFFFFFE00
3FFFFFFFFE00
3FFFFFFFFF00
7FFFFFFFFF00
7FFFF7FFFF00
7FFF80FFFF80
7FFF007FFF80
FFFE003FFF80
FFFE003FFF80
FFFE003FFF80
FFFE003FFF80
FFFE003FFF80
FFFE003FFF80
FFFF007FFF80
7FFF807FFF00
7FFFC0FFFF00
7FFFC1FFFF00
3FFF83FFFE00
3FFF07FFFE00
1FFE0FFFFC00
1FFC1FFFFC00
0FF83FFFF800
07F07FFFF000
07E0FFFFF000
01C1FFFFE000
0083FFFFC000
0007FFFF8000
000FFFFF0000
001FFFFE0000
001FFFFC0000
003FFFF80000
007FFFF00000
00FFFFE00000
01FFFFC00000
03FFFF800000
07FFFF000000
0FFFFE000000
1FFFFC000000
3FFFF8000000
3FFFF0000000
7FFFFFFFFFC0
7FFFFFFFFFC0
FFFFFFFFFFC0
FFFFFFFFFFC0
FFFFFFFFFFC0
FFFFFFFFFFC0
FFFFFFFFFFC0
FFFFFFFFFFC0
FFFFFFFFFFC0
FFFFFFFFFFC0
7FFFFFFFFFC0
3FFFFFFFFFC0
1FFFFFFFFFC0
07FFFFFFFFC0
ENDCHAR
STARTCHAR 0033
ENCODING 51
SWIDTH 562 0
DWIDTH 50 0
BBX 42 62 4 0
BITMAP
7FFFFFFE0000
7FFFFFFFC000
7FFFFFFFF000
7FFFFFFFF800
7FFFFFFFFC00
7FFFFFFFFE00
7FFFFFFFFE00
7FFFFFFFFE00
7FFFFFFFFF00
7FFFFFFFFF00
7FFFFFFFFF00
7FFFFFFFFF00
7FFFFFFFFE00
7FFFFFFFFE00
000003FFFE00
000007FFFC00
00000FFFF800
00001FFFF000
00003FFFE000
00007FFFC000
0000FFFF8000
0001FFFF0000
0003FFFE0000
000FFFFC0000
001FFFF80000
003FFFF80000
007FFFFF0000
007FFFFFE000
007FFFFFF000
007FFFFFF800
007FFFFFFC00
007FFFFFFE00
007FFFFFFF00
007FFFFFFF00
007FFFFFFF80
000007FFFF80
0000007FFF80
0000003FFFC0
0000001FFFC0
0000001FFFC0
0000000FFFC0
0000000FFFC0
0000000FFFC0
0000001FFFC0
0000001FFFC0
0000003FFFC0
0000007FFFC0
00000FFFFFC0
FFFFFFFFFF80
FFFFFFFFFF80
FFFFFFFFFF80
FFFFFFFFFF00
FFFFFFFFFF00
FFFFFFFFFE00
FFFFFFFFFE00
FFFFFFFFFC00
FFFFFFFFF800
FFFFFFFFF000
FFFFFFFFC000
FFFFFFFF8000
FFFFFFFE0000
FFFFFFE00000
ENDCHAR
STARTCHAR 0034
ENCODING 52
SWIDTH 562 0
DWIDTH 50 0
BBX 46 63 2 1
BITMAP
000000000200
00000FFFC200
00001FFFC600
00001FFF8600
00003FFF8E00
00003FFF0E00
00007FFF1E00
0000FFFE3E00
0000FFFC3E00
0001FFFC7E00
0001FFF87E00
0003FFF8FE00
0003FFF0FE00
0007FFF1FE00
0007FFE3FE00
000FFFC3FE00
001FFFC7FE00
001FFF87FE00
003FFF8FFE00
003FFF0FFE00
007FFF1FFE00
007FFE3FFE00
00FFFC3FFE00
00FFFC3FFE00
01FFF83FFE00
03FFF83FFE00
03FFF03FFE00
07FFF03FFE00
07FFE03FFE00
0FFFC03FFE00
0FFFC03FFE00
1FFF803FFE00
1FFF803FFE00
3FFF003FFE00
3FFF003FFE00
7FFE003FFE00
7FFE003FFFFC
7FFFFFFFFFFC
FFFFFFFFFFFC
FFFFFFFFFFFC
FFFFFFFFFFFC
FFFFFFFFFFFC
FFFFFFFFFFFC
7FFFFFFFFFFC
7FFFFFFFFFFC
7FFFFFFFFFFC
3FFFFFFFFFFC
1FFFFFFFFFFC
0FFFFFFFFFFC
03FFFFFFFFFC
0000003FFE00
0000003FFE00
0000003FFE00
0000003FFE00
0000003FFE00
0000003FFE00
0000003FFE00
0000003FFE00
0000003FFE00
0000003FFE00
0000003FFE00
0000003FFE00
0000003FFE00
ENDCHAR
STARTCHAR 0035
ENCODING 53
SWIDTH 562 0
DWIDTH 50 0
BBX 41 62 5 0
BITMAP
7FFFFFFFF000
7FFFFFFFF000
7FFFFFFFF000
7FFFFFFFF000
7FFFFFFFF000
7FFFFFFFF000
7FFFFFFFF000
7FFFFFFFF000
7FFFFFFFF000
7FFFFFFFF000
7FFFFFFFF000
7FFFFFFFF000
7FFFFFFFF000
7FFF00000000
7FFF00000000
7FFF00000000
7FFF00000000
7FFF00000000
7FFF00000000
7FFF00000000
7FFFFFC00000
7FFFFFF80000
7FFFFFFF0000
7FFFFFFF8000
7FFFFFFFC000
7FFFFFFFF000
7FFFFFFFF000
7FFFFFFFF800
7FFFFFFFFC00
7FFFFFFFFC00
7FFFFFFFFE00
7FFFFFFFFE00
7FFFFFFFFF00
7FFFFFFFFF00
000003FFFF00
000000FFFF00
0000007FFF80
0000003FFF80
0000003FFF80
0000003FFF80
0000003FFF80
0000003FFF80
0000003FFF80
0000003FFF80
0000007FFF80
0000007FFF80
000001FFFF00
00003FFFFF00
FFFFFFFFFF00
FFFFFFFFFF00
FFFFFFFFFE00
FFFFFFFFFE00
FFFFFFFFFC00
FFFFFFFFFC00
FFFFFFFFF800
FFFFFFFFF000
FFFFFFFFE000
FFFFFFFFC000
FFFFFFFF8000
FFFFFFFE0000
FFFFFFF80000
FFFFFF800000
ENDCHAR
STARTCHAR 0036
ENCODING 54
SWIDTH 562 0
DWIDTH 50 0
BBX 45 63 3 -1
BITMAP
00001FFFE000
00003FFFE000
00003FFFC000
00007FFFC000
0000FFFF8000
0000FFFF8000
0001FFFF0000
0001FFFF0000
0003FFFE0000
0003FFFC0000
0007FFFC0000
0007FFF80000
000FFFF80000
001FFFF00000
001FFFF00000
003FFFE00000
003FFFE00000
007FFFC00000
007FFF800000
00FFFF800000
01FFFF0C0000
01FFFF0F8000
03FFFE1FE000
03FFFE3FF800
07FFFC3FFC00
07FFF87FFF00
0FFFF87FFF80
0FFFF0FFFF80
1FFFF0FFFFC0
1FFFE1FFFFE0
1FFFE1FFFFE0
3FFFC3FFFFE0
3FFFC7FFFFF0
7FFF807FFFF0
7FFF001FFFF0
7FFF000FFFF8
7FFF0007FFF8
FFFE0007FFF8
FFFE0007FFF8
FFFE0003FFF8
FFFC0003FFF8
FFFE0007FFF8
FFFE0007FFF8
FFFE0007FFF8
FFFE000FFFF0
FFFF000FFFF0
FFFF801FFFF0
7FFFC07FFFF0
7FFFFFFFFFE0
7FFFFFFFFFE0
3FFFFFFFFFE0
3FFFFFFFFFC0
1FFFFFFFFFC0
1FFFFFFFFF80
0FFFFFFFFF00
07FFFFFFFE00
03FFFFFFFC00
01FFFFFFF800
00FFFFFFF000
007FFFFFE000
001FFFFF8000
0007FFFE0000
0000FFE00000
ENDCHAR
STARTCHAR 0037
ENCODING 55
SWIDTH 562 0
DWIDTH 50 0
BBX 41 62 4 0
BITMAP
FFFFFFFFC000
FFFFFFFFF800
FFFFFFFFFC00
FFFFFFFFFE00
FFFFFFFFFF00
FFFFFFFFFF80
FFFFFFFFFF80
FFFFFFFFFF80
FFFFFFFFFF80
FFFFFFFFFF80
FFFFFFFFFF80
FFFFFFFFFF80
FFFFFFFFFF80
FFFFFFFFFF80
0000007FFF80
0000007FFF00
0000007FFF00
000000FFFF00
000000FFFE00
000000FFFE00
000001FFFE00
000001FFFC00
000001FFFC00
000003FFFC00
000003FFF800
000003FFF800
000007FFF800
03FFFFFFFF00
03FFFFFFFF00
03FFFFFFFF00
03FFFFFFFF00
03FFFFFFFF00
03FFFFFFFF00
03FFFFFFFF00
03FFFFFFFF00
03FFFFFFFF00
00003FFFC000
00003FFF8000
00007FFF8000
00007FFF8000
0000FFFF0000
0000FFFF0000
0000FFFF0000
0001FFFE0000
0001FFFE0000
0001FFFE0000
0003FFFE0000
0003FFFC0000
0003FFFC0000
0007FFFC0000
0007FFF80000
0007FFF80000
000FFFF80000
000FFFF00000
000FFFF00000
001FFFF00000
001FFFE00000
001FFFE00000
003FFFE00000
003FFFC00000
003FFFC00000
007FFFC00000
ENDCHAR
STARTCHAR 0038
ENCODING 56
SWIDTH 562 0
DWIDTH 50 0
BBX 45 64 3 -1
BITMAP
0000FFF00000
0007FFFE0000
001FFFFF8000
007FFFFFE000
00FFFFFFF000
01FFFFFFFC00
03FFFFFFFE00
07FFFFFFFE00
0FFFFFFFFF00
0FFFFFFFFF80
1FFFFFFFFF80
1FFFFFFFFF80
3FFFE03FFFC0
3FFF801FFFC0
3FFF000FFFC0
3FFF000FFFC0
3FFF0007FFC0
3FFE0007FFC0
3FFE0007FFC0
3FFF000FFFC0
1FFF000FFFC0
1FFF800FFF80
1FFFC01FFF80
0FFFE07FFF00
07FFFFFFFF00
07FFFFFFFE00
03FFFFFFFC00
01FFFFFFF800
00FFFFFFF000
00FFFFFFF000
03FFFFFFFC00
07FFFFFFFE00
0FFFFFFFFF00
1FFFFFFFFF80
3FFFFFFFFFC0
3FFFE07FFFC0
7FFF801FFFE0
7FFF000FFFE0
FFFE0007FFF0
FFFE0003FFF0
FFFC0003FFF0
FFFC0003FFF0
FFFC0003FFF8
FFFC0003FFF8
FFFC0003FFF8
FFFE0003FFF8
FFFE0007FFF8
FFFF000FFFF0
FFFF801FFFF0
FFFFC03FFFF0
FFFFFFFFFFF0
7FFFFFFFFFE0
7FFFFFFFFFE0
3FFFFFFFFFE0
3FFFFFFFFFC0
1FFFFFFFFF80
0FFFFFFFFF00
07FFFFFFFE00
03FFFFFFFC00
01FFFFFFF800
00FFFFFFF000
003FFFFFC000
000FFFFE0000
0000FFF00000
ENDCHAR
STARTCHAR 0039
ENCODING 57
SWIDTH 562 0
DWIDTH 50 0
BBX 45 63 2 0
BITMAP
00007FF80000
0003FFFF0000
000FFFFFC000
003FFFFFF000
007FFFFFF800
00FFFFFFFC00
01FFFFFFFF00
03FFFFFFFF00
07FFFFFFFF80
0FFFFFFFFFC0
0FFFFFFFFFE0
1FFFFFFFFFE0
1FFFFFFFFFF0
3FFFFFFFFFF0
3FFFFFFFFFF0
7FFFF01FFFF8
7FFFC00FFFF8
7FFF8007FFF8
7FFF8003FFF8
7FFF0003FFF8
FFFF0001FFF8
FFFF0001FFF8
FFFF0001FFF8
FFFF0001FFF8
FFFF0003FFF8
FFFF0003FFF8
7FFF8003FFF8
7FFF8007FFF0
7FFFC007FFF0
7FFFF00FFFF0
7FFFFF0FFFE0
3FFFFE1FFFE0
3FFFFE3FFFE0
1FFFFC3FFFC0
1FFFF87FFFC0
0FFFF87FFF80
07FFF0FFFF80
03FFF0FFFF00
01FFE1FFFF00
00FFE1FFFE00
003FC3FFFE00
000FC7FFFC00
000087FFFC00
00000FFFF800
00000FFFF800
00001FFFF000
00001FFFE000
00003FFFE000
00007FFFC000
00007FFFC000
0000FFFF8000
0000FFFF8000
0001FFFF0000
0001FFFE0000
0003FFFE0000
0003FFFC0000
0007FFFC0000
000FFFF80000
000FFFF80000
001FFFF00000
001FFFF00000
003FFFE00000
003FFFC00000
ENDCHAR
STARTCHAR 003A
ENCODING 58
SWIDTH 303 0
DWIDTH 27 0
BBX 18 44 5 -1
BITMAP
07F000
0FFC00
3FFE00
3FFF00
7FFF80
FFFF80
FFFF80
FFFFC0
FFFFC0
FFFFC0
FFFFC0
FFFF80
7FFF80
7FFF00
3FFF00
1FFE00
0FF800
01E000
000000
000000
000000
000000
000000
000000
000000
000000
00C000
0FF800
1FFE00
3FFF00
7FFF00
7FFF80
FFFF80
FFFF80
FFFFC0
FFFFC0
FFFFC0
FFFF80
FFFF80
7FFF80
7FFF00
3FFE00
1FFC00
07F000
ENDCHAR
STARTCHAR 003B
ENCODING 59
SWIDTH 303 0
DWIDTH 27 0
BBX 21 56 2 -13
BITMAP
007F00
01FFC0
03FFE0
07FFF0
07FFF0
0FFFF8
0FFFF8
0FFFF8
0FFFF8
0FFFF8
0FFFF8
0FFFF8
0FFFF8
07FFF0
03FFE0
01FFC0
00FF80
001C00
000000
000000
000000
000000
000000
000000
000000
000000
000000
000000
000000
000000
07FFF0
0FFFE0
0FFFE0
0FFFE0
0FFFC0
0FFFC0
0FFFC0
1FFF80
1FFF80
1FFF00
1FFF00
1FFF00
3FFE00
3FFE00
3FFE00
3FFC00
3FFC00
7FFC00
7FF800
7FF800
7FF800
7FF000
7FF000
FFF000
FFE000
FFE000
ENDCHAR
STARTCHAR 003C
ENCODING 60
SWIDTH 832 0
DWIDTH 74 0
BBX 52 53 11 0
BITMAP
00000000000010
00000000000070
000000000003F0
00000000000FF0
00000000007FF0
0000000001FFF0
0000000007FFF0
000000003FFFF0
00000000FFFFF0
00000007FFFFF0
0000001FFFFFF0
0000007FFFFFE0
000003FFFFFF80
00000FFFFFFC00
00007FFFFFF000
0001FFFFFF8000
000FFFFFFE0000
003FFFFFF80000
00FFFFFFC00000
07FFFFFF000000
1FFFFFF8000000
FFFFFFE0000000
FFFFFF00000000
FFFFFC00000000
FFFFE000000000
FFFF8000000000
FFFE0000000000
FFFF8000000000
FFFFE000000000
FFFFFC00000000
FFFFFF00000000
FFFFFFE0000000
1FFFFFF8000000
07FFFFFF000000
00FFFFFFC00000
003FFFFFF80000
000FFFFFFE0000
0001FFFFFF8000
00007FFFFFF000
00000FFFFFFC00
000003FFFFFF80
000000FFFFFFE0
0000001FFFFFF0
00000007FFFFF0
00000000FFFFF0
000000003FFFF0
0000000007FFF0
0000000001FFF0
00000000003FF0
00000000000FF0
000000000003F0
00000000000070
00000000000010
ENDCHAR
STARTCHAR 003D
ENCODING 61
SWIDTH 832 0
DWIDTH 74 0
BBX 52 29 11 12
BITMAP
FFFFFFFFFFFFF0
FFFFFFFFFFFFF0
FFFFFFFFFFFFF0
FFFFFFFFFFFFF0
FFFFFFFFFFFFF0
FFFFFFFFFFFFF0
FFFFFFFFFFFFF0
FFFFFFFFFFFFF0
FFFFFFFFFFFFF0
FFFFFFFFFFFFF0
00000000000000
00000000000000
00000000000000
00000000000000
00000000000000
00000000000000
00000000000000
00000000000000
00000000000000
FFFFFFFFFFFFF0
FFFFFFFFFFFFF0
FFFFFFFFFFFFF0
FFFFFFFFFFFFF0
FFFFFFFFFFFFF0
FFFFFFFFFFFFF0
FFFFFFFFFFFFF0
FFFFFFFFFFFFF0
FFFFFFFFFFFFF0
FFFFFFFFFFFFF0
ENDCHAR
STARTCHAR 003E
ENCODING 62
SWIDTH 832 0
DWIDTH 74 0
BBX 52 53 11 0
BITMAP
80000000000000
E0000000000000
FC000000000000
FF000000000000
FFE00000000000
FFF80000000000
FFFE0000000000
FFFFC000000000
FFFFF000000000
FFFFFE00000000
FFFFFF80000000
7FFFFFF0000000
1FFFFFFC000000
03FFFFFF000000
00FFFFFFE00000
001FFFFFF80000
0007FFFFFF0000
0000FFFFFFC000
00003FFFFFF000
00000FFFFFFE00
000001FFFFFF80
0000007FFFFFF0
0000000FFFFFF0
00000003FFFFF0
000000007FFFF0
000000001FFFF0
0000000007FFF0
000000001FFFF0
000000007FFFF0
00000003FFFFF0
0000000FFFFFF0
0000007FFFFFF0
000001FFFFFF80
00000FFFFFFE00
00003FFFFFF000
0001FFFFFFC000
0007FFFFFF0000
001FFFFFF80000
00FFFFFFE00000
03FFFFFF000000
1FFFFFFC000000
7FFFFFF0000000
FFFFFF80000000
FFFFFE00000000
FFFFF000000000
FFFFC000000000
FFFE0000000000
FFF80000000000
FFE00000000000
FF000000000000
FC000000000000
E0000000000000
80000000000000
ENDCHAR
STARTCHAR 003F
ENCODING 63
SWIDTH 517 0
DWIDTH 46 0
BBX 41 64 2 -1
BITMAP
0003FFE00000
001FFFFC0000
007FFFFF0000
01FFFFFF8000
03FFFFFFC000
07FFFFFFF000
0FFFFFFFF800
1FFFFFFFF800
1FFFFFFFFC00
3FFFFFFFFE00
3FFFFFFFFE00
7FFFFFFFFF00
7FFFFFFFFF00
FFFFFFFFFF00
FFFF01FFFF80
FFFE007FFF80
7FFE007FFF80
07FC003FFF80
007C003FFF80
0004003FFF80
0000003FFF80
0000007FFF80
0000007FFF80
000000FFFF80
000003FFFF80
0007FFFFFF00
0007FFFFFF00
0007FFFFFF00
0007FFFFFE00
0007FFFFFE00
0007FFFFFC00
0007FFFFF800
0007FFFFF800
0007FFFFF000
0007FFFFC000
0007FFFF8000
0007FFFC0000
0007FFE00000
0007FFE00000
0007FFE00000
0007FFE00000
0007FFE00000
0007FFE00000
000000000000
000000000000
000000000000
000010000000
0000FF000000
0003FFC00000
0007FFE00000
000FFFF00000
000FFFF00000
000FFFF80000
001FFFF80000
001FFFF80000
001FFFF80000
001FFFF80000
001FFFF80000
000FFFF00000
000FFFF00000
0007FFE00000
0003FFC00000
0001FF800000
00007F000000
ENDCHAR
STARTCHAR 0040
ENCODING 64
SWIDTH 990 0
DWIDTH 88 0
BBX 81 79 4 -14
BITMAP
0000000000FF0000000000
000000007FFFFF00000000
00000007FFFFFFE0000000
0000003FFFFFFFFC000000
000000FFFFFFFFFF000000
000003FFFFFFFFFFC00000
00000FFFFFFFFFFFF00000
00001FFFFFFFFFFFF80000
00007FFFFFE7FFFFFC0000
0000FFFFC00003FFFF0000
0003FFFE0000007FFF8000
0007FFF00000001FFFC000
000FFFC000000007FFE000
001FFF8000000001FFE000
003FFE0000000000FFF000
007FF800000000007FF800
007FF000000000003FF800
00FFE000000000001FFC00
01FFC000000000000FFE00
03FF80000000000007FE00
03FF00000000000003FE00
07FF00001FF8000003FF00
07FE00007FFE07FC01FF00
0FFC0001FFFF0FF801FF00
0FF80007FFFF9FF801FF80
1FF8000FFFFFDFF800FF80
1FF0001FFFFFFFF800FF80
3FF0003FFFFFFFF000FF80
3FE0007FFE0FFFF000FF80
3FE000FFF803FFF000FF80
7FE001FFE001FFF000FF80
7FC001FFC001FFE000FF80
7FC003FFC001FFE000FF80
FFC003FF8000FFE000FF80
FF8007FF0000FFE000FF80
FF8007FF0000FFC000FF80
FF8007FE0000FFC000FF80
FF800FFE0001FFC000FF80
FF800FFE0001FFC000FF80
FF800FFC0001FF8001FF80
FF800FFC0001FF8001FF00
FF801FFC0003FF8001FF00
FF801FFC0003FF8003FF00
FF801FFC0003FF0003FE00
FF801FFC0003FF0007FE00
FF801FFC0007FF0007FC00
FF801FFC0007FF000FFC00
FF801FFC000FFE001FF800
FF801FFC000FFE003FF800
FF801FFC001FFE007FF000
FFC00FFE003FFE00FFE000
7FC00FFE007FFE01FFE000
7FC00FFF01FFFF1FFFC000
7FE007FFFFFFFFFFFF8000
7FE007FFFFFFFFFFFF0000
3FE003FFFFF9FFFFFE0000
3FF001FFFFF1FFFFF80000
1FF800FFFFE0FFFFF00000
1FF8007FFF807FFFC00000
0FFC001FFE003FFE000000
0FFE0000000001C0000000
07FF000000000000000000
07FF800000000000000000
03FFC00000000000200000
01FFE00000000000F00000
00FFF80000000001F80000
007FFC0000000007FC0000
003FFF000000003FFC0000
001FFFE0000000FFFE0000
000FFFFC00000FFFFC0000
0007FFFFF001FFFFF00000
0001FFFFFFFFFFFFE00000
0000FFFFFFFFFFFF800000
00003FFFFFFFFFFE000000
00000FFFFFFFFFF8000000
000003FFFFFFFFE0000000
0000007FFFFFFF00000000
00000007FFFFF000000000
000000000FFC0000000000
ENDCHAR
STARTCHAR 0041
ENCODING 65
SWIDTH 618 0
DWIDTH 55 0
BBX 47 63 4 0
BITMAP
00007FFC0000
0003FFFF8000
000FFFFFE000
003FFFFFF800
007FFFFFFC00
00FFFFFFFF00
01FFFFFFFF80
03FFFFFFFF80
07FFFFFFFFC0
07FFFFFFFFE0
0FFFFFFFFFF0
1FFFFFFFFFF0
1FFFFFFFFFF8
3FFFFFFFFFF8
3FFFFFFFFFFC
3FFFF01FFFFC
7FFFE007FFFC
7FFFC003FFFC
7FFF8003FFFE
7FFF0001FFFE
FFFF0001FFFE
FFFF0000FFFE
FFFF0000FFFE
FFFF0000FFFE
FFFF0000FFFE
FFFE3FFFFFFE
FFFE3FFFFFFE
FFFE3FFFFFFE
FFFE3FFFFFFE
FFFE3FFFFFFE
FFFE3FFFFFFE
FFFE3FFFFFFE
FFFE3FFFFFFE
FFFE3FFFFFFE
FFFE3FFFFFFE
FFFE3FFFFFFE
FFFE3FFFFFFE
FFFE3FFFFFFE
FFFE3FFFFFFE
FFFE3FFFFFFE
FFFE0000FFFE
FFFE0000FFFE
FFFE0000FFFE
FFFE0000FFFE
FFFE0000FFFE
FFFE0000FFFE
FFFE0000FFFE
FFFE0000FFFE
FFFE0000FFFE
FFFE0000FFFE
FFFE0000FFFE
FFFE0000FFFE
FFFE0000FFFE
FFFE0000FFFE
FFFE0000FFFE
FFFE0000FFFE
FFFE0000FFFE
FFFE0000FFFE
FFFE0000FFFE
FFFE0000FFFE
FFFE0000FFFE
FFFE0000FFFE
FFFE0000FFFE
ENDCHAR
STARTCHAR 0042
ENCODING 66
SWIDTH 585 0
DWIDTH 52 0
BBX 46 63 4 0
BITMAP
0000FFF80000
0007FFFF0000
001FFFFFC000
007FFFFFE000
00FFFFFFF800
01FFFFFFFC00
03FFFFFFFE00
07FFFFFFFF00
0FFFFFFFFF00
1FFFFFFFFF80
1FFFFFFFFFC0
3FFFFFFFFFC0
3FFFFFFFFFC0
7FFFF1FFFFE0
7FFFC03FFFE0
7FFF801FFFE0
7FFF801FFFE0
FFFF000FFFE0
FFFF000FFFE0
FFFF000FFFE0
FFFF000FFFE0
FFFF000FFFE0
FFFF001FFFE0
FFFF003FFFC0
FFFF00FFFFC0
FFFF3FFFFF80
FFFF3FFFFF00
FFFF3FFFFE00
FFFF3FFFFC00
FFFF3FFFF800
FFFF3FFFFC00
FFFF3FFFFF00
FFFF3FFFFF80
FFFF3FFFFFC0
FFFF3FFFFFE0
FFFF3FFFFFF0
FFFF3FFFFFF0
FFFF03FFFFF8
FFFF000FFFF8
FFFF0007FFFC
FFFF0003FFFC
FFFF0003FFFC
FFFF0001FFFC
FFFF0001FFFC
FFFF0003FFFC
FFFF0003FFFC
FFFF0003FFFC
FFFF0007FFFC
FFFF001FFFFC
FFFF3FFFFFFC
FFFF3FFFFFFC
FFFF3FFFFFF8
FFFF3FFFFFF8
FFFF3FFFFFF0
FFFF3FFFFFF0
FFFF3FFFFFE0
FFFF3FFFFFC0
FFFF3FFFFF80
FFFF3FFFFF00
FFFF3FFFFE00
FFFF3FFFF800
FFFF3FFFE000
FFFF3FFE0000
ENDCHAR
STARTCHAR 0043
ENCODING 67
SWIDTH 506 0
DWIDTH 45 0
BBX 41 62 2 0
BITMAP
00000007FF80
000001FFFF80
00000FFFFF80
00003FFFFF80
0000FFFFFF80
0003FFFFFF80
0007FFFFFF80
001FFFFFFF80
003FFFFFFF80
007FFFFFFF80
00FFFFFFFF80
01FFFFFFFF80
03FFFFFFFF80
03FFFFFFFF80
07FFFFFFC000
0FFFFFF00000
0FFFFF800000
1FFFFE000000
1FFFFC000000
3FFFF8000000
3FFFF0000000
3FFFE0000000
7FFFC0000000
7FFFC0000000
7FFF80000000
7FFF80000000
7FFF80000000
7FFF80000000
7FFF00000000
FFFF00000000
FFFF00000000
FFFF00000000
FFFF00000000
7FFF00000000
7FFF80000000
7FFF80000000
7FFF80000000
7FFF80000000
7FFFC0000000
3FFFC0000000
3FFFE0000000
3FFFF0000000
3FFFF8000000
1FFFFC000000
1FFFFF000000
0FFFFFC00000
0FFFFFF80000
07FFFFFFFF80
03FFFFFFFF80
03FFFFFFFF80
01FFFFFFFF80
00FFFFFFFF80
007FFFFFFF80
003FFFFFFF80
000FFFFFFF80
0007FFFFFF80
0003FFFFFF80
0000FFFFFF80
00003FFFFF80
00000FFFFF80
000000FFFF80
00000003FF80
ENDCHAR
STARTCHAR 0044
ENCODING 68
SWIDTH 641 0
DWIDTH 57 0
BBX 50 62 5 0
BITMAP
FFFFFE00000000
FFFFFFF0000000
FFFFFFFC000000
FFFFFFFF800000
FFFFFFFFE00000
FFFFFFFFF00000
FFFFFFFFF80000
FFFFFFFFFE0000
FFFFFFFFFF0000
FFFFFFFFFF8000
FFFFFFFFFFC000
FFFFFFFFFFE000
FFFFFFFFFFE000
FFFFFFFFFFF000
FFFFFFFFFFF800
FFFE01FFFFF800
FFFE007FFFFC00
FFFE001FFFFE00
FFFE000FFFFE00
FFFE0007FFFE00
FFFE0003FFFF00
FFFE0001FFFF00
FFFE0000FFFF80
FFFE0000FFFF80
FFFE00007FFF80
FFFE00007FFF80
FFFE00007FFF80
FFFE00007FFF80
FFFE00003FFFC0
FFFE00003FFFC0
FFFE00003FFFC0
FFFE00003FFFC0
FFFE00003FFFC0
FFFE00003FFFC0
FFFE00007FFF80
FFFE00007FFF80
FFFE00007FFF80
FFFE00007FFF80
FFFE0000FFFF80
FFFE0001FFFF00
FFFE0001FFFF00
FFFE0003FFFF00
FFFE0007FFFE00
FFFE000FFFFE00
FFFE003FFFFE00
FFFE007FFFFC00
FFFE03FFFFF800
FFFE7FFFFFF800
FFFE7FFFFFF000
FFFE7FFFFFE000
FFFE7FFFFFE000
FFFE7FFFFFC000
FFFE7FFFFF8000
FFFE7FFFFF0000
FFFE7FFFFE0000
FFFE7FFFFC0000
FFFE7FFFF00000
FFFE7FFFE00000
FFFE7FFF800000
FFFE7FFE000000
FFFE7FF0000000
FFFE7E00000000
ENDCHAR
STARTCHAR 0045
ENCODING 69
SWIDTH 517 0
DWIDTH 46 0
BBX 41 62 2 0
BITMAP
00000007FF80
000001FFFF80
00000FFFFF80
00003FFFFF80
0000FFFFFF80
0003FFFFFF80
0007FFFFFF80
001FFFFFFF80
003FFFFFFF80
007FFFFFFF80
00FFFFFFFF80
01FFFFFFFF80
03FFFFFFFF80
03FFFFFFFF80
07FFFFFE0000
0FFFFFE00000
0FFFFF000000
1FFFFE000000
1FFFF8000000
3FFFF0000000
3FFFE0000000
3FFFE0000000
7FFFC0000000
7FFFC0000000
7FFFFFFFFF80
7FFFFFFFFF80
7FFFFFFFFF80
7FFFFFFFFF80
7FFFFFFFFF80
FFFFFFFFFF80
FFFFFFFFFF80
FFFFFFFFFF80
FFFFFFFFFF80
7FFFFFFFFF80
7FFFFFFFFF80
7FFFFFFFFF80
7FFFFFFFFF80
7FFFFFFFFF80
7FFFC0000000
3FFFC0000000
3FFFE0000000
3FFFE0000000
3FFFF0000000
1FFFF8000000
1FFFFE000000
0FFFFF000000
0FFFFFE00000
07FFFFFF8000
03FFFFFFFF80
03FFFFFFFF80
01FFFFFFFF80
00FFFFFFFF80
007FFFFFFF80
003FFFFFFF80
000FFFFFFF80
0007FFFFFF80
0003FFFFFF80
0000FFFFFF80
00003FFFFF80
00000FFFFF80
000000FFFF80
00000003FF80
ENDCHAR
STARTCHAR 0046
ENCODING 70
SWIDTH 450 0
DWIDTH 40 0
BBX 33 62 4 0
BITMAP
0001FFFF80
001FFFFF80
007FFFFF80
01FFFFFF80
03FFFFFF80
07FFFFFF80
0FFFFFFF80
0FFFFFFF80
1FFFFFFF80
3FFFFFFF80
3FFFFFFF80
3FFFFFFF80
7FFFFFFF80
7FFFFFFF80
7FFFF80000
7FFFC00000
FFFF800000
FFFF000000
FFFF000000
FFFF000000
FFFF000000
FFFF000000
FFFF000000
FFFF000000
FFFF000000
FFFFFFFF80
FFFFFFFF80
FFFFFFFF80
FFFFFFFF80
FFFFFFFF80
FFFFFFFF80
FFFFFFFF80
FFFFFFFF80
FFFFFFFF80
FFFFFFFF80
FFFFFFFF80
FFFFFFFF80
FFFFFFFF80
FFFFFFFF80
FFFF000000
FFFF000000
FFFF000000
FFFF000000
FFFF000000
FFFF000000
FFFF000000
FFFF000000
FFFF000000
FFFF000000
FFFF000000
FFFF000000
FFFF000000
FFFF000000
FFFF000000
FFFF000000
FFFF000000
FFFF000000
FFFF000000
FFFF000000
FFFF000000
FFFF000000
FFFF000000
ENDCHAR
STARTCHAR 0047
ENCODING 71
SWIDTH 765 0
DWIDTH 68 0
BBX 63 64 3 -1
BITMAP
0000007FFF000000
000007FFFFE00000
00001FFFFFFC0000
00007FFFFFFF0000
0001FFFFFFFFC000
0007FFFFFFFFE000
000FFFFFFFFFF800
001FFFFFFFFFFC00
003FFFFFFFFFFE00
007FFFFFFFFFFF00
00FFFFFFFFFFFE00
01FFFFFFFFFFFC00
03FFFFFFFFFFF800
07FFFFFFFFFFF000
07FFFFFFFFFFE000
0FFFFFE003FFC000
1FFFFF0000FF8000
1FFFFE00003F8000
3FFFF800001F0000
3FFFF00000060000
7FFFE00000000000
7FFFE00000000000
7FFFC00000000000
7FFF800000000000
FFFF8001FFFFFFFE
FFFF8001FFFFFFFE
FFFF0001FFFFFFFE
FFFF0001FFFFFFFE
FFFF0001FFFFFFFE
FFFF0001FFFFFFFE
FFFF0001FFFFFFFE
FFFE0001FFFFFFFE
FFFE0001FFFFFFFE
FFFF0001FFFFFFFE
FFFF0001FFFFFFFE
FFFF0001FFFFFFFE
FFFF0001FFFFFFFC
FFFF0001FFFFFFFC
FFFF80000003FFFC
FFFF80000007FFFC
7FFFC0000007FFFC
7FFFC000000FFFF8
7FFFE000000FFFF8
3FFFF000001FFFF8
3FFFF800003FFFF0
3FFFFC00007FFFF0
1FFFFF0000FFFFE0
1FFFFFC003FFFFE0
0FFFFFFE7FFFFFC0
07FFFFFFFFFFFFC0
07FFFFFFFFFFFF80
03FFFFFFFFFFFF00
01FFFFFFFFFFFF00
00FFFFFFFFFFFE00
007FFFFFFFFFFC00
003FFFFFFFFFF800
001FFFFFFFFFF000
000FFFFFFFFFE000
0007FFFFFFFFC000
0001FFFFFFFF0000
00007FFFFFFC0000
00001FFFFFF00000
000007FFFFC00000
0000007FFC000000
ENDCHAR
STARTCHAR 0048
ENCODING 72
SWIDTH 630 0
DWIDTH 56 0
BBX 47 62 5 0
BITMAP
FFFE0000FFFE
FFFE0000FFFE
FFFE0000FFFE
FFFE0000FFFE
FFFE0000FFFE
FFFE0000FFFE
FFFE0000FFFE
FFFE0000FFFE
FFFE0000FFFE
FFFE0000FFFE
FFFE0000FFFE
FFFE0000FFFE
FFFE0000FFFE
FFFE0000FFFE
FFFE0000FFFE
FFFE0000FFFE
FFFE0000FFFE
FFFE0000FFFE
FFFE0000FFFE
FFFE0000FFFE
FFFE0000FFFE
FFFE0000FFFE
FFFFFFFFFFFE
FFFFFFFFFFFE
FFFFFFFFFFFE
FFFFFFFFFFFE
FFFFFFFFFFFE
FFFFFFFFFFFE
FFFFFFFFFFFE
FFFFFFFFFFFE
FFFFFFFFFFFE
FFFFFFFFFFFE
FFFFFFFFFFFE
FFFFFFFFFFFE
FFFFFFFFFFFE
FFFFFFFFFFFE
FFFFFFFFFFFE
FFFE0000FFFE
FFFE0000FFFE
FFFE0000FFFE
FFFE0000FFFE
FFFE0000FFFE
FFFE0000FFFE
FFFE0000FFFE
FFFE0000FFFE
FFFE0000FFFE
FFFE0000FFFE
FFFE0000FFFE
FFFE0000FFFE
FFFE0000FFFE
FFFE0000FFFE
FFFE0000FFFE
FFFE0000FFFE
FFFE0000FFFE
FFFE0000FFFE
FFFE0000FFFE
FFFE0000FFFE
FFFE0000FFFE
FFFE0000FFFE
FFFE0000FFFE
FFFE0000FFFE
FFFE0000FFFE
ENDCHAR
STARTCHAR 0049
ENCODING 73
SWIDTH 281 0
DWIDTH 25 0
BBX 15 62 5 0
BITMAP
FFFE
FFFE
FFFE
FFFE
FFFE
FFFE
FFFE
FFFE
FFFE
FFFE
FFFE
FFFE
FFFE
FFFE
FFFE
FFFE
FFFE
FFFE
FFFE
FFFE
FFFE
FFFE
FFFE
FFFE
FFFE
FFFE
FFFE
FFFE
FFFE
FFFE
FFFE
FFFE
FFFE
FFFE
FFFE
FFFE
FFFE
FFFE
FFFE
FFFE
FFFE
FFFE
FFFE
FFFE
FFFE
FFFE
FFFE
FFFE
FFFE
FFFE
FFFE
FFFE
FFFE
FFFE
FFFE
FFFE
FFFE
FFFE
FFFE
FFFE
FFFE
FFFE
ENDCHAR
STARTCHAR 004A
ENCODING 74
SWIDTH 416 0
DWIDTH 37 0
BBX 32 62 1 0
BITMAP
00007FFF
00007FFF
00007FFF
00007FFF
00007FFF
00007FFF
00007FFF
00007FFF
00007FFF
00007FFF
00007FFF
00007FFF
00007FFF
00007FFF
00007FFF
00007FFF
00007FFF
00007FFF
00007FFF
00007FFF
00007FFF
00007FFF
00007FFF
00007FFF
00007FFF
00007FFF
00007FFF
00007FFF
00007FFF
00007FFF
00007FFF
00007FFF
00007FFF
00007FFF
00007FFF
00007FFF
00007FFF
00007FFF
00007FFF
00007FFF
00007FFF
00007FFF
00007FFF
0000FFFF
0000FFFF
0000FFFF
0003FFFF
FFFFFFFF
FFFFFFFE
FFFFFFFE
FFFFFFFE
FFFFFFFC
FFFFFFFC
FFFFFFF8
FFFFFFF8
FFFFFFF0
FFFFFFE0
FFFFFFC0
FFFFFF80
FFFFFE00
FFFFF800
FFFF8000
ENDCHAR
STARTCHAR 004B
ENCODING 75
SWIDTH 596 0
DWIDTH 53 0
BBX 48 62 5 0
BITMAP
FFFE0001FFFF
FFFE0001FFFF
FFFE0003FFFE
FFFE0003FFFE
FFFE0007FFFC
FFFE0007FFFC
FFFE000FFFF8
FFFE000FFFF8
FFFE000FFFF0
FFFE001FFFF0
FFFE001FFFF0
FFFE003FFFE0
FFFE003FFFE0
FFFE007FFFC0
FFFE007FFFC0
FFFE00FFFF80
FFFE00FFFF80
FFFE01FFFF00
FFFE03FFFF00
FFFE07FFFE00
FFFE0FFFFE00
FFFFFFFFFC00
FFFFFFFFF800
FFFFFFFFF000
FFFFFFFFE000
FFFFFFFFC000
FFFFFFFFF000
FFFFFFFFFC00
FFFFFFFFFF00
FFFFFFFFFF80
FFFFFFFFFFC0
FFFFFFFFFFE0
FFFFFFFFFFE0
FFFFFFFFFFE0
FFFFFFFFFFF0
FFFFFFFFFFF0
FFFE07FFFFF0
FFFE003FFFF0
FFFE000FFFF0
FFFE000FFFF8
FFFE0007FFF8
FFFE0007FFF8
FFFE0007FFF8
FFFE0007FFF8
FFFE0007FFF8
FFFE0007FFF8
FFFE0007FFF8
FFFE0007FFF8
FFFE0007FFF8
FFFE0007FFF8
FFFE0007FFF8
FFFE0007FFF8
FFFE0007FFF8
FFFE0007FFF8
FFFE0007FFF8
FFFE0007FFF8
FFFE0007FFF8
FFFE0007FFF8
FFFE0007FFF8
FFFE0007FFF8
FFFE0007FFF8
FFFE0007FFF8
ENDCHAR
STARTCHAR 004C
ENCODING 76
SWIDTH 427 0
DWIDTH 38 0
BBX 34 62 4 0
BITMAP
FFFF000000
FFFF000000
FFFF000000
FFFF000000
FFFF000000
FFFF000000
FFFF000000
FFFF000000
FFFF000000
FFFF000000
FFFF000000
FFFF000000
FFFF000000
FFFF000000
FFFF000000
FFFF000000
FFFF000000
FFFF000000
FFFF000000
FFFF000000
FFFF000000
FFFF000000
FFFF000000
FFFF000000
FFFF000000
FFFF000000
FFFF000000
FFFF000000
FFFF000000
FFFF000000
FFFF000000
FFFF000000
FFFF000000
FFFF000000
FFFF000000
FFFF000000
FFFF000000
FFFF000000
FFFF000000
FFFF000000
FFFF000000
FFFF000000
FFFF000000
FFFF000000
FFFF000000
FFFF800000
7FFFC00000
7FFFFFFFC0
7FFFFFFFC0
7FFFFFFFC0
3FFFFFFFC0
3FFFFFFFC0
3FFFFFFFC0
1FFFFFFFC0
0FFFFFFFC0
0FFFFFFFC0
07FFFFFFC0
03FFFFFFC0
00FFFFFFC0
007FFFFFC0
000FFFFFC0
0001FFFFC0
ENDCHAR
STARTCHAR 004D
ENCODING 77
SWIDTH 832 0
DWIDTH 74 0
BBX 72 64 1 -1
BITMAP
0001FC0000003FC000
000FFF000000FFF000
001FFFC00001FFF800
003FFFE00003FFFC00
003FFFE00007FFFE00
007FFFF0000FFFFE00
00FFFFF8000FFFFF00
00FFFFF8001FFFFF00
00FFFFF8001FFFFF80
01FFFFFC001FFFFF80
01FFFFFC003FFFFF80
01FFFFFC003FFFFF80
01FFFFFE003FFFFFC0
01FFFFFE003FFFFFC0
01FFEFFE007FFFFFC0
01FFEFFE007FFFFFC0
03FFEFFF007FF7FFC0
03FFEFFF007FF7FFC0
03FFEFFF00FFF3FFC0
03FFE7FF00FFF3FFC0
03FFE7FF80FFF3FFE0
03FFE7FF80FFE3FFE0
03FFE7FF81FFE3FFE0
07FFE7FF81FFE3FFE0
07FFE3FF81FFE3FFE0
07FFC3FFC1FFE3FFE0
07FFC3FFC3FFC3FFE0
07FFC3FFC3FFC3FFF0
07FFC1FFC3FFC3FFF0
07FFC1FFE3FFC1FFF0
07FFC1FFE3FFC1FFF0
0FFFC1FFE7FF81FFF0
0FFFC1FFE7FF81FFF0
0FFFC0FFE7FF81FFF0
0FFFC0FFE7FF81FFF8
0FFFC0FFF7FF01FFF8
0FFF80FFF7FF01FFF8
0FFF80FFF7FF01FFF8
1FFF807FFFFF01FFF8
1FFF807FFFFF01FFF8
1FFF807FFFFE01FFF8
1FFF807FFFFE00FFF8
1FFF803FFFFE00FFFC
1FFF803FFFFE00FFFC
1FFF803FFFFE00FFFC
3FFF803FFFFC00FFFC
3FFF803FFFFC00FFFC
3FFF801FFFFC00FFFC
3FFF001FFFFC00FFFC
3FFF001FFFF800FFFE
3FFF001FFFF800FFFE
3FFF001FFFF800FFFE
3FFF000FFFF8007FFE
7FFF000FFFF8007FFE
7FFF000FFFF0007FFE
7FFF000FFFF0007FFE
7FFF0007FFF0007FFE
7FFF0007FFF0007FFF
7FFF0007FFE0007FFF
7FFE0003FFE0007FFF
FFFE0001FFC0007FFF
FFFE0001FF80007FFF
FFFE00007F00007FFF
000000001000000000
ENDCHAR
STARTCHAR 004E
ENCODING 78
SWIDTH 652 0
DWIDTH 58 0
BBX 49 64 5 -1
BITMAP
07F80000000000
1FFE00003FFF80
3FFF00003FFF80
7FFF80003FFF80
7FFFC0003FFF80
FFFFC0003FFF80
FFFFE0003FFF80
FFFFF0003FFF80
FFFFF0003FFF80
FFFFF8003FFF80
FFFFF8003FFF80
FFFFFC003FFF80
FFFFFE003FFF80
FFFFFE003FFF80
FFFFFF003FFF80
FFFFFF003FFF80
FFFFFF803FFF80
FFFFFF803FFF80
FFFFFFC03FFF80
FFFFFFC03FFF80
FFFFFFE03FFF80
FFFFFFF03FFF80
FFFFFFF03FFF80
FFFBFFF83FFF80
FFFBFFF83FFF80
FFF9FFFC3FFF80
FFFDFFFC3FFF80
FFFCFFFE3FFF80
FFFCFFFE1FFF80
FFFC7FFF1FFF80
FFFC7FFF1FFF80
FFFC3FFF9FFF80
FFFC3FFF9FFF80
FFFC1FFFDFFF80
FFFC1FFFDFFF80
FFFC0FFFDFFF80
FFFC07FFFFFF80
FFFC07FFFFFF80
FFFC03FFFFFF80
FFFC03FFFFFF80
FFFC01FFFFFF80
FFFC01FFFFFF80
FFFC00FFFFFF80
FFFC00FFFFFF80
FFFC007FFFFF80
FFFC003FFFFF80
FFFC003FFFFF80
FFFC001FFFFF80
FFFC001FFFFF80
FFFC000FFFFF80
FFFC000FFFFF80
FFFC0007FFFF80
FFFC0007FFFF80
FFFC0003FFFF80
FFFC0001FFFF80
FFFC0001FFFF80
FFFC0000FFFF80
FFFC0000FFFF80
FFFC00007FFF80
FFFC00003FFF00
FFFC00003FFF00
FFFC00001FFE00
FFFC00000FFC00
0000000003F000
ENDCHAR
STARTCHAR 004F
ENCODING 79
SWIDTH 765 0
DWIDTH 68 0
BBX 64 64 2 -1
BITMAP
0000003FFE000000
000003FFFFE00000
00001FFFFFFC0000
00007FFFFFFF0000
0000FFFFFFFF8000
0003FFFFFFFFE000
0007FFFFFFFFF000
000FFFFFFFFFF800
001FFFFFFFFFFC00
007FFFFFFFFFFE00
007FFFFFFFFFFF00
00FFFFFFFFFFFF80
01FFFFFFFFFFFFC0
03FFFFFFFFFFFFE0
07FFFFFFFFFFFFE0
07FFFFF80FFFFFF0
0FFFFFC001FFFFF0
0FFFFF00007FFFF8
1FFFFC00003FFFF8
1FFFF800001FFFFC
3FFFF000000FFFFC
3FFFF0000007FFFE
3FFFE0000003FFFE
7FFFC0000003FFFE
7FFFC0000001FFFE
7FFF80000001FFFF
7FFF80000000FFFF
7FFF80000000FFFF
7FFF80000000FFFF
7FFF00000000FFFF
FFFF00000000FFFF
FFFF00000000FFFF
FFFF00000000FFFF
FFFF00000000FFFF
7FFF00000000FFFF
7FFF80000000FFFF
7FFF80000000FFFF
7FFF80000001FFFF
7FFFC0000001FFFF
7FFFC0000001FFFE
3FFFE0000003FFFE
3FFFE0000007FFFE
3FFFF0000007FFFE
1FFFF800000FFFFC
1FFFFC00001FFFFC
1FFFFE00003FFFF8
0FFFFF8000FFFFF8
0FFFFFE003FFFFF0
07FFFFFE7FFFFFF0
03FFFFFFFFFFFFE0
03FFFFFFFFFFFFC0
01FFFFFFFFFFFFC0
00FFFFFFFFFFFF80
007FFFFFFFFFFF00
003FFFFFFFFFFE00
001FFFFFFFFFFC00
000FFFFFFFFFF800
0007FFFFFFFFF000
0003FFFFFFFFC000
0000FFFFFFFF8000
00003FFFFFFE0000
00000FFFFFF80000
000003FFFFE00000
0000003FFE000000
ENDCHAR
STARTCHAR 0050
ENCODING 80
SWIDTH 573 0
DWIDTH 51 0
BBX 45 63 4 0
BITMAP
0000FFF80000
0007FFFF0000
001FFFFFC000
007FFFFFF000
00FFFFFFF800
01FFFFFFFC00
03FFFFFFFE00
07FFFFFFFF00
0FFFFFFFFF80
0FFFFFFFFFC0
1FFFFFFFFFC0
3FFFFFFFFFE0
3FFFFFFFFFE0
3FFFFFFFFFF0
7FFFFFFFFFF0
7FFFE03FFFF0
7FFF801FFFF0
7FFF800FFFF8
FFFF0007FFF8
FFFF0007FFF8
FFFF0007FFF8
FFFF0007FFF8
FFFF0007FFF8
FFFF0007FFF8
FFFF000FFFF8
FFFF000FFFF8
FFFF001FFFF0
FFFF007FFFF0
FFFF3FFFFFF0
FFFF3FFFFFF0
FFFF3FFFFFE0
FFFF3FFFFFE0
FFFF3FFFFFC0
FFFF3FFFFF80
FFFF3FFFFF80
FFFF3FFFFF00
FFFF3FFFFE00
FFFF3FFFFC00
FFFF3FFFF000
FFFF3FFFE000
FFFF3FFF8000
FFFF3FFC0000
FFFF3FC00000
FFFF00000000
FFFF00000000
FFFF00000000
FFFF00000000
FFFF00000000
FFFF00000000
FFFF00000000
FFFF00000000
FFFF00000000
FFFF00000000
FFFF00000000
FFFF00000000
FFFF00000000
FFFF00000000
FFFF00000000
FFFF00000000
FFFF00000000
FFFF00000000
FFFF00000000
FFFF00000000
ENDCHAR
STARTCHAR 0051
ENCODING 81
SWIDTH 765 0
DWIDTH 68 0
BBX 64 72 2 -9
BITMAP
0000003FFE000000
000003FFFFE00000
00001FFFFFF80000
00007FFFFFFE0000
0000FFFFFFFF8000
0003FFFFFFFFE000
0007FFFFFFFFF000
000FFFFFFFFFF800
001FFFFFFFFFFC00
007FFFFFFFFFFE00
007FFFFFFFFFFF00
00FFFFFFFFFFFF80
01FFFFFFFFFFFFC0
03FFFFFFFFFFFFE0
07FFFFFFFFFFFFE0
07FFFFF80FFFFFF0
0FFFFFC001FFFFF0
0FFFFF00007FFFF8
1FFFFC00003FFFF8
1FFFF800001FFFFC
3FFFF000000FFFFC
3FFFF0000007FFFE
3FFFE0000003FFFE
7FFFC0000003FFFE
7FFFC0000001FFFF
7FFF80000001FFFF
7FFF80000000FFFF
7FFF80000000FFFF
7FFF80000000FFFF
7FFF00000000FFFF
FFFF00000000FFFF
FFFF00000000FFFF
FFFF00000000FFFF
FFFF00000000FFFF
7FFF80000000FFFF
7FFF80000000FFFF
7FFF80000000FFFF
7FFF80000000FFFF
7FFFC0000001FFFF
7FFFC03FFE01FFFF
7FFFE03FFE01FFFE
3FFFE03FFE03FFFE
3FFFF03FFE07FFFE
3FFFF83FFE0FFFFE
1FFFFC3FFE1FFFFC
1FFFFC3FFE7FFFFC
0FFFFC3FFFFFFFF8
0FFFFC3FFFFFFFF8
07FFFC3FFFFFFFF0
07FFFC3FFFFFFFF0
03FFFC3FFFFFFFE0
01FFFC3FFFFFFFC0
00FFFC3FFFFFFFC0
00FFFC3FFFFFFF80
007FFC3FFFFFFF00
003FFC3FFFFFFE00
000FFC3FFFFFFC00
0007FC3FFFFFF000
0003FC3FFFFFE000
0000FC3FFFFF8000
00003C3FFFFE0000
00000C3FFFF80000
0000003FFFC00000
0000003FFE000000
0000003FFE000000
0000003FFE000000
0000003FFE000000
0000003FFE000000
0000003FFE000000
0000003FFE000000
0000003FFE000000
0000003FFE000000
ENDCHAR
STARTCHAR 0052
ENCODING 82
SWIDTH 573 0
DWIDTH 51 0
BBX 45 63 4 0
BITMAP
0000FFF80000
0007FFFF0000
001FFFFFC000
007FFFFFF000
00FFFFFFF800
01FFFFFFFC00
03FFFFFFFE00
07FFFFFFFF00
0FFFFFFFFF80
1FFFFFFFFFC0
1FFFFFFFFFC0
3FFFFFFFFFE0
3FFFFFFFFFE0
7FFFFFFFFFF0
7FFFE07FFFF0
7FFFC03FFFF0
7FFF801FFFF0
FFFF000FFFF0
FFFF000FFFF0
FFFF000FFFF0
FFFF000FFFF0
FFFF000FFFF0
FFFF001FFFE0
FFFF001FFFE0
FFFF007FFFC0
FFFF3FFFFFC0
FFFF3FFFFF80
FFFF3FFFFF00
FFFF3FFFFE00
FFFF3FFFFC00
FFFF3FFFF000
FFFF3FFFF000
FFFF3FFFFE00
FFFF3FFFFF80
FFFF3FFFFFC0
FFFF3FFFFFE0
FFFF3FFFFFF0
FFFF3FFFFFF0
FFFF3FFFFFF0
FFFF1FFFFFF8
FFFF003FFFF8
FFFF000FFFF8
FFFF000FFFF8
FFFF0007FFF8
FFFF0007FFF8
FFFF0007FFF8
FFFF0003FFF8
FFFF0003FFF8
FFFF0003FFF8
FFFF0003FFF8
FFFF0003FFF8
FFFF0003FFF8
FFFF0003FFF8
FFFF0003FFF8
FFFF0003FFF8
FFFF0003FFF8
FFFF0003FFF8
FFFF0003FFF8
FFFF0003FFF8
FFFF0003FFF8
FFFF0003FFF8
FFFF0003FFF8
FFFF0003FFF8
ENDCHAR
STARTCHAR 0053
ENCODING 83
SWIDTH 528 0
DWIDTH 47 0
BBX 42 62 3 0
BITMAP
0007FFFFFC00
003FFFFFFC00
00FFFFFFFC00
03FFFFFFFC00
07FFFFFFFC00
0FFFFFFFFC00
1FFFFFFFFC00
1FFFFFFFFC00
3FFFFFFFFC00
7FFFFFFFFC00
7FFFFFFFFC00
7FFFFFFFFC00
FFFFFFFFFC00
FFFFFFFFFC00
FFFFC0000000
FFFF00000000
FFFF00000000
FFFF00000000
FFFF80000000
FFFF80000000
FFFFE0000000
7FFFF0000000
7FFFFC000000
3FFFFE000000
3FFFFF800000
1FFFFFE00000
1FFFFFF00000
0FFFFFFC0000
07FFFFFF0000
03FFFFFF8000
01FFFFFFE000
007FFFFFF000
003FFFFFF800
000FFFFFFC00
0003FFFFFE00
0001FFFFFE00
00007FFFFF00
00001FFFFF00
00000FFFFF80
000003FFFF80
000001FFFF80
000000FFFFC0
0000007FFFC0
0000007FFFC0
0000007FFFC0
0000007FFFC0
000000FFFFC0
FFFFFFFFFFC0
FFFFFFFFFFC0
FFFFFFFFFF80
FFFFFFFFFF80
FFFFFFFFFF80
FFFFFFFFFF00
FFFFFFFFFF00
FFFFFFFFFE00
FFFFFFFFFC00
FFFFFFFFF800
FFFFFFFFF000
FFFFFFFFE000
FFFFFFFF8000
FFFFFFFE0000
FFFFFFE00000
ENDCHAR
STARTCHAR 0054
ENCODING 84
SWIDTH 495 0
DWIDTH 44 0
BBX 42 62 1 0
BITMAP
FFFFFFFFFFC0
FFFFFFFFFFC0
FFFFFFFFFFC0
FFFFFFFFFFC0
FFFFFFFFFFC0
FFFFFFFFFFC0
FFFFFFFFFFC0
FFFFFFFFFFC0
FFFFFFFFFFC0
FFFFFFFFFFC0
FFFFFFFFFFC0
FFFFFFFFFFC0
FFFFFFFFFFC0
FFFFFFFFFFC0
0007FFF80000
0007FFF80000
0007FFF80000
0007FFF80000
0007FFF80000
0007FFF80000
0007FFF80000
0007FFF80000
0007FFF80000
0007FFF80000
0007FFF80000
0007FFF80000
0007FFF80000
0007FFF80000
0007FFF80000
0007FFF80000
0007FFF80000
0007FFF80000
0007FFF80000
0007FFF80000
0007FFF80000
0007FFF80000
0007FFF80000
0007FFF80000
0007FFF80000
0007FFF80000
0007FFF80000
0007FFF80000
0007FFF80000
0007FFF80000
0007FFF80000
0007FFF80000
0007FFF80000
0007FFF80000
0007FFF80000
0007FFF80000
0007FFF80000
0007FFF80000
0007FFF80000
0007FFF80000
0007FFF80000
0007FFF80000
0007FFF80000
0007FFF80000
0007FFF80000
0007FFF80000
0007FFF80000
0007FFF80000
ENDCHAR
STARTCHAR 0055
ENCODING 85
SWIDTH 618 0
DWIDTH 55 0
BBX 47 63 4 -1
BITMAP
FFFE0000FFFE
FFFE0000FFFE
FFFE0000FFFE
FFFE0000FFFE
FFFE0000FFFE
FFFE0000FFFE
FFFE0000FFFE
FFFE0000FFFE
FFFE0000FFFE
FFFE0000FFFE
FFFE0000FFFE
FFFE0000FFFE
FFFE0000FFFE
FFFE0000FFFE
FFFE0000FFFE
FFFE0000FFFE
FFFE0000FFFE
FFFE0000FFFE
FFFE0000FFFE
FFFE0000FFFE
FFFE0000FFFE
FFFE0000FFFE
FFFE0000FFFE
FFFE0000FFFE
FFFE0000FFFE
FFFE0000FFFE
FFFE0000FFFE
FFFE0000FFFE
FFFE0000FFFE
FFFE0000FFFE
FFFE0000FFFE
FFFE0000FFFE
FFFE0000FFFE
FFFE0000FFFE
FFFE0000FFFE
FFFE0000FFFE
FFFE0000FFFE
FFFE0000FFFE
FFFF0000FFFE
FFFF0000FFFE
FFFF0000FFFE
FFFF0000FFFE
FFFF0001FFFE
7FFF8001FFFE
7FFF8003FFFE
7FFFC003FFFC
7FFFE007FFFC
3FFFF83FFFFC
3FFFFFFFFFF8
3FFFFFFFFFF8
1FFFFFFFFFF0
1FFFFFFFFFF0
0FFFFFFFFFE0
07FFFFFFFFE0
07FFFFFFFFC0
03FFFFFFFF80
01FFFFFFFF00
00FFFFFFFE00
007FFFFFFC00
001FFFFFF800
000FFFFFE000
0003FFFF8000
00003FF80000
ENDCHAR
STARTCHAR 0056
ENCODING 86
SWIDTH 551 0
DWIDTH 49 0
BBX 51 63 -1 -1
BITMAP
FFFE00000FFFE0
FFFE00000FFFE0
FFFF00001FFFE0
FFFF00001FFFE0
7FFF00001FFFC0
7FFF00001FFFC0
7FFF80003FFFC0
3FFF80003FFFC0
3FFF80003FFF80
3FFF80003FFF80
3FFFC0007FFF80
1FFFC0007FFF80
1FFFC0007FFF00
1FFFC0007FFF00
1FFFE000FFFF00
0FFFE000FFFF00
0FFFE000FFFE00
0FFFE000FFFE00
0FFFF001FFFE00
07FFF001FFFE00
07FFF001FFFC00
07FFF001FFFC00
07FFF803FFFC00
03FFF803FFF800
03FFF803FFF800
03FFF803FFF800
03FFFC07FFF800
01FFFC07FFF000
01FFFC07FFF000
01FFFC07FFF000
01FFFE0FFFF000
00FFFE0FFFE000
00FFFE0FFFE000
00FFFE0FFFE000
00FFFF1FFFE000
007FFF1FFFC000
007FFF1FFFC000
007FFF1FFFC000
003FFF9FFFC000
003FFFBFFF8000
003FFFBFFF8000
003FFFBFFF8000
001FFFBFFF8000
001FFFFFFF0000
001FFFFFFF0000
001FFFFFFF0000
000FFFFFFF0000
000FFFFFFE0000
000FFFFFFE0000
000FFFFFFE0000
0007FFFFFC0000
0007FFFFFC0000
0007FFFFFC0000
0003FFFFF80000
0003FFFFF80000
0003FFFFF80000
0001FFFFF00000
0000FFFFF00000
0000FFFFE00000
00007FFFC00000
00003FFF800000
00001FFF000000
000003F8000000
ENDCHAR
STARTCHAR 0057
ENCODING 87
SWIDTH 911 0
DWIDTH 81 0
BBX 73 63 4 -1
BITMAP
FFFE0007FFF0003FFF80
FFFE0007FFF0003FFF80
FFFE0007FFF0003FFF80
FFFE0007FFF0003FFF80
FFFE0007FFF0003FFF80
FFFE0007FFF0003FFF80
FFFE0007FFF0003FFF80
FFFE0007FFF0003FFF80
FFFE0007FFF0003FFF80
FFFE0007FFF0003FFF80
FFFE0007FFF0003FFF80
FFFE0007FFF0003FFF80
FFFE0007FFF0003FFF80
FFFE0007FFF0003FFF80
FFFE0007FFF0003FFF80
FFFE0007FFF0003FFF80
FFFE0007FFF0003FFF80
FFFE0007FFF0003FFF80
FFFE0007FFF0003FFF80
FFFE0007FFF0003FFF80
FFFE0007FFF0003FFF80
FFFE0007FFF0003FFF80
FFFE0007FFF0003FFF80
FFFE0007FFF0003FFF80
FFFE0007FFF0003FFF80
FFFE0007FFF0003FFF80
FFFE0007FFF0003FFF80
FFFE0007FFF0003FFF80
FFFE0007FFF0003FFF80
FFFE0007FFF0003FFF80
FFFE0007FFF0003FFF80
FFFE0007FFF0003FFF80
FFFE0007FFF0003FFF80
FFFE0007FFF0003FFF80
FFFE0007FFF0003FFF80
FFFE0007FFF0003FFF80
FFFE0007FFF0003FFF80
FFFE0007FFF0003FFF80
FFFE0007FFF0003FFF80
FFFE0007FFF0003FFF80
FFFE0007FFF0003FFF80
FFFE0007FFF0003FFF80
FFFF0007FFF0003FFF80
7FFF0007FFF8007FFF80
7FFF000FFFF8007FFF80
7FFF800FFFFC00FFFF00
7FFFC01FFFFC00FFFF00
7FFFE07FFFFF03FFFF00
3FFFFFFFFFFFFFFFFF00
3FFFFFFFFFFFFFFFFE00
3FFFFFFFFFFFFFFFFE00
1FFFFFFFFFFFFFFFFC00
1FFFFFFFFFFFFFFFFC00
0FFFFFFFFFFFFFFFF800
07FFFFFFFFFFFFFFF800
07FFFFFFFFFFFFFFF000
03FFFFFFFFFFFFFFE000
01FFFFFFF3FFFFFFC000
00FFFFFFC1FFFFFF8000
003FFFFF80FFFFFF0000
001FFFFF003FFFFC0000
0007FFFC000FFFF00000
0000FFE00003FF800000
ENDCHAR
STARTCHAR 0058
ENCODING 88
SWIDTH 630 0
DWIDTH 56 0
BBX 52 62 2 0
BITMAP
FC0000000001F0
FFC00000003FF0
FFF8000001FFF0
FFFF000007FFF0
FFFF80001FFFF0
FFFFE0007FFFF0
FFFFF800FFFFF0
FFFFFC01FFFFF0
FFFFFE07FFFFF0
FFFFFF0FFFFFF0
FFFFFF9FFFFFF0
FFFFFFDFFFFFF0
FFFFFFFFFFFFF0
FFFFFFFFFFFFF0
7FFFFFFFFFFFF0
01FFFFFFFFFC00
007FFFFFFFE000
001FFFFFFF8000
0007FFFFFF0000
0003FFFFFE0000
0001FFFFFC0000
0000FFFFF80000
0000FFFFF00000
00007FFFF00000
00007FFFE00000
00003FFFE00000
00003FFFE00000
00003FFFC00000
00003FFFC00000
00003FFFC00000
00003FFFC00000
00003FFFC00000
00003FFFC00000
00003FFFC00000
00003FFFC00000
00003FFFE00000
00007FFFE00000
00007FFFE00000
00007FFFF00000
0000FFFFF00000
0001FFFFF80000
0001FFFFFC0000
0003FFFFFE0000
000FFFFFFF0000
001FFFFFFF8000
007FFFFFFFE000
03FFFFFFFFFC00
FFFFFFFFFFFFF0
FFFFFFFFFFFFF0
FFFFFFFFFFFFF0
FFFFFFDFFFFFF0
FFFFFF9FFFFFF0
FFFFFF0FFFFFF0
FFFFFE07FFFFF0
FFFFFC01FFFFF0
FFFFF000FFFFF0
FFFFE0007FFFF0
FFFF80001FFFF0
FFFE000007FFF0
FFF8000000FFF0
FF800000001FF0
F80000000000F0
ENDCHAR
STARTCHAR 0059
ENCODING 89
SWIDTH 562 0
DWIDTH 50 0
BBX 43 62 4 0
BITMAP
FFFE000FFFE0
FFFE000FFFE0
FFFE000FFFE0
FFFE000FFFE0
FFFE000FFFE0
FFFE000FFFE0
FFFE000FFFE0
FFFE000FFFE0
FFFE000FFFE0
FFFE000FFFE0
FFFE000FFFE0
FFFE000FFFE0
FFFE000FFFE0
FFFE000FFFE0
FFFE000FFFE0
FFFE000FFFE0
FFFE000FFFE0
FFFE000FFFE0
FFFE000FFFE0
FFFE000FFFE0
FFFE001FFFE0
FFFE001FFFE0
FFFE001FFFE0
FFFF001FFFC0
FFFF003FFFC0
7FFF803FFFC0
7FFFC07FFFC0
7FFFFFFFFF80
7FFFFFFFFF80
3FFFFFFFFF80
3FFFFFFFFF00
1FFFFFFFFF00
0FFFFFFFFE00
0FFFFFFFFC00
07FFFFFFFC00
03FFFFFFF800
01FFFFFFF000
00FFFFFFC000
003FFFFF8000
000FFFFE0000
0003FFF80000
0003FFF80000
0003FFF80000
0003FFF80000
0003FFF80000
0003FFF80000
0003FFF80000
0003FFF80000
0003FFF80000
0003FFF80000
0003FFF80000
0003FFF80000
0003FFF80000
0003FFF80000
0003FFF80000
0003FFF80000
0003FFF80000
0003FFF80000
0003FFF80000
0003FFF80000
0003FFF80000
0003FFF80000
ENDCHAR
STARTCHAR 005A
ENCODING 90
SWIDTH 528 0
DWIDTH 47 0
BBX 45 62 1 0
BITMAP
1FFFFFFFFE00
1FFFFFFFFF80
1FFFFFFFFFE0
1FFFFFFFFFE0
1FFFFFFFFFF0
1FFFFFFFFFF8
1FFFFFFFFFF8
1FFFFFFFFFF8
1FFFFFFFFFF8
1FFFFFFFFFF8
1FFFFFFFFFF8
1FFFFFFFFFF8
1FFFFFFFFFF8
1FFFFFFFFFF0
0000007FFFF0
0000007FFFE0
000000FFFFC0
000001FFFFC0
000003FFFF80
000003FFFF00
000007FFFF00
00000FFFFE00
00000FFFFC00
00001FFFF800
00003FFFF800
00007FFFF000
00007FFFE000
0000FFFFC000
0001FFFFC000
0003FFFF8000
0003FFFF0000
0007FFFE0000
000FFFFE0000
001FFFFC0000
001FFFF80000
003FFFF80000
007FFFF00000
007FFFE00000
00FFFFC00000
01FFFFC00000
03FFFF800000
03FFFF000000
07FFFE000000
0FFFFE000000
1FFFFC000000
1FFFF8000000
3FFFF8000000
7FFFFFFFFFF8
7FFFFFFFFFF8
FFFFFFFFFFF8
FFFFFFFFFFF8
FFFFFFFFFFF8
FFFFFFFFFFF8
FFFFFFFFFFF8
FFFFFFFFFFF8
FFFFFFFFFFF8
7FFFFFFFFFF8
7FFFFFFFFFF8
3FFFFFFFFFF8
1FFFFFFFFFF8
0FFFFFFFFFF8
03FFFFFFFFF8
ENDCHAR
STARTCHAR 005B
ENCODING 91
SWIDTH 337 0
DWIDTH 30 0
BBX 18 82 8 -20
BITMAP
FFFFC0
FFFFC0
FFFFC0
FFFFC0
FFFFC0
FFFFC0
FFE000
FFE000
FFE000
FFE000
FFE000
FFE000
FFE000
FFE000
FFE000
FFE000
FFE000
FFE000
FFE000
FFE000
FFE000
FFE000
FFE000
FFE000
FFE000
FFE000
FFE000
FFE000
FFE000
FFE000
FFE000
FFE000
FFE000
FFE000
FFE000
FFE000
FFE000
FFE000
FFE000
FFE000
FFE000
FFE000
FFE000
FFE000
FFE000
FFE000
FFE000
FFE000
FFE000
FFE000
FFE000
FFE000
FFE000
FFE000
FFE000
FFE000
FFE000
FFE000
FFE000
FFE000
FFE000
FFE000
FFE000
FFE000
FFE000
FFE000
FFE000
FFE000
FFE000
FFE000
FFE000
FFE000
FFE000
FFE000
FFE000
FFE000
FFFFC0
FFFFC0
FFFFC0
FFFFC0
FFFFC0
FFFFC0
ENDCHAR
STARTCHAR 005C
ENCODING 92
SWIDTH 270 0
DWIDTH 24 0
BBX 30 71 -3 -8
BITMAP
FF000000
FF000000
7F800000
7F800000
7F800000
3FC00000
3FC00000
3FC00000
1FE00000
1FE00000
1FE00000
0FF00000
0FF00000
0FF00000
07F00000
07F80000
07F80000
07F80000
03FC0000
03FC0000
03FC0000
01FE0000
01FE0000
01FE0000
00FF0000
00FF0000
00FF0000
007F8000
007F8000
007F8000
003FC000
003FC000
003FC000
001FE000
001FE000
001FE000
001FE000
000FF000
000FF000
000FF000
0007F800
0007F800
0007F800
0003FC00
0003FC00
0003FC00
0001FE00
0001FE00
0001FE00
0000FF00
0000FF00
0000FF00
00007F80
00007F80
00007F80
00007F80
00003FC0
00003FC0
00003FC0
00001FE0
00001FE0
00001FE0
00000FF0
00000FF0
00000FF0
000007F8
000007F8
000007F8
000003FC
000003FC
000003FC
ENDCHAR
STARTCHAR 005D
ENCODING 93
SWIDTH 337 0
DWIDTH 30 0
BBX 18 82 4 -20
BITMAP
FFFFC0
FFFFC0
FFFFC0
FFFFC0
FFFFC0
FFFFC0
01FFC0
01FFC0
01FFC0
01FFC0
01FFC0
01FFC0
01FFC0
01FFC0
01FFC0
01FFC0
01FFC0
01FFC0
01FFC0
01FFC0
01FFC0
01FFC0
01FFC0
01FFC0
01FFC0
01FFC0
01FFC0
01FFC0
01FFC0
01FFC0
01FFC0
01FFC0
01FFC0
01FFC0
01FFC0
01FFC0
01FFC0
01FFC0
01FFC0
01FFC0
01FFC0
01FFC0
01FFC0
01FFC0
01FFC0
01FFC0
01FFC0
01FFC0
01FFC0
01FFC0
01FFC0
01FFC0
01FFC0
01FFC0
01FFC0
01FFC0
01FFC0
01FFC0
01FFC0
01FFC0
01FFC0
01FFC0
01FFC0
01FFC0
01FFC0
01FFC0
01FFC0
01FFC0
01FFC0
01FFC0
01FFC0
01FFC0
01FFC0
01FFC0
01FFC0
01FFC0
FFFFC0
FFFFC0
FFFFC0
FFFFC0
FFFFC0
FFFFC0
ENDCHAR
STARTCHAR 005E
ENCODING 94
SWIDTH 990 0
DWIDTH 88 0
BBX 52 24 18 39
BITMAP
00001FFF800000
00001FFFC00000
00003FFFE00000
00007FFFF00000
0000FFFFF80000
0001FFFFFC0000
0003FFFFFC0000
0003FFFFFE0000
0007FFFFFF0000
000FFFDFFF8000
001FFF8FFFC000
003FFF07FFE000
007FFE03FFE000
007FFC01FFF000
00FFF800FFF800
01FFF0007FFC00
03FFE0003FFE00
07FFC0001FFE00
0FFF80000FFF00
0FFF000007FF80
1FFE000003FFC0
3FFC000001FFE0
7FF8000000FFF0
FFF00000007FF0
ENDCHAR
STARTCHAR 005F
ENCODING 95
SWIDTH 495 0
DWIDTH 44 0
BBX 44 10 0 -21
BITMAP
FFFFFFFFFFF0
FFFFFFFFFFF0
FFFFFFFFFFF0
FFFFFFFFFFF0
FFFFFFFFFFF0
FFFFFFFFFFF0
FFFFFFFFFFF0
FFFFFFFFFFF0
FFFFFFFFFFF0
FFFFFFFFFFF0
ENDCHAR
STARTCHAR 0060
ENCODING 96
SWIDTH 495 0
DWIDTH 44 0
BBX 19 16 10 49
BITMAP
FFE000
7FE000
3FF000
3FF800
1FF800
0FFC00
07FC00
03FE00
01FE00
01FF00
00FF00
007F80
003F80
001FC0
000FC0
0007E0
ENDCHAR
STARTCHAR 0061
ENCODING 97
SWIDTH 551 0
DWIDTH 49 0
BBX 44 46 2 -1
BITMAP
00003FE00000
0003FFFC0000
000FFFFF8000
003FFFFFC000
007FFFFFF000
01FFFFFFF800
03FFFFFFFC00
07FFFFFFFE00
07FFFFFFFF00
0FFFFFFFFF80
1FFFFFFFFF80
1FFFFFFFFFC0
3FFFFFFFFFC0
3FFFFFFFFFE0
7FFFF07FFFE0
7FFFC01FFFE0
7FFF000FFFF0
7FFF0007FFF0
FFFE0003FFF0
FFFE0003FFF0
FFFE0003FFF0
FFFC0003FFF0
FFFC0003FFF0
FFFC0001FFF0
FFFC0001FFF0
FFFE0001FFF0
FFFE0001FFF0
FFFE0001FFF0
7FFF0001FFF0
7FFF8001FFF0
7FFFC001FFF0
3FFFF8F1FFF0
3FFFFFF1FFF0
3FFFFFF1FFF0
1FFFFFF1FFF0
1FFFFFF1FFF0
0FFFFFF1FFF0
07FFFFF1FFF0
03FFFFF1FFF0
01FFFFF1FFF0
00FFFFF1FFF0
007FFFF1FFF0
003FFFF1FFF0
000FFFF1FFF0
0001FFF1FFF0
000017800000
ENDCHAR
STARTCHAR 0062
ENCODING 98
SWIDTH 551 0
DWIDTH 49 0
BBX 44 63 4 -1
BITMAP
FFF800000000
FFF800000000
FFF800000000
FFF800000000
FFF800000000
FFF800000000
FFF800000000
FFF800000000
FFF800000000
FFF800000000
FFF800000000
FFF800000000
FFF800000000
FFF800000000
FFF800000000
FFF800000000
FFF804000000
FFF8FFF80000
FFF8FFFE0000
FFF8FFFF8000
FFF8FFFFE000
FFF8FFFFF000
FFF8FFFFF800
FFF8FFFFFC00
FFF8FFFFFE00
FFF8FFFFFF00
FFF8FFFFFF00
FFF8FFFFFF80
FFF8FFFFFF80
FFF8FFFFFFC0
FFF8FBFFFFC0
FFF8003FFFE0
FFF8001FFFE0
FFF8000FFFE0
FFF8000FFFE0
FFF80007FFE0
FFF80007FFF0
FFF80007FFF0
FFF80003FFF0
FFF80003FFF0
FFF80003FFF0
FFFC0007FFF0
FFFC0007FFF0
FFFC0007FFE0
FFFC000FFFE0
FFFE000FFFE0
FFFF001FFFE0
7FFF803FFFE0
7FFFE0FFFFC0
7FFFFFFFFFC0
3FFFFFFFFF80
3FFFFFFFFF80
1FFFFFFFFF00
0FFFFFFFFF00
0FFFFFFFFE00
07FFFFFFFC00
03FFFFFFF800
01FFFFFFF000
007FFFFFE000
003FFFFF8000
000FFFFF0000
0003FFF80000
00003FC00000
ENDCHAR
STARTCHAR 0063
ENCODING 99
SWIDTH 393 0
DWIDTH 35 0
BBX 31 44 2 0
BITMAP
00000FFE
0000FFFE
0007FFFE
001FFFFE
007FFFFE
00FFFFFE
01FFFFFE
03FFFFFE
07FFFFFE
0FFFFFFE
1FFFFFFE
1FFFFFFE
3FFFFFFE
3FFFFE00
7FFFE000
7FFFC000
7FFF0000
7FFF0000
FFFE0000
FFFE0000
FFFC0000
FFFC0000
FFFC0000
FFFC0000
FFFE0000
FFFE0000
7FFF0000
7FFF0000
7FFFC000
7FFFE000
3FFFFF00
3FFFFFFE
1FFFFFFE
1FFFFFFE
0FFFFFFE
07FFFFFE
03FFFFFE
01FFFFFE
00FFFFFE
007FFFFE
001FFFFE
0007FFFE
0001FFFE
00000FFE
ENDCHAR
STARTCHAR 0064
ENCODING 100
SWIDTH 551 0
DWIDTH 49 0
BBX 44 63 2 -1
BITMAP
00000001FFF0
00000001FFF0
00000001FFF0
00000001FFF0
00000001FFF0
00000001FFF0
00000001FFF0
00000001FFF0
00000001FFF0
00000001FFF0
00000001FFF0
00000001FFF0
00000001FFF0
00000001FFF0
00000001FFF0
00000001FFF0
00000001FFF0
00000F81FFF0
0003FFF1FFF0
000FFFF1FFF0
003FFFF1FFF0
007FFFF1FFF0
00FFFFF1FFF0
01FFFFF1FFF0
03FFFFF1FFF0
07FFFFF1FFF0
0FFFFFF1FFF0
1FFFFFF1FFF0
1FFFFFF1FFF0
3FFFFFF1FFF0
3FFFFFF1FFF0
7FFFF8F1FFF0
7FFFC001FFF0
7FFF8001FFF0
7FFF0001FFF0
FFFE0001FFF0
FFFE0001FFF0
FFFE0001FFF0
FFFC0001FFF0
FFFC0001FFF0
FFFC0003FFF0
FFFC0003FFF0
FFFE0003FFF0
FFFE0003FFF0
FFFE0003FFF0
7FFF0007FFF0
7FFF800FFFF0
7FFFC01FFFE0
7FFFF07FFFE0
3FFFFFFFFFE0
3FFFFFFFFFC0
1FFFFFFFFFC0
1FFFFFFFFF80
0FFFFFFFFF00
07FFFFFFFF00
03FFFFFFFE00
03FFFFFFFC00
01FFFFFFF800
007FFFFFF000
003FFFFFC000
000FFFFF0000
0003FFFC0000
00001FC00000
ENDCHAR
STARTCHAR 0065
ENCODING 101
SWIDTH 551 0
DWIDTH 49 0
BBX 46 46 2 -1
BITMAP
00001FC00000
0001FFFC0000
000FFFFF8000
001FFFFFC000
007FFFFFF000
00FFFFFFF800
01FFFFFFFC00
03FFFFFFFE00
07FFFFFFFF00
0FFFFFFFFF00
0FFFFFFFFF80
1FFFF03FFFC0
1FFFC00FFFC0
3FFF801FFFE0
3FFF007FFFE0
7FFE00FFFF80
7FFE03FFFF00
7FFC07FFFC00
7FFC1FFFF800
FFFC3FFFE000
FFFC7FFFC000
FFF87FFF0000
FFF83FFE0000
FFFC1FF80000
FFFC1FF01C00
FFFC0FC01F00
FFFC07803FC0
7FFE06007FF0
7FFF0000FFFC
7FFF0001FFFC
7FFF8003FFFC
3FFFE00FFFF8
3FFFFEFFFFF0
1FFFFFFFFFF0
1FFFFFFFFFE0
0FFFFFFFFFC0
07FFFFFFFFC0
07FFFFFFFF80
03FFFFFFFF00
01FFFFFFFE00
00FFFFFFFC00
007FFFFFF000
001FFFFFE000
0007FFFF8000
0001FFFE0000
00001FC00000
ENDCHAR
STARTCHAR 0066
ENCODING 102
SWIDTH 348 0
DWIDTH 31 0
BBX 27 62 4 0
BITMAP
0007FFE0
007FFFE0
01FFFFE0
03FFFFE0
07FFFFE0
0FFFFFE0
1FFFFFE0
3FFFFFE0
3FFFFFE0
7FFFFFE0
7FFFFFE0
7FFFFFE0
7FFFFFE0
FFFE0000
FFFC0000
FFFC0000
FFFC0000
FFFC0000
FFFFFFE0
FFFFFFE0
FFFFFFE0
FFFFFFE0
FFFFFFE0
FFFFFFE0
FFFFFFE0
FFFFFFE0
FFFFFFE0
FFFFFFE0
FFFFFFE0
FFFFFFE0
FFFFFFE0
FFFC0000
FFFC0000
FFFC0000
FFFC0000
FFFC0000
FFFC0000
FFFC0000
FFFC0000
FFFC0000
FFFC0000
FFFC0000
FFFC0000
FFFC0000
FFFC0000
FFFC0000
FFFC0000
FFFC0000
FFFC0000
FFFC0000
FFFC0000
FFFC0000
FFFC0000
FFFC0000
FFFC0000
FFFC0000
FFFC0000
FFFC0000
FFFC0000
FFFC0000
FFFC0000
FFFC0000
ENDCHAR
STARTCHAR 0067
ENCODING 103
SWIDTH 551 0
DWIDTH 49 0
BBX 44 65 2 -20
BITMAP
00003FE00000
0003FFFC0000
000FFFFF8000
003FFFFFC000
007FFFFFF000
00FFFFFFF800
03FFFFFFFC00
03FFFFFFFE00
07FFFFFFFF00
0FFFFFFFFF80
1FFFFFFFFF80
1FFFFFFFFFC0
3FFFFFFFFFC0
3FFFFFFFFFE0
7FFFF07FFFE0
7FFFC01FFFE0
7FFF800FFFF0
7FFF0007FFF0
7FFE0003FFF0
FFFE0003FFF0
FFFE0003FFF0
FFFC0003FFF0
FFFC0003FFF0
FFFC0001FFF0
FFFC0001FFF0
FFFE0001FFF0
FFFE0001FFF0
7FFE0001FFF0
7FFF0001FFF0
7FFF8001FFF0
7FFFC001FFF0
3FFFF8F1FFF0
3FFFFFF1FFF0
1FFFFFF1FFF0
1FFFFFF1FFF0
0FFFFFF1FFF0
0FFFFFF1FFF0
07FFFFF1FFF0
03FFFFF1FFF0
01FFFFF1FFF0
00FFFFF1FFF0
003FFFF3FFF0
001FFFF3FFF0
0007FFF3FFF0
0000FFF3FFF0
00000003FFF0
00000003FFF0
00000007FFF0
00000007FFF0
0000000FFFF0
03C0001FFFE0
03FE00FFFFE0
03FFFFFFFFE0
03FFFFFFFFC0
03FFFFFFFFC0
03FFFFFFFF80
03FFFFFFFF80
03FFFFFFFF00
03FFFFFFFE00
03FFFFFFFC00
03FFFFFFF800
03FFFFFFE000
03FFFFFF8000
007FFFFE0000
00003F800000
ENDCHAR
STARTCHAR 0068
ENCODING 104
SWIDTH 540 0
DWIDTH 48 0
BBX 40 62 4 0
BITMAP
FFFC000000
FFFC000000
FFFC000000
FFFC000000
FFFC000000
FFFC000000
FFFC000000
FFFC000000
FFFC000000
FFFC000000
FFFC000000
FFFC000000
FFFC000000
FFFC000000
FFFC000000
FFFC000000
FFFC000000
FFFC0FE000
FFFC7FFE00
FFFCFFFF00
FFFFFFFFC0
FFFFFFFFE0
FFFFFFFFF0
FFFFFFFFF0
FFFFFFFFF8
FFFFFFFFFC
FFFFFFFFFC
FFFFFFFFFC
FFFFFFFFFE
FFFFFFFFFE
FFFFFFFFFE
FFFF80FFFF
FFFF007FFF
FFFE003FFF
FFFC003FFF
FFFC003FFF
FFFC001FFF
FFFC001FFF
FFFC001FFF
FFFC001FFF
FFFC001FFF
FFFC001FFF
FFFC001FFF
FFFC001FFF
FFFC001FFF
FFFC001FFF
FFFC001FFF
FFFC001FFF
FFFC001FFF
FFFC001FFF
FFFC001FFF
FFFC001FFF
FFFC001FFF
FFFC001FFF
FFFC001FFF
FFFC001FFF
FFFC001FFF
FFFC001FFF
FFFC001FFF
FFFC001FFF
FFFC001FFF
FFFC001FFF
ENDCHAR
STARTCHAR 0069
ENCODING 105
SWIDTH 247 0
DWIDTH 22 0
BBX 16 64 3 0
BITMAP
07E0
1FF8
3FFC
7FFE
7FFE
FFFF
FFFF
FFFF
FFFF
FFFF
FFFF
7FFE
7FFE
3FFC
1FF8
07E0
0000
0000
0000
0000
7FFE
7FFE
7FFE
7FFE
7FFE
7FFE
7FFE
7FFE
7FFE
7FFE
7FFE
7FFE
7FFE
7FFE
7FFE
7FFE
7FFE
7FFE
7FFE
7FFE
7FFE
7FFE
7FFE
7FFE
7FFE
7FFE
7FFE
7FFE
7FFE
7FFE
7FFE
7FFE
7FFE
7FFE
7FFE
7FFE
7FFE
7FFE
7FFE
7FFE
7FFE
7FFE
7FFE
7FFE
ENDCHAR
STARTCHAR 006A
ENCODING 106
SWIDTH 247 0
DWIDTH 22 0
BBX 26 83 -7 -19
BITMAP
0000F800
0003FE00
000FFF00
000FFF80
001FFF80
003FFFC0
003FFFC0
003FFFC0
003FFFC0
003FFFC0
003FFFC0
001FFFC0
001FFF80
000FFF00
0007FE00
0001F800
00000000
00000000
00000000
00000000
001FFF80
001FFF80
001FFF80
001FFF80
001FFF80
001FFF80
001FFF80
001FFF80
001FFF80
001FFF80
001FFF80
001FFF80
001FFF80
001FFF80
001FFF80
001FFF80
001FFF80
001FFF80
001FFF80
001FFF80
001FFF80
001FFF80
001FFF80
001FFF80
001FFF80
001FFF80
001FFF80
001FFF80
001FFF80
001FFF80
001FFF80
001FFF80
001FFF80
001FFF80
001FFF80
001FFF80
001FFF80
001FFF80
001FFF80
001FFF80
001FFF80
001FFF80
001FFF80
001FFF80
001FFF80
001FFF80
001FFF80
001FFF80
003FFF80
007FFF80
FFFFFF00
FFFFFF00
FFFFFF00
FFFFFF00
FFFFFE00
FFFFFE00
FFFFFC00
FFFFF800
FFFFF000
FFFFE000
FFFF8000
FFFE0000
FFE00000
ENDCHAR
STARTCHAR 006B
ENCODING 107
SWIDTH 517 0
DWIDTH 46 0
BBX 40 62 4 0
BITMAP
FFFC000000
FFFC000000
FFFC000000
FFFC000000
FFFC000000
FFFC000000
FFFC000000
FFFC000000
FFFC000000
FFFC000000
FFFC000000
FFFC000000
FFFC000000
FFFC000000
FFFC000000
FFFC000000
FFFC000000
FFFC000000
FFFC007FFF
FFFC007FFF
FFFC007FFE
FFFC00FFFE
FFFC00FFFE
FFFC00FFFC
FFFC01FFFC
FFFC01FFF8
FFFC03FFF8
FFFC03FFF8
FFFC07FFF0
FFFC07FFF0
FFFC0FFFE0
FFFC1FFFE0
FFFFFFFFE0
FFFFFFFFC0
FFFFFFFF80
FFFFFFFF00
FFFFFFFC00
FFFFFFFF00
FFFFFFFFC0
FFFFFFFFE0
FFFFFFFFF0
FFFFFFFFF8
FFFFFFFFFC
FFFFFFFFFC
FFFFFFFFFC
FFFC03FFFE
FFFC00FFFE
FFFC00FFFE
FFFC007FFE
FFFC007FFE
FFFC007FFE
FFFC007FFE
FFFC007FFE
FFFC007FFE
FFFC007FFE
FFFC007FFE
FFFC007FFE
FFFC007FFE
FFFC007FFE
FFFC007FFE
FFFC007FFE
FFFC007FFE
ENDCHAR
STARTCHAR 006C
ENCODING 108
SWIDTH 247 0
DWIDTH 22 0
BBX 14 62 4 0
BITMAP
FFFC
FFFC
FFFC
FFFC
FFFC
FFFC
FFFC
FFFC
FFFC
FFFC
FFFC
FFFC
FFFC
FFFC
FFFC
FFFC
FFFC
FFFC
FFFC
FFFC
FFFC
FFFC
FFFC
FFFC
FFFC
FFFC
FFFC
FFFC
FFFC
FFFC
FFFC
FFFC
FFFC
FFFC
FFFC
FFFC
FFFC
FFFC
FFFC
FFFC
FFFC
FFFC
FFFC
FFFC
FFFC
FFFC
FFFC
FFFC
FFFC
FFFC
FFFC
FFFC
FFFC
FFFC
FFFC
FFFC
FFFC
FFFC
FFFC
FFFC
FFFC
FFFC
ENDCHAR
STARTCHAR 006D
ENCODING 109
SWIDTH 798 0
DWIDTH 71 0
BBX 63 45 4 0
BITMAP
0003FC00007F0000
001FFF8003FFF000
007FFFE00FFFFC00
00FFFFF83FFFFE00
03FFFFFC7FFFFF80
07FFFFFEFFFFFFC0
0FFFFFFFFFFFFFE0
0FFFFFFFFFFFFFE0
1FFFFFFFFFFFFFF0
3FFFFFFFFFFFFFF8
3FFFFFFFFFFFFFF8
7FFFFFFFFFFFFFFC
7FFFFFFFFFFFFFFC
7FFFFFFFFFFFFFFC
FFFF03FFFF81FFFE
FFFE01FFFF00FFFE
FFFC00FFFE007FFE
FFFC00FFFE007FFE
FFF8007FFC003FFE
FFF8007FFC003FFE
FFF8007FFC003FFE
FFF8007FFC003FFE
FFF8007FFC003FFE
FFF8007FFC003FFE
FFF8007FFC003FFE
FFF8007FFC003FFE
FFF8007FFC003FFE
FFF8007FFC003FFE
FFF8007FFC003FFE
FFF8007FFC003FFE
FFF8007FFC003FFE
FFF8007FFC003FFE
FFF8007FFC003FFE
FFF8007FFC003FFE
FFF8007FFC003FFE
FFF8007FFC003FFE
FFF8007FFC003FFE
FFF8007FFC003FFE
FFF8007FFC003FFE
FFF8007FFC003FFE
FFF8007FFC003FFE
FFF8007FFC003FFE
FFF8007FFC003FFE
FFF8007FFC003FFE
FFF8007FFC003FFE
ENDCHAR
STARTCHAR 006E
ENCODING 110
SWIDTH 528 0
DWIDTH 47 0
BBX 40 45 4 0
BITMAP
0000FF0000
000FFFE000
003FFFF800
00FFFFFE00
01FFFFFF00
03FFFFFFC0
07FFFFFFE0
0FFFFFFFF0
1FFFFFFFF0
1FFFFFFFF8
3FFFFFFFF8
3FFFFFFFFC
7FFFFFFFFC
7FFFFFFFFE
7FFF01FFFE
FFFE00FFFE
FFFC007FFE
FFFC003FFF
FFFC003FFF
FFF8003FFF
FFF8003FFF
FFF8003FFF
FFF8003FFF
FFF8003FFF
FFF8003FFF
FFF8003FFF
FFF8003FFF
FFF8003FFF
FFF8003FFF
FFF8003FFF
FFF8003FFF
FFF8003FFF
FFF8003FFF
FFF8003FFF
FFF8003FFF
FFF8003FFF
FFF8003FFF
FFF8003FFF
FFF8003FFF
FFF8003FFF
FFF8003FFF
FFF8003FFF
FFF8003FFF
FFF8003FFF
FFF8003FFF
ENDCHAR
STARTCHAR 006F
ENCODING 111
SWIDTH 540 0
DWIDTH 48 0
BBX 45 46 2 -1
BITMAP
00003FE00000
0001FFFC0000
000FFFFF8000
001FFFFFC000
007FFFFFF000
00FFFFFFF800
01FFFFFFFC00
03FFFFFFFE00
07FFFFFFFF00
0FFFFFFFFF00
0FFFFFFFFF80
1FFFFFFFFFC0
1FFFFFFFFFC0
3FFFFFFFFFE0
3FFFE07FFFE0
7FFFC01FFFF0
7FFF800FFFF0
7FFF0007FFF0
7FFE0003FFF0
FFFE0003FFF0
FFFE0003FFF8
FFFE0003FFF8
FFFC0001FFF8
FFFE0001FFF8
FFFE0003FFF8
FFFE0003FFF8
FFFE0003FFF0
7FFF0007FFF0
7FFF0007FFF0
7FFF800FFFF0
7FFFC01FFFE0
3FFFF07FFFE0
3FFFFFFFFFE0
1FFFFFFFFFC0
1FFFFFFFFFC0
0FFFFFFFFF80
07FFFFFFFF00
07FFFFFFFF00
03FFFFFFFE00
01FFFFFFFC00
00FFFFFFF800
007FFFFFF000
001FFFFFC000
0007FFFF0000
0001FFFC0000
00001F800000
ENDCHAR
STARTCHAR 0070
ENCODING 112
SWIDTH 551 0
DWIDTH 49 0
BBX 44 64 4 -19
BITMAP
00007FC00000
0003FFFC0000
001FFFFF0000
003FFFFFC000
00FFFFFFE000
01FFFFFFF000
03FFFFFFFC00
07FFFFFFFC00
0FFFFFFFFE00
1FFFFFFFFF00
1FFFFFFFFF80
3FFFFFFFFF80
3FFFFFFFFFC0
7FFFFFFFFFC0
7FFFE0FFFFC0
7FFF803FFFE0
FFFE001FFFE0
FFFE000FFFE0
FFFC0007FFE0
FFFC0007FFF0
FFFC0007FFF0
FFF80007FFF0
FFF80003FFF0
FFF80003FFF0
FFF80007FFF0
FFF80007FFF0
FFF80007FFF0
FFF80007FFE0
FFF8000FFFE0
FFF8001FFFE0
FFF8003FFFE0
FFF8F1FFFFC0
FFF8FFFFFFC0
FFF8FFFFFFC0
FFF8FFFFFF80
FFF8FFFFFF00
FFF8FFFFFF00
FFF8FFFFFE00
FFF8FFFFFC00
FFF8FFFFF800
FFF8FFFFF000
FFF8FFFFE000
FFF8FFFF8000
FFF8FFFF0000
FFF8FFF80000
FFF80E000000
FFF800000000
FFF800000000
FFF800000000
FFF800000000
FFF800000000
FFF800000000
FFF800000000
FFF800000000
FFF800000000
FFF800000000
FFF800000000
FFF800000000
FFF800000000
FFF800000000
FFF800000000
FFF800000000
FFF800000000
FFF800000000
ENDCHAR
STARTCHAR 0071
ENCODING 113
SWIDTH 551 0
DWIDTH 49 0
BBX 44 64 2 -19
BITMAP
00003FE00000
0003FFFC0000
000FFFFF8000
003FFFFFC000
007FFFFFF000
01FFFFFFF800
03FFFFFFFC00
07FFFFFFFE00
07FFFFFFFF00
0FFFFFFFFF80
1FFFFFFFFF80
1FFFFFFFFFC0
3FFFFFFFFFC0
3FFFFFFFFFE0
7FFFF07FFFE0
7FFFC01FFFE0
7FFF000FFFF0
7FFF0007FFF0
FFFE0003FFF0
FFFE0003FFF0
FFFE0003FFF0
FFFC0003FFF0
FFFC0003FFF0
FFFC0001FFF0
FFFC0001FFF0
FFFE0001FFF0
FFFE0001FFF0
FFFE0001FFF0
7FFF0001FFF0
7FFF8001FFF0
7FFFC001FFF0
3FFFF8F1FFF0
3FFFFFF1FFF0
3FFFFFF1FFF0
1FFFFFF1FFF0
1FFFFFF1FFF0
0FFFFFF1FFF0
07FFFFF1FFF0
03FFFFF1FFF0
01FFFFF1FFF0
00FFFFF1FFF0
007FFFF1FFF0
003FFFF1FFF0
000FFFF1FFF0
0001FFF1FFF0
00001781FFF0
00000001FFF0
00000001FFF0
00000001FFF0
00000001FFF0
00000001FFF0
00000001FFF0
00000001FFF0
00000001FFF0
00000001FFF0
00000001FFF0
00000001FFF0
00000001FFF0
00000001FFF0
00000001FFF0
00000001FFF0
00000001FFF0
00000001FFF0
00000001FFF0
ENDCHAR
STARTCHAR 0072
ENCODING 114
SWIDTH 360 0
DWIDTH 32 0
BBX 28 44 4 0
BITMAP
FFF803F0
FFF83FF0
FFF87FF0
FFF9FFF0
FFFBFFF0
FFFBFFF0
FFFFFFF0
FFFFFFF0
FFFFFFF0
FFFFFFF0
FFFFFFF0
FFFFFFF0
FFFFFFF0
FFFFFF80
FFFFF000
FFFFC000
FFFF8000
FFFF0000
FFFE0000
FFFE0000
FFFE0000
FFFC0000
FFFC0000
FFFC0000
FFFC0000
FFFC0000
FFF80000
FFF80000
FFF80000
FFF80000
FFF80000
FFF80000
FFF80000
FFF80000
FFF80000
FFF80000
FFF80000
FFF80000
FFF80000
FFF80000
FFF80000
FFF80000
FFF80000
FFF80000
ENDCHAR
STARTCHAR 0073
ENCODING 115
SWIDTH 427 0
DWIDTH 38 0
BBX 33 44 3 0
BITMAP
001FFFFE00
00FFFFFE00
03FFFFFE00
0FFFFFFE00
1FFFFFFE00
3FFFFFFE00
3FFFFFFE00
7FFFFFFE00
7FFFFFFE00
7FFFFFFE00
7FFFFFFE00
FFFFFFFE00
FFFC000000
7FFC000000
7FFC000000
7FFF000000
7FFFC00000
3FFFF80000
3FFFFE0000
1FFFFF8000
0FFFFFE000
07FFFFF000
03FFFFF800
00FFFFFC00
007FFFFE00
000FFFFF00
0003FFFF00
0000FFFF80
00003FFF80
00001FFF80
00001FFF80
00007FFF80
FFFFFFFF80
FFFFFFFF80
FFFFFFFF80
FFFFFFFF80
FFFFFFFF00
FFFFFFFF00
FFFFFFFE00
FFFFFFFC00
FFFFFFF800
FFFFFFF000
FFFFFFC000
FFFFFE0000
ENDCHAR
STARTCHAR 0074
ENCODING 116
SWIDTH 348 0
DWIDTH 31 0
BBX 25 55 4 0
BITMAP
FFFC0000
FFFC0000
FFFC0000
FFFC0000
FFFC0000
FFFC0000
FFFC0000
FFFC0000
FFFC0000
FFFC0000
FFFC0000
FFFFFF80
FFFFFF80
FFFFFF80
FFFFFF80
FFFFFF80
FFFFFF80
FFFFFF80
FFFFFF80
FFFFFF80
FFFFFF80
FFFFFF80
FFFFFF80
FFFFFF80
FFFC0000
FFFC0000
FFFC0000
FFFC0000
FFFC0000
FFFC0000
FFFC0000
FFFC0000
FFFC0000
FFFC0000
FFFC0000
FFFC0000
FFFC0000
FFFC0000
FFFC0000
FFFC0000
FFFC0000
FFFF0000
FFFFFF80
7FFFFF80
7FFFFF80
7FFFFF80
3FFFFF80
3FFFFF80
1FFFFF80
0FFFFF80
0FFFFF80
03FFFF80
01FFFF80
007FFF80
0007FF80
ENDCHAR
STARTCHAR 0075
ENCODING 117
SWIDTH 528 0
DWIDTH 47 0
BBX 40 45 4 -1
BITMAP
FFF8003FFF
FFF8003FFF
FFF8003FFF
FFF8003FFF
FFF8003FFF
FFF8003FFF
FFF8003FFF
FFF8003FFF
FFF8003FFF
FFF8003FFF
FFF8003FFF
FFF8003FFF
FFF8003FFF
FFF8003FFF
FFF8003FFF
FFF8003FFF
FFF8003FFF
FFF8003FFF
FFF8003FFF
FFF8003FFF
FFF8003FFF
FFF8003FFF
FFF8003FFF
FFF8003FFF
FFF8003FFF
FFF8003FFF
FFFC003FFF
FFFC003FFF
FFFC007FFE
FFFE00FFFE
FFFF01FFFE
7FFFFFFFFE
7FFFFFFFFC
3FFFFFFFFC
3FFFFFFFF8
1FFFFFFFF8
1FFFFFFFF0
0FFFFFFFE0
07FFFFFFE0
03FFFFFFC0
01FFFFFF80
007FFFFE00
003FFFFC00
000FFFE000
0000FE0000
ENDCHAR
STARTCHAR 0076
ENCODING 118
SWIDTH 472 0
DWIDTH 42 0
BBX 44 45 -1 -1
BITMAP
FFFC0003FFF0
FFFE0003FFF0
7FFE0007FFE0
7FFE0007FFE0
7FFE0007FFE0
3FFF0007FFE0
3FFF000FFFC0
3FFF000FFFC0
1FFF800FFFC0
1FFF801FFF80
1FFF801FFF80
0FFF801FFF80
0FFFC01FFF00
0FFFC03FFF00
07FFC03FFF00
07FFE03FFE00
07FFE03FFE00
03FFE07FFE00
03FFE07FFC00
03FFF07FFC00
01FFF0FFFC00
01FFF0FFF800
01FFF0FFF800
00FFF8FFF800
00FFF9FFF000
00FFF9FFF000
007FF9FFF000
007FFDFFE000
007FFFFFE000
003FFFFFE000
003FFFFFE000
003FFFFFC000
001FFFFFC000
001FFFFFC000
001FFFFF8000
000FFFFF8000
000FFFFF8000
000FFFFF0000
0007FFFF0000
0007FFFE0000
0003FFFE0000
0001FFFC0000
0000FFF80000
00007FE00000
00001F800000
ENDCHAR
STARTCHAR 0077
ENCODING 119
SWIDTH 798 0
DWIDTH 71 0
BBX 63 45 4 -1
BITMAP
FFF8007FFC003FFE
FFF8007FFC003FFE
FFF8007FFC003FFE
FFF8007FFC003FFE
FFF8007FFC003FFE
FFF8007FFC003FFE
FFF8007FFC003FFE
FFF8007FFC003FFE
FFF8007FFC003FFE
FFF8007FFC003FFE
FFF8007FFC003FFE
FFF8007FFC003FFE
FFF8007FFC003FFE
FFF8007FFC003FFE
FFF8007FFC003FFE
FFF8007FFC003FFE
FFF8007FFC003FFE
FFF8007FFC003FFE
FFF8007FFC003FFE
FFF8007FFC003FFE
FFF8007FFC003FFE
FFF8007FFC003FFE
FFF8007FFC003FFE
FFF8007FFC003FFE
FFF8007FFC003FFE
FFF8007FFC003FFE
FFF8007FFC003FFE
FFFC00FFFE007FFE
FFFC00FFFE007FFE
FFFE01FFFF00FFFE
FFFF03FFFF81FFFE
7FFFFFFFFFFFFFFC
7FFFFFFFFFFFFFFC
7FFFFFFFFFFFFFFC
3FFFFFFFFFFFFFF8
3FFFFFFFFFFFFFF8
1FFFFFFFFFFFFFF0
0FFFFFFFFFFFFFE0
07FFFFFFFFFFFFE0
07FFFFFEFFFFFFC0
03FFFFFC7FFFFF80
00FFFFF83FFFFE00
007FFFE00FFFFC00
001FFF8003FFF000
0000FC00003F0000
ENDCHAR
STARTCHAR 0078
ENCODING 120
SWIDTH 438 0
DWIDTH 39 0
BBX 38 44 1 0
BITMAP
FC000000FC
FFC0000FFC
FFF0007FFC
FFFC00FFFC
FFFE03FFFC
FFFF87FFFC
FFFFCFFFFC
FFFFFFFFFC
FFFFFFFFFC
FFFFFFFFFC
FFFFFFFFFC
FFFFFFFFFC
FFFFFFFFFC
3FFFFFFFE0
01FFFFFE00
007FFFF800
003FFFF000
003FFFE000
001FFFE000
001FFFC000
000FFFC000
000FFFC000
000FFFC000
000FFFC000
001FFFC000
001FFFE000
001FFFE000
003FFFF000
007FFFF800
01FFFFFE00
3FFFFFFFE0
FFFFFFFFFC
FFFFFFFFFC
FFFFFFFFFC
FFFFFFFFFC
FFFFFFFFFC
FFFFFFFFFC
FFFFCFFFFC
FFFF87FFFC
FFFE03FFFC
FFFC01FFFC
FFF0007FFC
FFC0001FFC
FC000001FC
ENDCHAR
STARTCHAR 0079
ENCODING 121
SWIDTH 528 0
DWIDTH 47 0
BBX 40 63 4 -19
BITMAP
FFF8003FFF
FFF8003FFF
FFF8003FFF
FFF8003FFF
FFF8003FFF
FFF8003FFF
FFF8003FFF
FFF8003FFF
FFF8003FFF
FFF8003FFF
FFF8003FFF
FFF8003FFF
FFF8003FFF
FFF8003FFF
FFF8003FFF
FFF8003FFF
FFF8003FFF
FFF8003FFF
FFF8003FFF
FFF8003FFF
FFF8003FFF
FFF8003FFF
FFF8003FFF
FFF8003FFF
FFF8003FFF
FFF8003FFF
FFF8003FFF
FFFC003FFF
FFFC007FFE
FFFE007FFE
FFFF00FFFE
7FFF83FFFE
7FFFFFFFFC
7FFFFFFFFC
3FFFFFFFF8
3FFFFFFFF8
1FFFFFFFF0
0FFFFFFFF0
07FFFFFFE0
03FFFFFFC0
01FFFFFF80
00FFFFFE00
003FFFFC00
001FFFF000
0007FFE000
0007FFE000
0007FFE000
0007FFE000
0007FFE000
0007FFE000
0007FFE000
0007FFE000
0007FFE000
0007FFE000
0007FFE000
0007FFE000
0007FFE000
0007FFE000
0007FFE000
0007FFE000
0007FFE000
0007FFE000
0007FFE000
ENDCHAR
STARTCHAR 007A
ENCODING 122
SWIDTH 450 0
DWIDTH 40 0
BBX 37 44 1 0
BITMAP
1FFFFFFE00
1FFFFFFFC0
1FFFFFFFE0
1FFFFFFFF0
1FFFFFFFF8
1FFFFFFFF8
1FFFFFFFF8
1FFFFFFFF8
1FFFFFFFF8
1FFFFFFFF8
1FFFFFFFF8
1FFFFFFFF8
1FFFFFFFF0
00003FFFF0
00007FFFE0
0000FFFFC0
0001FFFF80
0003FFFF00
0003FFFE00
0007FFFC00
000FFFF800
001FFFF800
003FFFF000
007FFFE000
00FFFFC000
01FFFF8000
03FFFF0000
07FFFE0000
07FFFC0000
0FFFF80000
1FFFF00000
3FFFFFFFF8
3FFFFFFFF8
7FFFFFFFF8
7FFFFFFFF8
FFFFFFFFF8
FFFFFFFFF8
FFFFFFFFF8
7FFFFFFFF8
7FFFFFFFF8
7FFFFFFFF8
3FFFFFFFF8
1FFFFFFFF8
07FFFFFFF8
ENDCHAR
STARTCHAR 007B
ENCODING 123
SWIDTH 495 0
DWIDTH 44 0
BBX 32 82 7 -18
BITMAP
00000FFF
00007FFF
0001FFFF
0007FFFF
000FFFFF
000FFFFF
001FFFFF
001FFFFF
001FFFFF
001FFFFF
001FFFF0
001FFF80
001FFF00
001FFE00
001FFE00
001FFE00
001FFE00
001FFE00
001FFE00
001FFE00
001FFE00
001FFE00
001FFE00
001FFE00
001FFE00
001FFE00
001FFE00
001FFE00
003FFE00
003FFE00
003FFE00
003FFE00
007FFE00
00FFFC00
01FFFC00
07FFFC00
FFFFF800
FFFFF800
FFFFF000
FFFFC000
FFFE0000
FFFF0000
FFFFC000
FFFFF000
FFFFF800
FFFFF800
07FFFC00
01FFFC00
00FFFC00
007FFE00
003FFE00
003FFE00
003FFE00
003FFE00
001FFE00
001FFE00
001FFE00
001FFE00
001FFE00
001FFE00
001FFE00
001FFE00
001FFE00
001FFE00
001FFE00
001FFE00
001FFE00
001FFE00
001FFE00
001FFF00
001FFF80
001FFFFD
001FFFFF
001FFFFF
001FFFFF
001FFFFF
000FFFFF
000FFFFF
0007FFFF
0001FFFF
00007FFF
000007FF
ENDCHAR
STARTCHAR 007C
ENCODING 124
SWIDTH 495 0
DWIDTH 44 0
BBX 10 89 17 -21
BITMAP
FFC0
FFC0
FFC0
FFC0
FFC0
FFC0
FFC0
FFC0
FFC0
FFC0
FFC0
FFC0
FFC0
FFC0
FFC0
FFC0
FFC0
FFC0
FFC0
FFC0
FFC0
FFC0
FFC0
FFC0
FFC0
FFC0
FFC0
FFC0
FFC0
FFC0
FFC0
FFC0
FFC0
FFC0
FFC0
FFC0
FFC0
FFC0
FFC0
FFC0
FFC0
FFC0
FFC0
FFC0
FFC0
FFC0
FFC0
FFC0
FFC0
FFC0
FFC0
FFC0
FFC0
FFC0
FFC0
FFC0
FFC0
FFC0
FFC0
FFC0
FFC0
FFC0
FFC0
FFC0
FFC0
FFC0
FFC0
FFC0
FFC0
FFC0
FFC0
FFC0
FFC0
FFC0
FFC0
FFC0
FFC0
FFC0
FFC0
FFC0
FFC0
FFC0
FFC0
FFC0
FFC0
FFC0
FFC0
FFC0
FFC0
ENDCHAR
STARTCHAR 007D
ENCODING 125
SWIDTH 495 0
DWIDTH 44 0
BBX 32 82 6 -18
BITMAP
FFE00000
FFFE0000
FFFF8000
FFFFC000
FFFFE000
FFFFF000
FFFFF000
FFFFF000
FFFFF800
FFFFF800
0FFFF800
01FFF800
00FFF800
00FFF800
00FFF800
007FF800
007FF800
007FF800
007FF800
007FF800
007FF800
007FF800
007FF800
007FF800
007FF800
007FF800
007FF800
007FF800
007FF800
007FF800
007FFC00
007FFC00
007FFC00
007FFE00
007FFF00
003FFFE0
003FFFFF
001FFFFF
000FFFFF
0007FFFF
0000FFFF
0000FFFF
0007FFFF
000FFFFF
001FFFFF
003FFFFF
003FFFE0
007FFF00
007FFE00
007FFC00
007FFC00
007FFC00
007FF800
007FF800
007FF800
007FF800
007FF800
007FF800
007FF800
007FF800
007FF800
007FF800
007FF800
007FF800
007FF800
007FF800
007FF800
00FFF800
00FFF800
00FFF800
01FFF800
BFFFF800
FFFFF800
FFFFF800
FFFFF000
FFFFF000
FFFFF000
FFFFE000
FFFFC000
FFFF8000
FFFE0000
FFE00000
ENDCHAR
STARTCHAR 007E
ENCODING 126
SWIDTH 832 0
DWIDTH 74 0
BBX 58 17 8 18
BITMAP
0001E00000000040
003FFF80000001C0
01FFFFF0000003C0
07FFFFFE00000FC0
1FFFFFFFC0003FC0
7FFFFFFFFC03FFC0
FFFFFFFFFFFFFFC0
FFFFFFFFFFFFFFC0
FFFFFFFFFFFFFFC0
FFFFFFFFFFFFFFC0
FFFFFFFFFFFFFFC0
FFE003FFFFFFFF80
FF80003FFFFFFE00
FC000003FFFFF800
F00000007FFFE000
E00000000FFF0000
8000000000000000
ENDCHAR
STARTCHAR 0080
ENCODING 128
SWIDTH 562 0
DWIDTH 50 0
BBX 47 62 1 0
BITMAP
000000003FFE
00000007FFFE
0000003FFFFE
000001FFFFFE
000007FFFFFE
00000FFFFFFE
00003FFFFFFE
00007FFFFFFE
0000FFFFFFFE
0001FFFFFFFE
0003FFFFFFFE
0007FFFFFFFE
000FFFFFFFFE
000FFFFFFFE0
001FFFFF8000
003FFFFC0000
003FFFF00000
003FFFE00000
007FFFC00000
007FFF800000
00FFFF800000
00FFFF000000
7FFFFFFFFFF0
FFFFFFFFFFE0
FFFFFFFFFFE0
FFFFFFFFFFE0
FFFFFFFFFFC0
01FFFC000000
01FFFC000000
01FFFC000000
01FFFC000000
01FFFC000000
01FFFC000000
7FFFFFFFFF80
FFFFFFFFFF00
FFFFFFFFFF00
FFFFFFFFFF00
FFFFFFFFFF00
00FFFE000000
00FFFF000000
00FFFF000000
00FFFF800000
007FFF800000
007FFFC00000
007FFFE00000
003FFFF80000
003FFFFE0000
001FFFFFC000
001FFFFFFFFE
000FFFFFFFFE
0007FFFFFFFE
0007FFFFFFFE
0003FFFFFFFE
0001FFFFFFFE
00007FFFFFFE
00003FFFFFFE
00001FFFFFFE
000007FFFFFE
000001FFFFFE
0000003FFFFE
00000007FFFE
000000003FFE
ENDCHAR
STARTCHAR 00A0
ENCODING 160
SWIDTH 562 0
DWIDTH 50 0
BBX 0 0 0 0
BITMAP
ENDCHAR
STARTCHAR 00A1
ENCODING 161
SWIDTH 326 0
DWIDTH 29 0
BBX 17 63 6 0
BITMAP
07F000
1FFC00
3FFE00
7FFF00
7FFF80
FFFF80
FFFF80
FFFF80
FFFF80
FFFF80
FFFF80
FFFF80
7FFF80
7FFF00
3FFE00
1FFC00
07F800
000000
000000
000000
000000
7FFF00
7FFF00
7FFF00
7FFF00
7FFF00
7FFF00
7FFF00
7FFF00
7FFF00
7FFF00
7FFF00
7FFF00
7FFF00
7FFF00
7FFF00
7FFF00
7FFF00
7FFF00
7FFF00
7FFF00
7FFF00
7FFF00
7FFF00
7FFF00
7FFF00
7FFF00
7FFF00
7FFF00
7FFF00
7FFF00
7FFF00
7FFF00
7FFF80
7FFF80
FFFF80
FFFF80
FFFF80
FFFF80
FFFF80
FFFF80
FFFF80
FFFF80
ENDCHAR
STARTCHAR 00A2
ENCODING 162
SWIDTH 562 0
DWIDTH 50 0
BBX 29 61 10 0
BITMAP
0001FE00
0001FE00
0001FE00
0001FE00
0001FE00
0001FE00
0001FE00
0001FE00
0001FE00
0001FE00
0001FE00
0001FE00
003FFFF8
00FFFFF8
03FFFFF8
07FFFFF8
0FFFFFF8
1FFFFFF8
1FFFFFF8
3FFFFFF8
3FFFFFF8
7FFFFFF8
7FFFFFF8
FFFF0000
FFFC0000
FFF80000
FFF00000
FFF00000
FFF00000
FFF00000
FFF00000
FFF00000
FFF00000
FFF00000
FFF80000
FFFC0000
FFFF0000
7FFFFFF8
7FFFFFF8
7FFFFFF8
3FFFFFF8
1FFFFFF8
1FFFFFF8
0FFFFFF8
07FFFFF8
03FFFFF8
00FFFFF8
003FFFF8
0003FFF8
0001FE00
0001FE00
0001FE00
0001FE00
0001FE00
0001FE00
0001FE00
0001FE00
0001FE00
0001FE00
0001FE00
0001FE00
ENDCHAR
STARTCHAR 00A3
ENCODING 163
SWIDTH 562 0
DWIDTH 50 0
BBX 48 63 1 0
BITMAP
000007FFC000
00001FFFF800
00007FFFF800
0001FFFFF800
0003FFFFF800
0007FFFFF800
000FFFFFF800
000FFFFFF800
001FFFFFF800
001FFFFFF800
003FFFFFF800
003FFFFFF800
007FFFFFF800
007FFFFFF800
007FFFE00000
007FFF800000
007FFF000000
007FFF000000
00FFFE000000
00FFFE000000
00FFFE000000
00FFFE000000
1FFFFFFC0000
1FFFFFFC0000
1FFFFFFC0000
1FFFFFFC0000
1FFFFFFC0000
1FFFFFFC0000
1FFFFFFC0000
1FFFFFFC0000
1FFFFFFC0000
1FFFFFFC0000
1FFFFFFC0000
1FFFFFFC0000
1FFFFFFC0000
1FFFFFFC0000
00FFFE003FFF
00FFFE003FFF
00FFFE003FFF
00FFFE003FFF
00FFFE003FFF
00FFFE007FFF
00FFFE007FFF
01FFFC007FFF
01FFFC00FFFF
01FFF800FFFE
03FFF803FFFE
07FFF007FFFE
3FFFC0FFFFFE
FFFFFFFFFFFC
FFFFFFFFFFFC
FFFFFFFFFFFC
FFFFFFFFFFF8
FFFFFFFFFFF8
FFFFFFFFFFF0
FFFFFFFFFFE0
FFFFFFFFFFE0
FFFFFFFFFFC0
FFFFFFFFFF80
FFFFFFFFFE00
FFFFFFFFFC00
FFFFFFFFF000
FFFFFFFF0000
ENDCHAR
STARTCHAR 00A4
ENCODING 164
SWIDTH 562 0
DWIDTH 50 0
BBX 47 62 1 0
BITMAP
000000003FFE
00000007FFFE
0000003FFFFE
000001FFFFFE
000007FFFFFE
00000FFFFFFE
00003FFFFFFE
00007FFFFFFE
0000FFFFFFFE
0001FFFFFFFE
0003FFFFFFFE
0007FFFFFFFE
000FFFFFFFFE
000FFFFFFFE0
001FFFFF8000
003FFFFC0000
003FFFF00000
003FFFE00000
007FFFC00000
007FFF800000
00FFFF800000
00FFFF000000
7FFFFFFFFFF0
FFFFFFFFFFE0
FFFFFFFFFFE0
FFFFFFFFFFE0
FFFFFFFFFFC0
01FFFC000000
01FFFC000000
01FFFC000000
01FFFC000000
01FFFC000000
01FFFC000000
7FFFFFFFFF80
FFFFFFFFFF00
FFFFFFFFFF00
FFFFFFFFFF00
FFFFFFFFFF00
00FFFE000000
00FFFF000000
00FFFF000000
00FFFF800000
007FFF800000
007FFFC00000
007FFFE00000
003FFFF80000
003FFFFE0000
001FFFFFC000
001FFFFFFFFE
000FFFFFFFFE
0007FFFFFFFE
0007FFFFFFFE
0003FFFFFFFE
0001FFFFFFFE
00007FFFFFFE
00003FFFFFFE
00001FFFFFFE
000007FFFFFE
000001FFFFFE
0000003FFFFE
00000007FFFE
000000003FFE
ENDCHAR
STARTCHAR 00A5
ENCODING 165
SWIDTH 585 0
DWIDTH 52 0
BBX 51 62 1 0
BITMAP
FFFC000007FFE0
FFFC00000FFFC0
7FFE00000FFFC0
7FFE00001FFFC0
3FFF00001FFF80
3FFF00001FFF80
3FFF00003FFF00
1FFF80003FFF00
1FFF80007FFE00
0FFFC0007FFE00
0FFFC0007FFC00
07FFC000FFFC00
07FFE000FFF800
03FFE001FFF800
03FFF001FFF800
01FFF001FFF000
01FFF003FFF000
FFFFF803FFFFE0
FFFFF807FFFFE0
FFFFFC07FFFFE0
FFFFFC07FFFFE0
FFFFFC0FFFFFE0
FFFFFE0FFFFFE0
FFFFFE1FFFFFE0
001FFF1FFF0000
001FFF3FFF0000
000FFF3FFE0000
000FFFBFFE0000
000FFFFFFC0000
FFFFFFFFFFFFE0
FFFFFFFFFFFFE0
FFFFFFFFFFFFE0
FFFFFFFFFFFFE0
FFFFFFFFFFFFE0
FFFFFFFFFFFFE0
FFFFFFFFFFFFE0
0000FFFFE00000
00007FFFC00000
00007FFFC00000
00007FFF800000
00003FFF800000
00003FFF000000
00003FFF000000
00003FFF000000
00003FFF000000
00003FFF000000
00003FFF000000
00003FFF000000
00003FFF000000
00003FFF000000
00003FFF000000
00003FFF000000
00003FFF000000
00003FFF000000
00003FFF000000
00003FFF000000
00003FFF000000
00003FFF000000
00003FFF000000
00003FFF000000
00003FFF000000
00003FFF000000
ENDCHAR
STARTCHAR 00A6
ENCODING 166
SWIDTH 495 0
DWIDTH 44 0
BBX 10 77 17 -15
BITMAP
FFC0
FFC0
FFC0
FFC0
FFC0
FFC0
FFC0
FFC0
FFC0
FFC0
FFC0
FFC0
FFC0
FFC0
FFC0
FFC0
FFC0
FFC0
FFC0
FFC0
FFC0
FFC0
FFC0
FFC0
FFC0
FFC0
FFC0
FFC0
FFC0
FFC0
FFC0
FFC0
FFC0
0000
0000
0000
0000
0000
0000
0000
0000
0000
0000
0000
FFC0
FFC0
FFC0
FFC0
FFC0
FFC0
FFC0
FFC0
FFC0
FFC0
FFC0
FFC0
FFC0
FFC0
FFC0
FFC0
FFC0
FFC0
FFC0
FFC0
FFC0
FFC0
FFC0
FFC0
FFC0
FFC0
FFC0
FFC0
FFC0
FFC0
FFC0
FFC0
FFC0
ENDCHAR
STARTCHAR 00A7
ENCODING 167
SWIDTH 528 0
DWIDTH 47 0
BBX 38 69 6 -7
BITMAP
001FFFFF80
00FFFFFF80
03FFFFFF80
0FFFFFFF80
1FFFFFFF80
3FFFFFFF80
3FFFFFFF80
7FFFFFFF80
7FFFFFFF80
FFFFFFFF80
FFFFFFFF80
FFFFFFFF80
FFFFFFFF80
FFFFC00000
FFFE000000
FFFE000000
FFFE000000
FFFE000000
7FFF000000
7FFF800000
3FFFE00000
1FFFF80000
1FFFFE0000
0FFFFF8000
1FFFFFE000
3FFFFFF800
7FFFFFFE00
7FFFFFFF00
FFFFFFFF80
FFFFFFFFC0
FFF07FFFE0
FFF01FFFF0
FFF007FFF8
FFF001FFF8
FFFC00FFF8
FFFE007FF8
7FFF807FFC
7FFFF07FFC
3FFFFFFFF8
1FFFFFFFF8
0FFFFFFFF8
03FFFFFFF0
00FFFFFFE0
003FFFFFC0
000FFFFF80
0003FFFF80
0000FFFFC0
00003FFFE0
000007FFF0
000003FFF8
000001FFF8
000001FFF8
000001FFF8
000003FFFC
00003FFFFC
7FFFFFFFFC
7FFFFFFFFC
7FFFFFFFF8
7FFFFFFFF8
7FFFFFFFF8
7FFFFFFFF0
7FFFFFFFF0
7FFFFFFFE0
7FFFFFFFC0
7FFFFFFF80
7FFFFFFF00
7FFFFFF800
7FFFFFC000
7FFFC00000
ENDCHAR
STARTCHAR 00A8
ENCODING 168
SWIDTH 495 0
DWIDTH 44 0
BBX 26 11 9 52
BITMAP
3F803F00
7FC07F80
7FE0FFC0
FFE1FFC0
FFE1FFC0
FFE1FFC0
FFE1FFC0
FFE0FFC0
7FC0FF80
3F807F80
0E001C00
ENDCHAR
STARTCHAR 00A9
ENCODING 169
SWIDTH 832 0
DWIDTH 74 0
BBX 64 64 5 0
BITMAP
000000FFFF000000
000007FFFFF00000
00003FFFFFFC0000
0000FFFFFFFF0000
0001FFFFFFFFC000
0007FFFE7FFFE000
000FFF0000FFF000
001FFC00001FF800
003FF0000007FE00
007FC0000003FF00
00FF00000000FF00
01FE000000007F80
03FC000000003FC0
07F8003FFC001FE0
07F000FFFF800FE0
0FE003FFFFC007F0
1FC007FFFFF003F8
1FC00FFFFFF803F8
3F801FFFFFFC01FC
3F803FFC3FFC00FC
3F007FF00FFE00FC
7F007FE007FE00FE
7E00FFC003FF007E
7E00FFC003FF007E
FE01FF8001FF003F
FC01FF800000003F
FC01FF800000003F
FC01FF800000003F
FC01FF800000003F
FC03FF000000003F
FC03FF000000001F
FC03FF000000001F
FC03FF000000001F
FC03FF000000003F
FC03FF000000003F
FC01FF800000003F
FC01FF800000003F
FC01FF800000003F
FC01FF8001FF003F
FE01FFC001FF003F
7E00FFC003FF007E
7E00FFE003FF007E
7F007FE007FE00FE
3F007FF80FFE00FC
3F803FFFFFFC00FC
3F801FFFFFFC01FC
1FC01FFFFFF803F8
1FE00FFFFFF003F8
0FE003FFFFC007F0
07F000FFFF800FE0
07F8003FFC001FE0
03FC000000003FC0
01FE000000007F80
00FF80000000FF00
007FC0000003FE00
003FF0000007FE00
001FFC00003FF800
000FFF8000FFF000
0007FFFFFFFFE000
0001FFFFFFFF8000
0000FFFFFFFE0000
00003FFFFFFC0000
000007FFFFE00000
000000FFFF000000
ENDCHAR
STARTCHAR 00AA
ENCODING 170
SWIDTH 416 0
DWIDTH 37 0
BBX 33 32 2 31
BITMAP
0007F00000
007FFE0000
01FFFF8000
03FFFFE000
0FFFFFF000
0FFFFFF800
1FFFFFFC00
3FFFFFFC00
7FFFFFFE00
7FFFFFFE00
FFFC1FFF00
FFF007FF00
FFE007FF00
FFE003FF80
FFC003FF80
FFC003FF80
FFC003FF80
FFC003FF80
FFC003FF80
FFE003FF80
FFF003FF80
FFF803FF80
7FFFFBFF80
7FFFFBFF80
3FFFFBFF80
3FFFFBFF80
1FFFFBFF80
0FFFFBFF80
07FFFBFF80
01FFFBFF80
007FFBFF80
001FFBFF80
ENDCHAR
STARTCHAR 00AB
ENCODING 171
SWIDTH 540 0
DWIDTH 48 0
BBX 39 28 5 8
BITMAP
001FF80FFE
003FF00FFC
007FE01FF8
00FFC03FF0
00FFC07FE0
01FF80FFE0
03FF00FFC0
07FE01FF80
0FFC03FF00
0FFC07FE00
1FF80FFE00
3FF00FFC00
7FE01FF800
FFC03FF000
7FE03FF000
7FE01FF800
3FF00FFC00
1FF807FE00
0FFC07FE00
0FFC03FF00
07FE01FF80
03FF00FFC0
01FF80FFE0
00FFC07FE0
00FFC03FF0
007FE01FF8
003FF00FFC
001FF80FFE
ENDCHAR
STARTCHAR 00AC
ENCODING 172
SWIDTH 832 0
DWIDTH 74 0
BBX 52 22 11 16
BITMAP
FFFFFFFFFFFFF0
FFFFFFFFFFFFF0
FFFFFFFFFFFFF0
FFFFFFFFFFFFF0
FFFFFFFFFFFFF0
FFFFFFFFFFFFF0
FFFFFFFFFFFFF0
FFFFFFFFFFFFF0
FFFFFFFFFFFFF0
FFFFFFFFFFFFF0
00000000003FF0
00000000003FF0
00000000003FF0
00000000003FF0
00000000003FF0
00000000003FF0
00000000003FF0
00000000003FF0
00000000003FF0
00000000003FF0
00000000003FF0
00000000003FF0
ENDCHAR
STARTCHAR 00AD
ENCODING 173
SWIDTH 326 0
DWIDTH 29 0
BBX 23 12 3 16
BITMAP
FFFFFE
FFFFFE
FFFFFE
FFFFFE
FFFFFE
FFFFFE
FFFFFE
FFFFFE
FFFFFE
FFFFFE
FFFFFE
FFFFFE
ENDCHAR
STARTCHAR 00AE
ENCODING 174
SWIDTH 832 0
DWIDTH 74 0
BBX 64 64 5 0
BITMAP
000000FFFF000000
000007FFFFF00000
00003FFFFFFC0000
0000FFFFFFFF0000
0001FFFFFFFFC000
0007FFFE7FFFE000
000FFF0000FFF000
001FF800001FF800
003FE0000007FE00
007FC0000003FF00
00FF00000000FF00
01FE000000007F80
03FC000000003FC0
07F8000000001FE0
07F03FFFFF800FF0
0FE03FFFFFE007F0
1FC03FFFFFF803F8
1FC03FFFFFFC03F8
3F803FFFFFFE01FC
3F803FFFFFFE00FC
3F003FF00FFF00FC
7F003FF007FF00FE
7E003FF003FF007E
7E003FF003FF007E
FE003FF003FF003F
FC003FF003FF003F
FC003FF003FF003F
FC003FF007FE003F
FC003FF01FFE003F
FC003FFFFFFC003F
FC003FFFFFFC001F
FC003FFFFFF0001F
FC003FFFFFE0001F
FC003FFFFF00003F
FC003FFFFF80003F
FC003FF1FFC0003F
FC003FF0FFC0003F
FC003FF0FFE0003F
FC003FF07FE0003F
FE003FF07FF0003F
7E003FF03FF0007E
7E003FF03FF8007E
7F003FF03FF800FE
3F003FF01FFC00FC
3F803FF01FFC00FC
3F803FF00FFE01FC
1FC03FF00FFE03F8
0FE03FF007FF03F8
0FE03FF007FF07F0
07F0000000000FE0
07F8000000001FE0
03FC000000003FC0
01FE000000007F80
00FF80000000FF00
007FC0000003FE00
003FF000000FFC00
001FFC00003FF800
000FFF8001FFF000
0007FFFFFFFFE000
0001FFFFFFFF8000
00007FFFFFFE0000
00003FFFFFF80000
000007FFFFE00000
000000FFFF000000
ENDCHAR
STARTCHAR 00AF
ENCODING 175
SWIDTH 495 0
DWIDTH 44 0
BBX 25 7 10 53
BITMAP
FFFFFF80
FFFFFF80
FFFFFF80
FFFFFF80
FFFFFF80
FFFFFF80
FFFFFF80
ENDCHAR
STARTCHAR 00B0
ENCODING 176
SWIDTH 326 0
DWIDTH 29 0
BBX 27 27 1 37
BITMAP
000E0000
00FFE000
03FFF800
07FFFC00
0FFFFE00
1FFFFF00
3FFFFF80
3FC07FC0
7F803FC0
7F001FC0
7E000FE0
FE000FE0
FE0007E0
FC0007E0
FC0007E0
FE0007E0
FE000FE0
7E000FE0
7F001FC0
7F803FC0
3FE0FF80
3FFFFF80
1FFFFF00
0FFFFE00
07FFFC00
01FFF800
007FC000
ENDCHAR
STARTCHAR 00B1
ENCODING 177
SWIDTH 832 0
DWIDTH 74 0
BBX 52 55 11 -1
BITMAP
000007FE000000
000007FE000000
000007FE000000
000007FE000000
000007FE000000
000007FE000000
000007FE000000
000007FE000000
000007FE000000
000007FE000000
000007FE000000
000007FE000000
000007FE000000
000007FE000000
FFFFFFFFFFFFF0
FFFFFFFFFFFFF0
FFFFFFFFFFFFF0
FFFFFFFFFFFFF0
FFFFFFFFFFFFF0
FFFFFFFFFFFFF0
FFFFFFFFFFFFF0
FFFFFFFFFFFFF0
FFFFFFFFFFFFF0
FFFFFFFFFFFFF0
000007FE000000
000007FE000000
000007FE000000
000007FE000000
000007FE000000
000007FE000000
000007FE000000
000007FE000000
000007FE000000
000007FE000000
000007FE000000
000007FE000000
000007FE000000
000007FE000000
00000000000000
00000000000000
00000000000000
00000000000000
00000000000000
00000000000000
00000000000000
FFFFFFFFFFFFF0
FFFFFFFFFFFFF0
FFFFFFFFFFFFF0
FFFFFFFFFFFFF0
FFFFFFFFFFFFF0
FFFFFFFFFFFFF0
FFFFFFFFFFFFF0
FFFFFFFFFFFFF0
FFFFFFFFFFFFF0
FFFFFFFFFFFFF0
ENDCHAR
STARTCHAR 00B2
ENCODING 178
SWIDTH 371 0
DWIDTH 33 0
BBX 27 38 3 25
BITMAP
003F8000
01FFF000
07FFFC00
0FFFFE00
1FFFFF00
3FFFFF80
7FFFFFC0
7FFFFFC0
FFFBFFC0
FFC0FFE0
FFC07FE0
FF807FE0
FF807FE0
FFC0FFE0
FFE0FFC0
FFF1FFC0
7FE3FF80
7F87FF80
3F0FFF00
1E1FFE00
0C3FFE00
007FFC00
00FFF800
01FFF000
03FFC000
0FFF8000
1FFF0000
3FFE0000
3FFC0000
7FFFFFE0
FFFFFFE0
FFFFFFE0
FFFFFFE0
FFFFFFE0
FFFFFFE0
FFFFFFE0
7FFFFFE0
3FFFFFE0
ENDCHAR
STARTCHAR 00B3
ENCODING 179
SWIDTH 371 0
DWIDTH 33 0
BBX 27 37 3 25
BITMAP
7FFFFC00
7FFFFF00
7FFFFF80
7FFFFF80
7FFFFFC0
7FFFFFC0
7FFFFFC0
7FFFFFC0
0003FF80
0007FF00
000FFE00
001FFC00
003FF800
00FFF000
01FFE000
03FFF000
03FFFE00
03FFFF00
03FFFF80
03FFFFC0
03FFFFE0
0001FFE0
00007FE0
00003FE0
00003FE0
00003FE0
00007FE0
00007FE0
FFFFFFE0
FFFFFFE0
FFFFFFC0
FFFFFFC0
FFFFFF80
FFFFFF00
FFFFFE00
FFFFFC00
FFFFE000
ENDCHAR
STARTCHAR 00B4
ENCODING 180
SWIDTH 495 0
DWIDTH 44 0
BBX 19 16 16 49
BITMAP
01FFE0
01FFC0
03FF80
03FF00
07FE00
07FC00
0FFC00
0FF800
1FF000
1FE000
3FC000
3F8000
7F0000
7F0000
FE0000
FC0000
ENDCHAR
STARTCHAR 00B5
ENCODING 181
SWIDTH 641 0
DWIDTH 57 0
BBX 57 66 -2 -19
BITMAP
003FFFC0007FFF80
003FFFC0007FFF00
003FFFC0007FFF00
003FFF80007FFF00
003FFF8000FFFF00
007FFF8000FFFF00
007FFF8000FFFF00
007FFF8000FFFE00
007FFF8000FFFE00
007FFF0000FFFE00
007FFF0001FFFE00
007FFF0001FFFE00
00FFFF0001FFFE00
00FFFF0001FFFC00
00FFFF0001FFFC00
00FFFF0001FFFC00
00FFFE0001FFFC00
00FFFE0003FFFC00
01FFFE0003FFFC00
01FFFE0003FFFC00
01FFFE0003FFF800
01FFFE0003FFF800
01FFFC0003FFF800
01FFFC0007FFF800
03FFFC0007FFF800
03FFFC0007FFF800
03FFFC0007FFF000
03FFFC0007FFF000
03FFFC000FFFF000
03FFFC000FFFF000
03FFFC000FFFF000
07FFFC001FFFF000
07FFFC003FFFE000
07FFFE003FFFE000
07FFFF007FFFE000
07FFFF81FFFFE000
07FFFFFFFFFFE000
0FFFFFFFFFFFE000
0FFFFFFFFFFFC000
0FFFFFFFFFFFC000
0FFFFFFFFFFFC000
0FFFFFFFFFFFC000
0FFFFFFFEFFFC000
1FFFFFFFEFFFC000
1FFFEFFFCFFFC000
1FFFC7FF9FFF8000
1FFFC3FE1FFF8000
1FFFC07000000000
1FFFC00000000000
1FFFC00000000000
3FFFC00000000000
3FFFC00000000000
3FFF800000000000
3FFF800000000000
3FFF800000000000
3FFF800000000000
7FFF800000000000
7FFF800000000000
7FFF000000000000
7FFF000000000000
7FFF000000000000
7FFF000000000000
7FFF000000000000
FFFF000000000000
FFFF000000000000
FFFE000000000000
ENDCHAR
STARTCHAR 00B6
ENCODING 182
SWIDTH 495 0
DWIDTH 44 0
BBX 42 64 1 0
BITMAP
001FFFFFFFC0
007FFFFFFFC0
01FFFFFFFFC0
07FFFFFFFFC0
0FFFFFFFFFC0
1FFFFF03FC00
1FFFFF03FC00
3FFFFF03FC00
7FFFFF03FC00
7FFFFF03FC00
7FFFFF03FC00
7FFFFF03FC00
FFFFFF03FC00
FFFFFF03FC00
FFFFFF03FC00
FFFFFF03FC00
FFFFFF03FC00
FFFFFF03FC00
7FFFFF03FC00
7FFFFF03FC00
7FFFFF03FC00
3FFFFF03FC00
3FFFFF03FC00
1FFFFF03FC00
1FFFFF03FC00
0FFFFF03FC00
03FFFF03FC00
01FFFF03FC00
007FFF03FC00
000FFF03FC00
0000FF03FC00
0000FF03FC00
0000FF03FC00
0000FF03FC00
0000FF03FC00
0000FF03FC00
0000FF03FC00
0000FF03FC00
0000FF03FC00
0000FF03FC00
0000FF03FC00
0000FF03FC00
0000FF03FC00
0000FF03FC00
0000FF03FC00
0000FF03FC00
0000FF03FC00
0000FF03FC00
0000FF03FC00
0000FF03FC00
0000FF03FC00
0000FF03FC00
0000FF03FC00
0000FF03FC00
0000FF03FC00
0000FF03FC00
0000FF03FC00
0000FF03FC00
0000FF03FC00
0000FF03FC00
0000FF03FC00
0000FF03FC00
0000FF03FC00
0000FF03FC00
ENDCHAR
STARTCHAR 00B7
ENCODING 183
SWIDTH 281 0
DWIDTH 25 0
BBX 17 18 4 23
BITMAP
03E000
0FF800
1FFE00
3FFE00
7FFF00
FFFF80
FFFF80
FFFF80
FFFF80
FFFF80
FFFF80
FFFF80
FFFF80
7FFF00
7FFF00
3FFE00
0FFC00
03E000
ENDCHAR
STARTCHAR 00B8
ENCODING 184
SWIDTH 495 0
DWIDTH 44 0
BBX 23 26 12 -21
BITMAP
003E00
003C00
003C00
003C00
007C00
007C00
007800
007800
007800
00FFC0
00FFF0
00FFF8
00FFFC
01FFFE
0003FE
0001FE
0000FE
0000FE
0001FE
F001FE
FFFFFE
FFFFFC
FFFFFC
FFFFF8
3FFFE0
00FF00
ENDCHAR
STARTCHAR 00B9
ENCODING 185
SWIDTH 371 0
DWIDTH 33 0
BBX 16 37 8 25
BITMAP
FFFF
FFFF
FFFF
FFFF
FFFF
FFFF
FFFF
FFFF
03FF
03FF
03FF
03FF
03FF
03FF
03FF
03FF
03FF
03FF
03FF
03FF
03FF
03FF
03FF
03FF
03FF
03FF
03FF
03FF
03FF
03FF
03FF
03FF
03FF
03FF
03FF
03FF
03FF
ENDCHAR
STARTCHAR 00BA
ENCODING 186
SWIDTH 405 0
DWIDTH 36 0
BBX 33 32 2 31
BITMAP
0007F00000
003FFE0000
00FFFF8000
03FFFFE000
07FFFFF000
0FFFFFF800
1FFFFFFC00
3FFFFFFC00
3FFFFFFE00
7FFFFFFF00
7FFC1FFF00
FFF00FFF00
FFE007FF80
FFE003FF80
FFE003FF80
FFC003FF80
FFC003FF80
FFC003FF80
FFE003FF80
FFE007FF80
FFF007FF00
7FF81FFF00
7FFFFFFF00
7FFFFFFE00
3FFFFFFE00
1FFFFFFC00
0FFFFFF800
07FFFFF000
03FFFFE000
01FFFFC000
007FFF0000
001FF80000
ENDCHAR
STARTCHAR 00BB
ENCODING 187
SWIDTH 540 0
DWIDTH 48 0
BBX 38 28 5 8
BITMAP
FFC07FE000
FFC03FF000
7FE01FF800
3FF00FFC00
1FF807FC00
0FFC07FE00
0FFC03FF00
07FE01FF80
03FF00FFC0
01FF807FC0
00FFC07FE0
00FFC03FF0
007FE01FF8
003FF00FFC
003FF00FFC
007FE01FF8
00FFC03FF0
00FFC07FE0
01FF80FFC0
03FF00FFC0
07FE01FF80
0FFC03FF00
0FFC07FE00
1FF807FC00
3FF00FFC00
7FE01FF800
FFC03FF000
FFC07FE000
ENDCHAR
STARTCHAR 00BC
ENCODING 188
SWIDTH 877 0
DWIDTH 78 0
BBX 69 62 8 0
BITMAP
FFFE0000000FF80000
FFFE0000000FF00000
FFFE0000001FF00000
FFFE0000003FE00000
FFFE0000003FE00000
FFFE0000007FC00000
FFFE0000007F800000
FFFE000000FF800000
03FE000000FF000000
03FE000001FF000000
03FE000003FE000000
03FE000003FE000000
03FE000007FC000000
03FE000007F8000000
03FE00000FF8000000
03FE00000FF0000000
03FE00001FF0000000
03FE00003FE0000000
03FE00003FE0000000
03FE00007FC0000000
03FE00007F80000000
03FE0000FF80000000
03FE0000FF00000000
03FE0001FF00000000
03FE0003FE00000000
03FE0003FE00000000
03FE0007FC00000000
03FE0007F8000FFD00
03FE000FF8000FF900
03FE001FF0001FF300
03FE001FF0003FF300
03FE003FE0003FE700
03FE003FC0007FCF00
03FE007FC0007FCF00
03FE007F8000FF9F00
000000FF8001FF1F00
000001FF0001FF3F00
000001FF0003FE7F00
000003FE0007FC7F00
000003FC0007FCFF00
000007FC000FF8FF00
000007F8000FF8FF00
00000FF8001FF0FF00
00001FF0003FE0FF00
00001FF0003FE0FF00
00003FE0007FC0FF00
00003FC0007F80FF00
00007FC000FFFFFFF8
00007F8000FFFFFFF8
0000FF8000FFFFFFF8
0001FF0000FFFFFFF8
0001FF0000FFFFFFF8
0003FE00007FFFFFF8
0003FC00003FFFFFF8
0007FC00000FFFFFF8
0007F800000000FF00
000FF800000000FF00
001FF000000000FF00
001FF000000000FF00
003FE000000000FF00
003FC000000000FF00
007FC000000000FF00
ENDCHAR
STARTCHAR 00BD
ENCODING 189
SWIDTH 877 0
DWIDTH 78 0
BBX 68 62 8 0
BITMAP
FFFE0000000FF80000
FFFE0000000FF00000
FFFE0000001FF00000
FFFE0000003FE00000
FFFE0000003FE00000
FFFE0000007FC00000
FFFE0000007F800000
FFFE000000FF800000
03FE000000FF000000
03FE000001FF000000
03FE000003FE000000
03FE000003FE000000
03FE000007FC000000
03FE000007F8000000
03FE00000FF8000000
03FE00000FF0000000
03FE00001FF0000000
03FE00003FE0000000
03FE00003FE0000000
03FE00007FC0000000
03FE00007F80000000
03FE0000FF80000000
03FE0000FF00000000
03FE0001FF00000000
03FE0003FE00000000
03FE0003FE00000000
03FE0007FC00000000
03FE0007F8007FF000
03FE000FF801FFFC00
03FE001FF007FFFE00
03FE001FF00FFFFF00
03FE003FE01FFFFF80
03FE003FC03FFFFFC0
03FE007FC03FFFFFC0
03FE007F803FF0FFE0
000000FF807FE07FE0
000001FF007FC07FE0
000001FF007FC03FE0
000003FE007FE07FE0
000003FC007FE07FE0
000007FC003FF0FFC0
000007F8003FF1FFC0
00000FF8003FE3FF80
00001FF0001FC7FF00
00001FF0000F8FFF00
00003FE000061FFE00
00003FC000003FFC00
00007FC00000FFF800
00007F800001FFF000
0000FF800003FFE000
0001FF000007FF8000
0001FF00000FFF0000
0003FE00001FFE0000
0003FC00003FFC0000
0007FC00003FFFFFF0
0007F800007FFFFFF0
000FF800007FFFFFF0
001FF000007FFFFFF0
001FF000007FFFFFF0
003FE000007FFFFFF0
003FC000003FFFFFF0
007FC000000FFFFFF0
ENDCHAR
STARTCHAR 00BE
ENCODING 190
SWIDTH 877 0
DWIDTH 78 0
BBX 74 62 3 0
BITMAP
FFFFF00000007FC00000
FFFFFE0000007F800000
FFFFFF000000FF800000
FFFFFF000001FF000000
FFFFFF000001FF000000
FFFFFF000003FE000000
FFFFFF000003FC000000
FFFFFF000007FC000000
0007FF000007F8000000
000FFE00000FF8000000
001FF800001FF0000000
007FF000001FF0000000
00FFE000003FE0000000
01FFC000003FC0000000
03FFE000007FC0000000
07FFFC00007F80000000
07FFFE0000FF80000000
07FFFF0001FF00000000
07FFFF8001FF00000000
07FFFF8003FE00000000
0001FFC003FC00000000
0000FFC007FC00000000
00007FC007F800000000
00007FC00FF800000000
00007FC01FF000000000
0000FFC01FF000000000
0007FFC03FE000000000
FFFFFF803FC0007FE800
FFFFFF807FC0007FC800
FFFFFF80FF8000FF9800
FFFFFF00FF8001FF9800
FFFFFE01FF0001FF3800
FFFFFC01FE0003FE7800
FFFFF003FE0003FE7800
FFFF0003FC0007FCF800
00000007FC000FF8F800
0000000FF8000FF9F800
0000000FF8001FF3F800
0000001FF0003FE3F800
0000001FE0003FE7F800
0000003FE0007FC7F800
0000003FC0007FC7F800
0000007FC000FF87F800
000000FF8001FF07F800
000000FF8001FF07F800
000001FF0003FE07F800
000001FE0003FC07F800
000003FE0007FFFFFFC0
000003FC0007FFFFFFC0
000007FC0007FFFFFFC0
00000FF80007FFFFFFC0
00000FF80007FFFFFFC0
00001FF00003FFFFFFC0
00001FE00001FFFFFFC0
00003FE000007FFFFFC0
00003FC000000007F800
00007FC000000007F800
0000FF8000000007F800
0000FF8000000007F800
0001FF0000000007F800
0001FE0000000007F800
0003FE0000000007F800
ENDCHAR
STARTCHAR 00BF
ENCODING 191
SWIDTH 517 0
DWIDTH 46 0
BBX 41 64 3 -1
BITMAP
00003F800000
0000FFC00000
0001FFE00000
0003FFF00000
0007FFF80000
0007FFF80000
000FFFFC0000
000FFFFC0000
000FFFFC0000
000FFFFC0000
000FFFFC0000
0007FFFC0000
0007FFF80000
0003FFF80000
0003FFF00000
0001FFE00000
00007F800000
00000C000000
000000000000
000000000000
000000000000
0003FFF00000
0003FFF00000
0003FFF00000
0003FFF00000
0003FFF00000
0007FFF00000
003FFFF00000
00FFFFF00000
03FFFFF00000
07FFFFF00000
0FFFFFF00000
1FFFFFF00000
1FFFFFF00000
3FFFFFF00000
3FFFFFF00000
7FFFFFF00000
7FFFFFF00000
7FFFFFF00000
FFFFE0000000
FFFF80000000
FFFF00000000
FFFF00000000
FFFE00000000
FFFE00180000
FFFE001F8000
FFFF001FF800
FFFF003FFF80
FFFF807FFF80
7FFFC0FFFF80
7FFFFFFFFF80
7FFFFFFFFF00
3FFFFFFFFF00
3FFFFFFFFE00
1FFFFFFFFE00
1FFFFFFFFC00
0FFFFFFFF800
07FFFFFFF800
03FFFFFFF000
01FFFFFFE000
00FFFFFF8000
003FFFFF0000
000FFFFC0000
0001FFC00000
ENDCHAR
STARTCHAR 00C0
ENCODING 192
SWIDTH 618 0
DWIDTH 55 0
BBX 47 84 4 0
BITMAP
001FFE000000
000FFE000000
0007FF000000
0003FF000000
0001FF800000
0000FF800000
00007FC00000
00007FC00000
00003FE00000
00001FE00000
00000FF00000
000007F00000
000003F80000
000003F80000
000001FC0000
000000FE0000
000000000000
000000000000
000000000000
000000000000
000000000000
00007FFC0000
0003FFFF8000
000FFFFFE000
003FFFFFF800
007FFFFFFC00
00FFFFFFFF00
01FFFFFFFF80
03FFFFFFFF80
07FFFFFFFFC0
07FFFFFFFFE0
0FFFFFFFFFF0
1FFFFFFFFFF0
1FFFFFFFFFF8
3FFFFFFFFFF8
3FFFFFFFFFFC
3FFFF01FFFFC
7FFFE007FFFC
7FFFC003FFFC
7FFF8003FFFE
7FFF0001FFFE
FFFF0001FFFE
FFFF0000FFFE
FFFF0000FFFE
FFFF0000FFFE
FFFF0000FFFE
FFFE3FFFFFFE
FFFE3FFFFFFE
FFFE3FFFFFFE
FFFE3FFFFFFE
FFFE3FFFFFFE
FFFE3FFFFFFE
FFFE3FFFFFFE
FFFE3FFFFFFE
FFFE3FFFFFFE
FFFE3FFFFFFE
FFFE3FFFFFFE
FFFE3FFFFFFE
FFFE3FFFFFFE
FFFE3FFFFFFE
FFFE3FFFFFFE
FFFE0000FFFE
FFFE0000FFFE
FFFE0000FFFE
FFFE0000FFFE
FFFE0000FFFE
FFFE0000FFFE
FFFE0000FFFE
FFFE0000FFFE
FFFE0000FFFE
FFFE0000FFFE
FFFE0000FFFE
FFFE0000FFFE
FFFE0000FFFE
FFFE0000FFFE
FFFE0000FFFE
FFFE0000FFFE
FFFE0000FFFE
FFFE0000FFFE
FFFE0000FFFE
FFFE0000FFFE
FFFE0000FFFE
FFFE0000FFFE
FFFE0000FFFE
ENDCHAR
STARTCHAR 00C1
ENCODING 193
SWIDTH 618 0
DWIDTH 55 0
BBX 47 84 4 0
BITMAP
0000007FF000
0000007FE000
000000FFC000
000001FFC000
000001FF8000
000003FF0000
000003FE0000
000007FC0000
000007F80000
00000FF80000
00000FF00000
00001FE00000
00001FC00000
00003F800000
00003F000000
00007E000000
000000000000
000000000000
000000000000
000000000000
000000000000
00007FFC0000
0003FFFF8000
000FFFFFE000
003FFFFFF800
007FFFFFFC00
00FFFFFFFF00
01FFFFFFFF80
03FFFFFFFF80
07FFFFFFFFC0
07FFFFFFFFE0
0FFFFFFFFFF0
1FFFFFFFFFF0
1FFFFFFFFFF8
3FFFFFFFFFF8
3FFFFFFFFFFC
3FFFF01FFFFC
7FFFE007FFFC
7FFFC003FFFC
7FFF8003FFFE
7FFF0001FFFE
FFFF0001FFFE
FFFF0000FFFE
FFFF0000FFFE
FFFF0000FFFE
FFFF0000FFFE
FFFE3FFFFFFE
FFFE3FFFFFFE
FFFE3FFFFFFE
FFFE3FFFFFFE
FFFE3FFFFFFE
FFFE3FFFFFFE
FFFE3FFFFFFE
FFFE3FFFFFFE
FFFE3FFFFFFE
FFFE3FFFFFFE
FFFE3FFFFFFE
FFFE3FFFFFFE
FFFE3FFFFFFE
FFFE3FFFFFFE
FFFE3FFFFFFE
FFFE0000FFFE
FFFE0000FFFE
FFFE0000FFFE
FFFE0000FFFE
FFFE0000FFFE
FFFE0000FFFE
FFFE0000FFFE
FFFE0000FFFE
FFFE0000FFFE
FFFE0000FFFE
FFFE0000FFFE
FFFE0000FFFE
FFFE0000FFFE
FFFE0000FFFE
FFFE0000FFFE
FFFE0000FFFE
FFFE0000FFFE
FFFE0000FFFE
FFFE0000FFFE
FFFE0000FFFE
FFFE0000FFFE
FFFE0000FFFE
FFFE0000FFFE
ENDCHAR
STARTCHAR 00C2
ENCODING 194
SWIDTH 618 0
DWIDTH 55 0
BBX 47 82 4 0
BITMAP
00003FF80000
00003FFC0000
00007FFC0000
00007FFE0000
0000FFFE0000
0000FFFF0000
0001FFFF0000
0001FEFF8000
0003FC7F8000
0003FC3FC000
0007F81FC000
0007F00FE000
000FE00FE000
000FC007F000
001FC003F800
001F8001F800
000000000000
000000000000
000000000000
00007FFC0000
0003FFFF8000
000FFFFFE000
003FFFFFF800
007FFFFFFC00
00FFFFFFFF00
01FFFFFFFF80
03FFFFFFFF80
07FFFFFFFFC0
07FFFFFFFFE0
0FFFFFFFFFF0
1FFFFFFFFFF0
1FFFFFFFFFF8
3FFFFFFFFFF8
3FFFFFFFFFFC
3FFFF01FFFFC
7FFFE007FFFC
7FFFC003FFFC
7FFF8003FFFE
7FFF0001FFFE
FFFF0001FFFE
FFFF0000FFFE
FFFF0000FFFE
FFFF0000FFFE
FFFF0000FFFE
FFFE3FFFFFFE
FFFE3FFFFFFE
FFFE3FFFFFFE
FFFE3FFFFFFE
FFFE3FFFFFFE
FFFE3FFFFFFE
FFFE3FFFFFFE
FFFE3FFFFFFE
FFFE3FFFFFFE
FFFE3FFFFFFE
FFFE3FFFFFFE
FFFE3FFFFFFE
FFFE3FFFFFFE
FFFE3FFFFFFE
FFFE3FFFFFFE
FFFE0000FFFE
FFFE0000FFFE
FFFE0000FFFE
FFFE0000FFFE
FFFE0000FFFE
FFFE0000FFFE
FFFE0000FFFE
FFFE0000FFFE
FFFE0000FFFE
FFFE0000FFFE
FFFE0000FFFE
FFFE0000FFFE
FFFE0000FFFE
FFFE0000FFFE
FFFE0000FFFE
FFFE0000FFFE
FFFE0000FFFE
FFFE0000FFFE
FFFE0000FFFE
FFFE0000FFFE
FFFE0000FFFE
FFFE0000FFFE
FFFE0000FFFE
ENDCHAR
STARTCHAR 00C3
ENCODING 195
SWIDTH 618 0
DWIDTH 55 0
BBX 47 82 4 0
BITMAP
000000007C00
00000000F800
0000FE00F800
0003FFE3F800
0007FFFFF000
000FFFFFF000
000FFFFFE000
001FFFFFE000
001FFFFFC000
001F01FF8000
003E001C0000
003E00000000
000000000000
000000000000
000000000000
000000000000
000000000000
000000000000
000000000000
00007FFC0000
0003FFFF8000
000FFFFFE000
003FFFFFF800
007FFFFFFC00
00FFFFFFFF00
01FFFFFFFF80
03FFFFFFFF80
07FFFFFFFFC0
07FFFFFFFFE0
0FFFFFFFFFF0
1FFFFFFFFFF0
1FFFFFFFFFF8
3FFFFFFFFFF8
3FFFFFFFFFFC
3FFFF01FFFFC
7FFFE007FFFC
7FFFC003FFFC
7FFF8003FFFE
7FFF0001FFFE
FFFF0001FFFE
FFFF0000FFFE
FFFF0000FFFE
FFFF0000FFFE
FFFF0000FFFE
FFFE3FFFFFFE
FFFE3FFFFFFE
FFFE3FFFFFFE
FFFE3FFFFFFE
FFFE3FFFFFFE
FFFE3FFFFFFE
FFFE3FFFFFFE
FFFE3FFFFFFE
FFFE3FFFFFFE
FFFE3FFFFFFE
FFFE3FFFFFFE
FFFE3FFFFFFE
FFFE3FFFFFFE
FFFE3FFFFFFE
FFFE3FFFFFFE
FFFE0000FFFE
FFFE0000FFFE
FFFE0000FFFE
FFFE0000FFFE
FFFE0000FFFE
FFFE0000FFFE
FFFE0000FFFE
FFFE0000FFFE
FFFE0000FFFE
FFFE0000FFFE
FFFE0000FFFE
FFFE0000FFFE
FFFE0000FFFE
FFFE0000FFFE
FFFE0000FFFE
FFFE0000FFFE
FFFE0000FFFE
FFFE0000FFFE
FFFE0000FFFE
FFFE0000FFFE
FFFE0000FFFE
FFFE0000FFFE
FFFE0000FFFE
ENDCHAR
STARTCHAR 00C4
ENCODING 196
SWIDTH 618 0
DWIDTH 55 0
BBX 47 82 4 0
BITMAP
000000010000
0007F00FE000
000FF81FF000
001FF83FF000
001FFC3FF800
001FFC3FF800
001FFC3FF800
001FFC3FF800
001FF83FF800
000FF81FF000
0007F00FE000
0001C0038000
000000000000
000000000000
000000000000
000000000000
000000000000
000000000000
000000000000
00007FFC0000
0003FFFF8000
000FFFFFE000
003FFFFFF800
007FFFFFFC00
00FFFFFFFF00
01FFFFFFFF80
03FFFFFFFF80
07FFFFFFFFC0
07FFFFFFFFE0
0FFFFFFFFFF0
1FFFFFFFFFF0
1FFFFFFFFFF8
3FFFFFFFFFF8
3FFFFFFFFFFC
3FFFF01FFFFC
7FFFE007FFFC
7FFFC003FFFC
7FFF8003FFFE
7FFF0001FFFE
FFFF0001FFFE
FFFF0000FFFE
FFFF0000FFFE
FFFF0000FFFE
FFFF0000FFFE
FFFE3FFFFFFE
FFFE3FFFFFFE
FFFE3FFFFFFE
FFFE3FFFFFFE
FFFE3FFFFFFE
FFFE3FFFFFFE
FFFE3FFFFFFE
FFFE3FFFFFFE
FFFE3FFFFFFE
FFFE3FFFFFFE
FFFE3FFFFFFE
FFFE3FFFFFFE
FFFE3FFFFFFE
FFFE3FFFFFFE
FFFE3FFFFFFE
FFFE0000FFFE
FFFE0000FFFE
FFFE0000FFFE
FFFE0000FFFE
FFFE0000FFFE
FFFE0000FFFE
FFFE0000FFFE
FFFE0000FFFE
FFFE0000FFFE
FFFE0000FFFE
FFFE0000FFFE
FFFE0000FFFE
FFFE0000FFFE
FFFE0000FFFE
FFFE0000FFFE
FFFE0000FFFE
FFFE0000FFFE
FFFE0000FFFE
FFFE0000FFFE
FFFE0000FFFE
FFFE0000FFFE
FFFE0000FFFE
FFFE0000FFFE
ENDCHAR
STARTCHAR 00C5
ENCODING 197
SWIDTH 618 0
DWIDTH 55 0
BBX 47 85 4 0
BITMAP
00001FF00000
00003FFC0000
0000FFFE0000
0001FFFF0000
0001FFFF8000
0003FFFFC000
0007F81FC000
0007F00FC000
0007E00FE000
0007E007E000
0007E007E000
0007E007E000
0007E007E000
0007E00FE000
0007F01FC000
0003FC3FC000
0003FFFF8000
0001FFFF8000
0000FFFF0000
00007FFC0000
00001FF80000
000003800000
00007FFC0000
0003FFFF8000
000FFFFFE000
003FFFFFF800
007FFFFFFC00
00FFFFFFFF00
01FFFFFFFF80
03FFFFFFFF80
07FFFFFFFFC0
07FFFFFFFFE0
0FFFFFFFFFF0
1FFFFFFFFFF0
1FFFFFFFFFF8
3FFFFFFFFFF8
3FFFFFFFFFFC
3FFFF01FFFFC
7FFFE007FFFC
7FFFC003FFFC
7FFF8003FFFE
7FFF0001FFFE
FFFF0001FFFE
FFFF0000FFFE
FFFF0000FFFE
FFFF0000FFFE
FFFF0000FFFE
FFFE3FFFFFFE
FFFE3FFFFFFE
FFFE3FFFFFFE
FFFE3FFFFFFE
FFFE3FFFFFFE
FFFE3FFFFFFE
FFFE3FFFFFFE
FFFE3FFFFFFE
FFFE3FFFFFFE
FFFE3FFFFFFE
FFFE3FFFFFFE
FFFE3FFFFFFE
FFFE3FFFFFFE
FFFE3FFFFFFE
FFFE3FFFFFFE
FFFE0000FFFE
FFFE0000FFFE
FFFE0000FFFE
FFFE0000FFFE
FFFE0000FFFE
FFFE0000FFFE
FFFE0000FFFE
FFFE0000FFFE
FFFE0000FFFE
FFFE0000FFFE
FFFE0000FFFE
FFFE0000FFFE
FFFE0000FFFE
FFFE0000FFFE
FFFE0000FFFE
FFFE0000FFFE
FFFE0000FFFE
FFFE0000FFFE
FFFE0000FFFE
FFFE0000FFFE
FFFE0000FFFE
FFFE0000FFFE
FFFE0000FFFE
ENDCHAR
STARTCHAR 00C6
ENCODING 198
SWIDTH 866 0
DWIDTH 77 0
BBX 69 63 4 0
BITMAP
00003FF80000000000
0003FFFF0000001FF8
000FFFFFC00003FFF8
003FFFFFF0003FFFF8
007FFFFFF800FFFFF8
00FFFFFFFE03FFFFF8
01FFFFFFFF0FFFFFF8
03FFFFFFFF9FFFFFF8
07FFFFFFFFFFFFFFF8
07FFFFFFFFFFFFFFF8
0FFFFFFFFFFFFFFFF8
1FFFFFFFFFFFFFFFF8
1FFFFFFFFFFFFFFFF8
3FFFFFFFFFFFFFFFF8
3FFFFFFFFFFFFFFFF8
3FFFF01FFFFFFFE000
7FFFC007FFFFFE0000
7FFFC003FFFFF80000
7FFF8001FFFFE00000
7FFF0001FFFFC00000
FFFF0001FFFF800000
FFFF0000FFFF000000
FFFF0000FFFE000000
FFFF0000FFFE000000
FFFF0000FFFC000000
FFFE3FFFFFFFFFFFF8
FFFE3FFFFFFFFFFFF8
FFFE3FFFFFFFFFFFF8
FFFE3FFFFFFFFFFFF8
FFFE3FFFFFFFFFFFF8
FFFE3FFFFFFFFFFFF8
FFFE3FFFFFFFFFFFF8
FFFE3FFFFFFFFFFFF8
FFFE3FFFFFFFFFFFF8
FFFE3FFFFFFFFFFFF8
FFFE3FFFFFFFFFFFF8
FFFE3FFFFFFFFFFFF8
FFFE3FFFFFFFFFFFF8
FFFE0000FFFC000000
FFFE0000FFFC000000
FFFE0000FFFE000000
FFFE0000FFFE000000
FFFE0000FFFF000000
FFFE0000FFFF800000
FFFE0000FFFFC00000
FFFE0000FFFFE00000
FFFE0000FFFFF80000
FFFE0000FFFFFF0000
FFFE0000FFFFFFF800
FFFE0000FFFFFFFFF8
FFFE0000FFFFFFFFF8
FFFE0000FFFFFFFFF8
FFFE0000FFFFFFFFF8
FFFE0000FFFFFFFFF8
FFFE0000FFFFFFFFF8
FFFE0000FFFFFFFFF8
FFFE0000FFFFFFFFF8
FFFE0000FFFFFFFFF8
FFFE0000FFFFFFFFF8
FFFE0000FFFCFFFFF8
FFFE0000FFFC3FFFF8
FFFE0000FFFC07FFF8
FFFE0000FFFC001FF8
ENDCHAR
STARTCHAR 00C7
ENCODING 199
SWIDTH 506 0
DWIDTH 45 0
BBX 41 83 2 -21
BITMAP
00000007FF80
000001FFFF80
00000FFFFF80
00003FFFFF80
0000FFFFFF80
0003FFFFFF80
0007FFFFFF80
001FFFFFFF80
003FFFFFFF80
007FFFFFFF80
00FFFFFFFF80
01FFFFFFFF80
03FFFFFFFF80
03FFFFFFFF80
07FFFFFFC000
0FFFFFF00000
0FFFFF800000
1FFFFE000000
1FFFFC000000
3FFFF8000000
3FFFF0000000
3FFFE0000000
7FFFC0000000
7FFFC0000000
7FFF80000000
7FFF80000000
7FFF80000000
7FFF80000000
7FFF00000000
FFFF00000000
FFFF00000000
FFFF00000000
FFFF00000000
7FFF00000000
7FFF80000000
7FFF80000000
7FFF80000000
7FFF80000000
7FFFC0000000
3FFFC0000000
3FFFE0000000
3FFFF0000000
3FFFF8000000
1FFFFC000000
1FFFFF000000
0FFFFFC00000
0FFFFFF80000
07FFFFFFFF80
03FFFFFFFF80
03FFFFFFFF80
01FFFFFFFF80
00FFFFFFFF80
007FFFFFFF80
003FFFFFFF80
000FFFFFFF80
0007FFFFFF80
0003FFFFFF80
0000FFFFFF80
00003FFFFF80
00000FFFFF80
000000FFFF80
000001F3FF80
000001F00000
000001E00000
000001E00000
000001E00000
000003FF0000
000003FFC000
000003FFE000
000003FFF000
000007FFF800
0000000FF800
00000007F800
00000003F800
00000003F800
00000007F800
0003C007F800
0003FFFFF800
0003FFFFF000
0003FFFFF000
0003FFFFE000
0000FFFF8000
000003FC0000
ENDCHAR
STARTCHAR 00C8
ENCODING 200
SWIDTH 517 0
DWIDTH 46 0
BBX 41 84 2 0
BITMAP
0001FFC00000
0000FFC00000
00007FE00000
00007FE00000
00003FF00000
00001FF80000
00000FF80000
000007FC0000
000003FC0000
000003FE0000
000001FE0000
000000FF0000
0000007F0000
0000003F8000
0000001F8000
0000000FC000
000000000000
000000000000
000000000000
000000000000
000000000000
000000000000
00000007FF80
000001FFFF80
00000FFFFF80
00003FFFFF80
0000FFFFFF80
0003FFFFFF80
0007FFFFFF80
001FFFFFFF80
003FFFFFFF80
007FFFFFFF80
00FFFFFFFF80
01FFFFFFFF80
03FFFFFFFF80
03FFFFFFFF80
07FFFFFE0000
0FFFFFE00000
0FFFFF000000
1FFFFE000000
1FFFF8000000
3FFFF0000000
3FFFE0000000
3FFFE0000000
7FFFC0000000
7FFFC0000000
7FFFFFFFFF80
7FFFFFFFFF80
7FFFFFFFFF80
7FFFFFFFFF80
7FFFFFFFFF80
FFFFFFFFFF80
FFFFFFFFFF80
FFFFFFFFFF80
FFFFFFFFFF80
7FFFFFFFFF80
7FFFFFFFFF80
7FFFFFFFFF80
7FFFFFFFFF80
7FFFFFFFFF80
7FFFC0000000
3FFFC0000000
3FFFE0000000
3FFFE0000000
3FFFF0000000
1FFFF8000000
1FFFFE000000
0FFFFF000000
0FFFFFE00000
07FFFFFF8000
03FFFFFFFF80
03FFFFFFFF80
01FFFFFFFF80
00FFFFFFFF80
007FFFFFFF80
003FFFFFFF80
000FFFFFFF80
0007FFFFFF80
0003FFFFFF80
0000FFFFFF80
00003FFFFF80
00000FFFFF80
000000FFFF80
00000003FF80
ENDCHAR
STARTCHAR 00C9
ENCODING 201
SWIDTH 517 0
DWIDTH 46 0
BBX 41 84 2 0
BITMAP
0000000FFE00
0000000FFE00
0000001FFC00
0000001FF800
0000003FF000
0000003FE000
0000007FC000
0000007FC000
000000FF8000
000000FF0000
000001FE0000
000001FC0000
000003F80000
000007F80000
000007F00000
00000FE00000
000000000000
000000000000
000000000000
000000000000
000000000000
000000000000
00000007FF80
000001FFFF80
00000FFFFF80
00003FFFFF80
0000FFFFFF80
0003FFFFFF80
0007FFFFFF80
001FFFFFFF80
003FFFFFFF80
007FFFFFFF80
00FFFFFFFF80
01FFFFFFFF80
03FFFFFFFF80
03FFFFFFFF80
07FFFFFE0000
0FFFFFE00000
0FFFFF000000
1FFFFE000000
1FFFF8000000
3FFFF0000000
3FFFE0000000
3FFFE0000000
7FFFC0000000
7FFFC0000000
7FFFFFFFFF80
7FFFFFFFFF80
7FFFFFFFFF80
7FFFFFFFFF80
7FFFFFFFFF80
FFFFFFFFFF80
FFFFFFFFFF80
FFFFFFFFFF80
FFFFFFFFFF80
7FFFFFFFFF80
7FFFFFFFFF80
7FFFFFFFFF80
7FFFFFFFFF80
7FFFFFFFFF80
7FFFC0000000
3FFFC0000000
3FFFE0000000
3FFFE0000000
3FFFF0000000
1FFFF8000000
1FFFFE000000
0FFFFF000000
0FFFFFE00000
07FFFFFF8000
03FFFFFFFF80
03FFFFFFFF80
01FFFFFFFF80
00FFFFFFFF80
007FFFFFFF80
003FFFFFFF80
000FFFFFFF80
0007FFFFFF80
0003FFFFFF80
0000FFFFFF80
00003FFFFF80
00000FFFFF80
000000FFFF80
00000003FF80
ENDCHAR
STARTCHAR 00CA
ENCODING 202
SWIDTH 517 0
DWIDTH 46 0
BBX 41 82 2 0
BITMAP
000003FF0000
000007FF8000
000007FFC000
00000FFFC000
00000FFFE000
00001FFFE000
00001FFFF000
00003FEFF000
00003FC7F800
00007F87F800
0000FF03FC00
0000FE01FC00
0001FE00FE00
0001FC00FE00
0003F8007F00
0003F0003F00
000000000000
000000000000
000000000000
000000000000
00000007FF80
000001FFFF80
00000FFFFF80
00003FFFFF80
0000FFFFFF80
0003FFFFFF80
0007FFFFFF80
001FFFFFFF80
003FFFFFFF80
007FFFFFFF80
00FFFFFFFF80
01FFFFFFFF80
03FFFFFFFF80
03FFFFFFFF80
07FFFFFE0000
0FFFFFE00000
0FFFFF000000
1FFFFE000000
1FFFF8000000
3FFFF0000000
3FFFE0000000
3FFFE0000000
7FFFC0000000
7FFFC0000000
7FFFFFFFFF80
7FFFFFFFFF80
7FFFFFFFFF80
7FFFFFFFFF80
7FFFFFFFFF80
FFFFFFFFFF80
FFFFFFFFFF80
FFFFFFFFFF80
FFFFFFFFFF80
7FFFFFFFFF80
7FFFFFFFFF80
7FFFFFFFFF80
7FFFFFFFFF80
7FFFFFFFFF80
7FFFC0000000
3FFFC0000000
3FFFE0000000
3FFFE0000000
3FFFF0000000
1FFFF8000000
1FFFFE000000
0FFFFF000000
0FFFFFE00000
07FFFFFF8000
03FFFFFFFF80
03FFFFFFFF80
01FFFFFFFF80
00FFFFFFFF80
007FFFFFFF80
003FFFFFFF80
000FFFFFFF80
0007FFFFFF80
0003FFFFFF80
0000FFFFFF80
00003FFFFF80
00000FFFFF80
000000FFFF80
00000003FF80
ENDCHAR
STARTCHAR 00CB
ENCODING 203
SWIDTH 517 0
DWIDTH 46 0
BBX 41 82 2 0
BITMAP
000010000000
0000FE00FC00
0001FF03FE00
0001FF83FF00
0003FF87FF00
0003FF87FF00
0003FF87FF00
0003FF87FF00
0003FF83FF00
0001FF03FE00
0000FE01FE00
000038007000
000000000000
000000000000
000000000000
000000000000
000000000000
000000000000
000000000000
000000000000
00000007FF80
000001FFFF80
00000FFFFF80
00003FFFFF80
0000FFFFFF80
0003FFFFFF80
0007FFFFFF80
001FFFFFFF80
003FFFFFFF80
007FFFFFFF80
00FFFFFFFF80
01FFFFFFFF80
03FFFFFFFF80
03FFFFFFFF80
07FFFFFE0000
0FFFFFE00000
0FFFFF000000
1FFFFE000000
1FFFF8000000
3FFFF0000000
3FFFE0000000
3FFFE0000000
7FFFC0000000
7FFFC0000000
7FFFFFFFFF80
7FFFFFFFFF80
7FFFFFFFFF80
7FFFFFFFFF80
7FFFFFFFFF80
FFFFFFFFFF80
FFFFFFFFFF80
FFFFFFFFFF80
FFFFFFFFFF80
7FFFFFFFFF80
7FFFFFFFFF80
7FFFFFFFFF80
7FFFFFFFFF80
7FFFFFFFFF80
7FFFC0000000
3FFFC0000000
3FFFE0000000
3FFFE0000000
3FFFF0000000
1FFFF8000000
1FFFFE000000
0FFFFF000000
0FFFFFE00000
07FFFFFF8000
03FFFFFFFF80
03FFFFFFFF80
01FFFFFFFF80
00FFFFFFFF80
007FFFFFFF80
003FFFFFFF80
000FFFFFFF80
0007FFFFFF80
0003FFFFFF80
0000FFFFFF80
00003FFFFF80
00000FFFFF80
000000FFFF80
00000003FF80
ENDCHAR
STARTCHAR 00CC
ENCODING 204
SWIDTH 281 0
DWIDTH 25 0
BBX 20 84 0 0
BITMAP
FFE000
7FF000
3FF000
1FF800
0FF800
0FFC00
07FC00
03FE00
01FF00
00FF00
007F80
003F80
003FC0
001FC0
000FE0
0007E0
000000
000000
000000
000000
000000
000000
07FFF0
07FFF0
07FFF0
07FFF0
07FFF0
07FFF0
07FFF0
07FFF0
07FFF0
07FFF0
07FFF0
07FFF0
07FFF0
07FFF0
07FFF0
07FFF0
07FFF0
07FFF0
07FFF0
07FFF0
07FFF0
07FFF0
07FFF0
07FFF0
07FFF0
07FFF0
07FFF0
07FFF0
07FFF0
07FFF0
07FFF0
07FFF0
07FFF0
07FFF0
07FFF0
07FFF0
07FFF0
07FFF0
07FFF0
07FFF0
07FFF0
07FFF0
07FFF0
07FFF0
07FFF0
07FFF0
07FFF0
07FFF0
07FFF0
07FFF0
07FFF0
07FFF0
07FFF0
07FFF0
07FFF0
07FFF0
07FFF0
07FFF0
07FFF0
07FFF0
07FFF0
07FFF0
ENDCHAR
STARTCHAR 00CD
ENCODING 205
SWIDTH 281 0
DWIDTH 25 0
BBX 20 84 5 0
BITMAP
007FF0
00FFE0
00FFC0
01FF80
01FF80
03FF00
03FE00
07FC00
07F800
0FF000
1FE000
1FE000
3FC000
3F8000
7F0000
7E0000
000000
000000
000000
000000
000000
000000
FFFE00
FFFE00
FFFE00
FFFE00
FFFE00
FFFE00
FFFE00
FFFE00
FFFE00
FFFE00
FFFE00
FFFE00
FFFE00
FFFE00
FFFE00
FFFE00
FFFE00
FFFE00
FFFE00
FFFE00
FFFE00
FFFE00
FFFE00
FFFE00
FFFE00
FFFE00
FFFE00
FFFE00
FFFE00
FFFE00
FFFE00
FFFE00
FFFE00
FFFE00
FFFE00
FFFE00
FFFE00
FFFE00
FFFE00
FFFE00
FFFE00
FFFE00
FFFE00
FFFE00
FFFE00
FFFE00
FFFE00
FFFE00
FFFE00
FFFE00
FFFE00
FFFE00
FFFE00
FFFE00
FFFE00
FFFE00
FFFE00
FFFE00
FFFE00
FFFE00
FFFE00
FFFE00
ENDCHAR
STARTCHAR 00CE
ENCODING 206
SWIDTH 281 0
DWIDTH 25 0
BBX 27 84 -1 0
BITMAP
00FFE000
00FFF000
01FFF000
01FFF800
03FFF800
07FFFC00
07FFFC00
0FFBFE00
0FF1FE00
1FE0FF00
1FC07F00
3FC07F80
3F803F80
7F001FC0
7E000FC0
FC0007E0
00000000
00000000
00000000
00000000
00000000
00000000
03FFF800
03FFF800
03FFF800
03FFF800
03FFF800
03FFF800
03FFF800
03FFF800
03FFF800
03FFF800
03FFF800
03FFF800
03FFF800
03FFF800
03FFF800
03FFF800
03FFF800
03FFF800
03FFF800
03FFF800
03FFF800
03FFF800
03FFF800
03FFF800
03FFF800
03FFF800
03FFF800
03FFF800
03FFF800
03FFF800
03FFF800
03FFF800
03FFF800
03FFF800
03FFF800
03FFF800
03FFF800
03FFF800
03FFF800
03FFF800
03FFF800
03FFF800
03FFF800
03FFF800
03FFF800
03FFF800
03FFF800
03FFF800
03FFF800
03FFF800
03FFF800
03FFF800
03FFF800
03FFF800
03FFF800
03FFF800
03FFF800
03FFF800
03FFF800
03FFF800
03FFF800
03FFF800
ENDCHAR
STARTCHAR 00CF
ENCODING 207
SWIDTH 281 0
DWIDTH 25 0
BBX 27 82 -1 0
BITMAP
02000400
1F803F00
3FC07FC0
7FE0FFC0
7FE0FFE0
FFF0FFE0
FFF0FFE0
FFE0FFE0
7FE0FFC0
7FE07FC0
3FC07F80
06000E00
00000000
00000000
00000000
00000000
00000000
00000000
00000000
00000000
03FFF800
03FFF800
03FFF800
03FFF800
03FFF800
03FFF800
03FFF800
03FFF800
03FFF800
03FFF800
03FFF800
03FFF800
03FFF800
03FFF800
03FFF800
03FFF800
03FFF800
03FFF800
03FFF800
03FFF800
03FFF800
03FFF800
03FFF800
03FFF800
03FFF800
03FFF800
03FFF800
03FFF800
03FFF800
03FFF800
03FFF800
03FFF800
03FFF800
03FFF800
03FFF800
03FFF800
03FFF800
03FFF800
03FFF800
03FFF800
03FFF800
03FFF800
03FFF800
03FFF800
03FFF800
03FFF800
03FFF800
03FFF800
03FFF800
03FFF800
03FFF800
03FFF800
03FFF800
03FFF800
03FFF800
03FFF800
03FFF800
03FFF800
03FFF800
03FFF800
03FFF800
03FFF800
ENDCHAR
STARTCHAR 00D0
ENCODING 208
SWIDTH 641 0
DWIDTH 57 0
BBX 55 62 0 0
BITMAP
07FFFFF0000000
07FFFFFF800000
07FFFFFFF00000
07FFFFFFFC0000
07FFFFFFFF0000
07FFFFFFFFC000
07FFFFFFFFE000
07FFFFFFFFF000
07FFFFFFFFF800
07FFFFFFFFFC00
07FFFFFFFFFE00
07FFFFFFFFFF00
07FFFFFFFFFF80
07FFFFFFFFFFC0
07FFFFFFFFFFC0
07FFF00FFFFFE0
07FFF001FFFFE0
07FFF000FFFFF0
07FFF0003FFFF0
07FFF0001FFFF8
07FFF0000FFFF8
07FFF0000FFFFC
07FFF00007FFFC
07FFF00003FFFC
07FFF00003FFFC
FFFFFFE003FFFE
FFFFFFE001FFFE
FFFFFFE001FFFE
FFFFFFE001FFFE
FFFFFFE001FFFE
FFFFFFE001FFFE
FFFFFFE001FFFE
FFFFFFE001FFFE
FFFFFFE001FFFE
07FFF00001FFFE
07FFF00001FFFE
07FFF00003FFFE
07FFF00003FFFC
07FFF00007FFFC
07FFF00007FFFC
07FFF0000FFFFC
07FFF0001FFFF8
07FFF0003FFFF8
07FFF0007FFFF0
07FFF000FFFFF0
07FFF003FFFFE0
07FFF01FFFFFE0
07FFF1FFFFFFC0
07FFF1FFFFFFC0
07FFF1FFFFFF80
07FFF1FFFFFF00
07FFF1FFFFFE00
07FFF1FFFFFC00
07FFF1FFFFF800
07FFF1FFFFF000
07FFF1FFFFE000
07FFF1FFFFC000
07FFF1FFFF0000
07FFF1FFFC0000
07FFF1FFF00000
07FFF1FF800000
07FFF1F0000000
ENDCHAR
STARTCHAR 00D1
ENCODING 209
SWIDTH 652 0
DWIDTH 58 0
BBX 49 83 5 -1
BITMAP
000000007C0000
000000007C0000
0000FF00FC0000
0001FFE1F80000
0003FFFFF80000
0007FFFFF00000
000FFFFFF00000
000FFFFFE00000
001FFFFFC00000
001F80FF800000
001F001C000000
001F0000000000
00000000000000
00000000000000
00000000000000
00000000000000
00000000000000
00000000000000
00000000000000
07F80000000000
1FFE00003FFF80
3FFF00003FFF80
7FFF80003FFF80
7FFFC0003FFF80
FFFFC0003FFF80
FFFFE0003FFF80
FFFFF0003FFF80
FFFFF0003FFF80
FFFFF8003FFF80
FFFFF8003FFF80
FFFFFC003FFF80
FFFFFE003FFF80
FFFFFE003FFF80
FFFFFF003FFF80
FFFFFF003FFF80
FFFFFF803FFF80
FFFFFF803FFF80
FFFFFFC03FFF80
FFFFFFC03FFF80
FFFFFFE03FFF80
FFFFFFF03FFF80
FFFFFFF03FFF80
FFFBFFF83FFF80
FFFBFFF83FFF80
FFF9FFFC3FFF80
FFFDFFFC3FFF80
FFFCFFFE3FFF80
FFFCFFFE1FFF80
FFFC7FFF1FFF80
FFFC7FFF1FFF80
FFFC3FFF9FFF80
FFFC3FFF9FFF80
FFFC1FFFDFFF80
FFFC1FFFDFFF80
FFFC0FFFDFFF80
FFFC07FFFFFF80
FFFC07FFFFFF80
FFFC03FFFFFF80
FFFC03FFFFFF80
FFFC01FFFFFF80
FFFC01FFFFFF80
FFFC00FFFFFF80
FFFC00FFFFFF80
FFFC007FFFFF80
FFFC003FFFFF80
FFFC003FFFFF80
FFFC001FFFFF80
FFFC001FFFFF80
FFFC000FFFFF80
FFFC000FFFFF80
FFFC0007FFFF80
FFFC0007FFFF80
FFFC0003FFFF80
FFFC0001FFFF80
FFFC0001FFFF80
FFFC0000FFFF80
FFFC0000FFFF80
FFFC00007FFF80
FFFC00003FFF00
FFFC00003FFF00
FFFC00001FFE00
FFFC00000FFC00
0000000003F000
ENDCHAR
STARTCHAR 00D2
ENCODING 210
SWIDTH 765 0
DWIDTH 68 0
BBX 64 85 2 -1
BITMAP
00000FFE00000000
000007FF00000000
000003FF00000000
000001FF80000000
000001FF80000000
000000FFC0000000
0000007FC0000000
0000003FE0000000
0000001FE0000000
0000000FF0000000
00000007F0000000
00000007F8000000
00000003FC000000
00000001FC000000
00000000FE000000
000000007E000000
0000000000000000
0000000000000000
0000000000000000
0000000000000000
0000000000000000
0000003FFE000000
000003FFFFE00000
00001FFFFFFC0000
00007FFFFFFF0000
0000FFFFFFFF8000
0003FFFFFFFFE000
0007FFFFFFFFF000
000FFFFFFFFFF800
001FFFFFFFFFFC00
007FFFFFFFFFFE00
007FFFFFFFFFFF00
00FFFFFFFFFFFF80
01FFFFFFFFFFFFC0
03FFFFFFFFFFFFE0
07FFFFFFFFFFFFE0
07FFFFF80FFFFFF0
0FFFFFC001FFFFF0
0FFFFF00007FFFF8
1FFFFC00003FFFF8
1FFFF800001FFFFC
3FFFF000000FFFFC
3FFFF0000007FFFE
3FFFE0000003FFFE
7FFFC0000003FFFE
7FFFC0000001FFFE
7FFF80000001FFFF
7FFF80000000FFFF
7FFF80000000FFFF
7FFF80000000FFFF
7FFF00000000FFFF
FFFF00000000FFFF
FFFF00000000FFFF
FFFF00000000FFFF
FFFF00000000FFFF
7FFF00000000FFFF
7FFF80000000FFFF
7FFF80000000FFFF
7FFF80000001FFFF
7FFFC0000001FFFF
7FFFC0000001FFFE
3FFFE0000003FFFE
3FFFE0000007FFFE
3FFFF0000007FFFE
1FFFF800000FFFFC
1FFFFC00001FFFFC
1FFFFE00003FFFF8
0FFFFF8000FFFFF8
0FFFFFE003FFFFF0
07FFFFFE7FFFFFF0
03FFFFFFFFFFFFE0
03FFFFFFFFFFFFC0
01FFFFFFFFFFFFC0
00FFFFFFFFFFFF80
007FFFFFFFFFFF00
003FFFFFFFFFFE00
001FFFFFFFFFFC00
000FFFFFFFFFF800
0007FFFFFFFFF000
0003FFFFFFFFC000
0000FFFFFFFF8000
00003FFFFFFE0000
00000FFFFFF80000
000003FFFFE00000
0000003FFE000000
ENDCHAR
STARTCHAR 00D3
ENCODING 211
SWIDTH 765 0
DWIDTH 68 0
BBX 64 85 2 -1
BITMAP
000000003FF80000
000000007FF00000
000000007FE00000
00000000FFC00000
00000000FF800000
00000001FF800000
00000003FF000000
00000003FE000000
00000007FC000000
00000007F8000000
0000000FF0000000
0000000FE0000000
0000001FE0000000
0000001FC0000000
0000003F80000000
0000003F00000000
0000000000000000
0000000000000000
0000000000000000
0000000000000000
0000000000000000
0000003FFE000000
000003FFFFE00000
00001FFFFFFC0000
00007FFFFFFF0000
0000FFFFFFFF8000
0003FFFFFFFFE000
0007FFFFFFFFF000
000FFFFFFFFFF800
001FFFFFFFFFFC00
007FFFFFFFFFFE00
007FFFFFFFFFFF00
00FFFFFFFFFFFF80
01FFFFFFFFFFFFC0
03FFFFFFFFFFFFE0
07FFFFFFFFFFFFE0
07FFFFF80FFFFFF0
0FFFFFC001FFFFF0
0FFFFF00007FFFF8
1FFFFC00003FFFF8
1FFFF800001FFFFC
3FFFF000000FFFFC
3FFFF0000007FFFE
3FFFE0000003FFFE
7FFFC0000003FFFE
7FFFC0000001FFFE
7FFF80000001FFFF
7FFF80000000FFFF
7FFF80000000FFFF
7FFF80000000FFFF
7FFF00000000FFFF
FFFF00000000FFFF
FFFF00000000FFFF
FFFF00000000FFFF
FFFF00000000FFFF
7FFF00000000FFFF
7FFF80000000FFFF
7FFF80000000FFFF
7FFF80000001FFFF
7FFFC0000001FFFF
7FFFC0000001FFFE
3FFFE0000003FFFE
3FFFE0000007FFFE
3FFFF0000007FFFE
1FFFF800000FFFFC
1FFFFC00001FFFFC
1FFFFE00003FFFF8
0FFFFF8000FFFFF8
0FFFFFE003FFFFF0
07FFFFFE7FFFFFF0
03FFFFFFFFFFFFE0
03FFFFFFFFFFFFC0
01FFFFFFFFFFFFC0
00FFFFFFFFFFFF80
007FFFFFFFFFFF00
003FFFFFFFFFFE00
001FFFFFFFFFFC00
000FFFFFFFFFF800
0007FFFFFFFFF000
0003FFFFFFFFC000
0000FFFFFFFF8000
00003FFFFFFE0000
00000FFFFFF80000
000003FFFFE00000
0000003FFE000000
ENDCHAR
STARTCHAR 00D4
ENCODING 212
SWIDTH 765 0
DWIDTH 68 0
BBX 64 83 2 -1
BITMAP
0000001FFC000000
0000003FFC000000
0000003FFE000000
0000007FFE000000
0000007FFF000000
000000FFFF000000
000000FFFF800000
000001FF7F800000
000001FE3FC00000
000003FC1FC00000
000003F81FE00000
000007F80FE00000
000007F007F00000
00000FE003F80000
00000FC003F80000
00001F8001FC0000
0000000000000000
0000000000000000
0000000000000000
0000003FFE000000
000003FFFFE00000
00001FFFFFFC0000
00007FFFFFFF0000
0000FFFFFFFF8000
0003FFFFFFFFE000
0007FFFFFFFFF000
000FFFFFFFFFF800
001FFFFFFFFFFC00
007FFFFFFFFFFE00
007FFFFFFFFFFF00
00FFFFFFFFFFFF80
01FFFFFFFFFFFFC0
03FFFFFFFFFFFFE0
07FFFFFFFFFFFFE0
07FFFFF80FFFFFF0
0FFFFFC001FFFFF0
0FFFFF00007FFFF8
1FFFFC00003FFFF8
1FFFF800001FFFFC
3FFFF000000FFFFC
3FFFF0000007FFFE
3FFFE0000003FFFE
7FFFC0000003FFFE
7FFFC0000001FFFE
7FFF80000001FFFF
7FFF80000000FFFF
7FFF80000000FFFF
7FFF80000000FFFF
7FFF00000000FFFF
FFFF00000000FFFF
FFFF00000000FFFF
FFFF00000000FFFF
FFFF00000000FFFF
7FFF00000000FFFF
7FFF80000000FFFF
7FFF80000000FFFF
7FFF80000001FFFF
7FFFC0000001FFFF
7FFFC0000001FFFE
3FFFE0000003FFFE
3FFFE0000007FFFE
3FFFF0000007FFFE
1FFFF800000FFFFC
1FFFFC00001FFFFC
1FFFFE00003FFFF8
0FFFFF8000FFFFF8
0FFFFFE003FFFFF0
07FFFFFE7FFFFFF0
03FFFFFFFFFFFFE0
03FFFFFFFFFFFFC0
01FFFFFFFFFFFFC0
00FFFFFFFFFFFF80
007FFFFFFFFFFF00
003FFFFFFFFFFE00
001FFFFFFFFFFC00
000FFFFFFFFFF800
0007FFFFFFFFF000
0003FFFFFFFFC000
0000FFFFFFFF8000
00003FFFFFFE0000
00000FFFFFF80000
000003FFFFE00000
0000003FFE000000
ENDCHAR
STARTCHAR 00D5
ENCODING 213
SWIDTH 765 0
DWIDTH 68 0
BBX 64 83 2 -1
BITMAP
00000000007C0000
00000000007C0000
000000FF00FC0000
000001FFE1F80000
000003FFFFF80000
000007FFFFF00000
00000FFFFFF00000
00000FFFFFE00000
00000FFFFFC00000
00001F80FF800000
00001F000E000000
00001F0000000000
0000000000000000
0000000000000000
0000000000000000
0000000000000000
0000000000000000
0000000000000000
0000000000000000
0000003FFE000000
000003FFFFE00000
00001FFFFFFC0000
00007FFFFFFF0000
0000FFFFFFFF8000
0003FFFFFFFFE000
0007FFFFFFFFF000
000FFFFFFFFFF800
001FFFFFFFFFFC00
007FFFFFFFFFFE00
007FFFFFFFFFFF00
00FFFFFFFFFFFF80
01FFFFFFFFFFFFC0
03FFFFFFFFFFFFE0
07FFFFFFFFFFFFE0
07FFFFF80FFFFFF0
0FFFFFC001FFFFF0
0FFFFF00007FFFF8
1FFFFC00003FFFF8
1FFFF800001FFFFC
3FFFF000000FFFFC
3FFFF0000007FFFE
3FFFE0000003FFFE
7FFFC0000003FFFE
7FFFC0000001FFFE
7FFF80000001FFFF
7FFF80000000FFFF
7FFF80000000FFFF
7FFF80000000FFFF
7FFF00000000FFFF
FFFF00000000FFFF
FFFF00000000FFFF
FFFF00000000FFFF
FFFF00000000FFFF
7FFF00000000FFFF
7FFF80000000FFFF
7FFF80000000FFFF
7FFF80000001FFFF
7FFFC0000001FFFF
7FFFC0000001FFFE
3FFFE0000003FFFE
3FFFE0000007FFFE
3FFFF0000007FFFE
1FFFF800000FFFFC
1FFFFC00001FFFFC
1FFFFE00003FFFF8
0FFFFF8000FFFFF8
0FFFFFE003FFFFF0
07FFFFFE7FFFFFF0
03FFFFFFFFFFFFE0
03FFFFFFFFFFFFC0
01FFFFFFFFFFFFC0
00FFFFFFFFFFFF80
007FFFFFFFFFFF00
003FFFFFFFFFFE00
001FFFFFFFFFFC00
000FFFFFFFFFF800
0007FFFFFFFFF000
0003FFFFFFFFC000
0000FFFFFFFF8000
00003FFFFFFE0000
00000FFFFFF80000
000003FFFFE00000
0000003FFE000000
ENDCHAR
STARTCHAR 00D6
ENCODING 214
SWIDTH 765 0
DWIDTH 68 0
BBX 64 83 2 -1
BITMAP
0000000000800000
000003F007E00000
000007F80FF00000
00000FFC1FF80000
00001FFC1FF80000
00001FFC3FFC0000
00001FFC3FFC0000
00001FFC1FFC0000
00000FFC1FF80000
00000FF81FF80000
000007F80FF00000
000001C001C00000
0000000000000000
0000000000000000
0000000000000000
0000000000000000
0000000000000000
0000000000000000
0000000000000000
0000003FFE000000
000003FFFFE00000
00001FFFFFFC0000
00007FFFFFFF0000
0000FFFFFFFF8000
0003FFFFFFFFE000
0007FFFFFFFFF000
000FFFFFFFFFF800
001FFFFFFFFFFC00
007FFFFFFFFFFE00
007FFFFFFFFFFF00
00FFFFFFFFFFFF80
01FFFFFFFFFFFFC0
03FFFFFFFFFFFFE0
07FFFFFFFFFFFFE0
07FFFFF80FFFFFF0
0FFFFFC001FFFFF0
0FFFFF00007FFFF8
1FFFFC00003FFFF8
1FFFF800001FFFFC
3FFFF000000FFFFC
3FFFF0000007FFFE
3FFFE0000003FFFE
7FFFC0000003FFFE
7FFFC0000001FFFE
7FFF80000001FFFF
7FFF80000000FFFF
7FFF80000000FFFF
7FFF80000000FFFF
7FFF00000000FFFF
FFFF00000000FFFF
FFFF00000000FFFF
FFFF00000000FFFF
FFFF00000000FFFF
7FFF00000000FFFF
7FFF80000000FFFF
7FFF80000000FFFF
7FFF80000001FFFF
7FFFC0000001FFFF
7FFFC0000001FFFE
3FFFE0000003FFFE
3FFFE0000007FFFE
3FFFF0000007FFFE
1FFFF800000FFFFC
1FFFFC00001FFFFC
1FFFFE00003FFFF8
0FFFFF8000FFFFF8
0FFFFFE003FFFFF0
07FFFFFE7FFFFFF0
03FFFFFFFFFFFFE0
03FFFFFFFFFFFFC0
01FFFFFFFFFFFFC0
00FFFFFFFFFFFF80
007FFFFFFFFFFF00
003FFFFFFFFFFE00
001FFFFFFFFFFC00
000FFFFFFFFFF800
0007FFFFFFFFF000
0003FFFFFFFFC000
0000FFFFFFFF8000
00003FFFFFFE0000
00000FFFFFF80000
000003FFFFE00000
0000003FFE000000
ENDCHAR
STARTCHAR 00D7
ENCODING 215
SWIDTH 832 0
DWIDTH 74 0
BBX 52 53 12 0
BITMAP
02000000000000
07000000000C00
0F800000001E00
1FC00000003F00
3FE00000007F80
7FF0000000FFC0
FFF8000001FFE0
FFFC000003FFF0
7FFE000007FFE0
3FFF00000FFFC0
1FFF80001FFF80
0FFFC0003FFF00
07FFE0007FFE00
03FFF000FFFC00
01FFF801FFF800
00FFFC03FFF000
007FFE07FFE000
003FFF0FFFC000
001FFF9FFF8000
000FFFFFFF0000
0007FFFFFE0000
0003FFFFFC0000
0001FFFFF80000
0000FFFFF00000
00007FFFE00000
00003FFFC00000
00001FFF800000
00003FFFC00000
00007FFFE00000
0000FFFFF00000
0001FFFFF80000
0003FFFFFC0000
0007FFFFFE0000
000FFFFFFF0000
001FFF9FFF8000
003FFF0FFFC000
007FFE07FFE000
00FFFC03FFF000
01FFF801FFF800
03FFF000FFFC00
07FFE0007FFE00
0FFFC0003FFF00
1FFF80001FFF80
3FFF00000FFFC0
7FFE000007FFE0
FFFC000003FFF0
FFF8000001FFE0
7FF0000000FFC0
3FE00000007F80
1FC00000003F00
0F800000001E00
07000000000C00
02000000000000
ENDCHAR
STARTCHAR 00D8
ENCODING 216
SWIDTH 765 0
DWIDTH 68 0
BBX 64 70 2 -4
BITMAP
0000000000000040
00000000000000E0
00000000000001F0
0000007FFE0003F8
000003FFFFE007FC
00001FFFFFF80FFE
00007FFFFFFE1FFE
0001FFFFFFFFBFFC
0003FFFFFFFFFFF8
0007FFFFFFFFFFF0
000FFFFFFFFFFFE0
003FFFFFFFFFFFE0
007FFFFFFFFFFFC0
00FFFFFFFFFFFF80
00FFFFFFFFFFFF80
01FFFFFFFFFFFFC0
03FFFFFFFFFFFFE0
07FFFFFFFFFFFFE0
07FFFFE007FFFFF0
0FFFFF8000FFFFF0
0FFFFE0001FFFFF8
1FFFFC0003FFFFF8
1FFFF80003FFFFFC
3FFFF00007FFFFFC
3FFFE0000FFFFFFE
3FFFC0001FFFFFFE
7FFFC0003FF9FFFE
7FFF80007FF1FFFE
7FFF8000FFE0FFFF
7FFF8001FFC0FFFF
7FFF0003FF80FFFF
7FFF0003FF80FFFF
7FFF0007FF007FFF
FFFF000FFE007FFF
FFFF001FFC007FFF
FFFF003FF8007FFF
FFFF007FF0007FFF
7FFF00FFE0007FFF
7FFF01FFC000FFFF
7FFF81FF8000FFFF
7FFF83FF8000FFFF
7FFF87FF0000FFFF
7FFFCFFE0001FFFE
3FFFDFFC0001FFFE
3FFFFFF80003FFFE
3FFFFFF00007FFFE
1FFFFFE0000FFFFC
1FFFFFC0000FFFFC
1FFFFF80003FFFF8
0FFFFF80007FFFF8
0FFFFFC001FFFFF0
07FFFFF80FFFFFF0
03FFFFFFFFFFFFE0
03FFFFFFFFFFFFC0
01FFFFFFFFFFFFC0
00FFFFFFFFFFFF80
01FFFFFFFFFFFF00
03FFFFFFFFFFFE00
07FFFFFFFFFFFC00
07FFFFFFFFFFF800
0FFFFFFFFFFFF000
1FFFFFFFFFFFE000
3FFCFFFFFFFF8000
7FF83FFFFFFE0000
7FF00FFFFFF80000
3FE003FFFFE00000
1FC0003FFE000000
0F80000000000000
0700000000000000
0300000000000000
ENDCHAR
STARTCHAR 00D9
ENCODING 217
SWIDTH 618 0
DWIDTH 55 0
BBX 47 85 4 -1
BITMAP
001FFE000000
000FFE000000
0007FF000000
0003FF000000
0001FF800000
0000FF800000
00007FC00000
00007FC00000
00003FE00000
00001FE00000
00000FF00000
000007F00000
000003F80000
000003F80000
000001FC0000
000000FE0000
000000000000
000000000000
000000000000
000000000000
000000000000
000000000000
FFFE0000FFFE
FFFE0000FFFE
FFFE0000FFFE
FFFE0000FFFE
FFFE0000FFFE
FFFE0000FFFE
FFFE0000FFFE
FFFE0000FFFE
FFFE0000FFFE
FFFE0000FFFE
FFFE0000FFFE
FFFE0000FFFE
FFFE0000FFFE
FFFE0000FFFE
FFFE0000FFFE
FFFE0000FFFE
FFFE0000FFFE
FFFE0000FFFE
FFFE0000FFFE
FFFE0000FFFE
FFFE0000FFFE
FFFE0000FFFE
FFFE0000FFFE
FFFE0000FFFE
FFFE0000FFFE
FFFE0000FFFE
FFFE0000FFFE
FFFE0000FFFE
FFFE0000FFFE
FFFE0000FFFE
FFFE0000FFFE
FFFE0000FFFE
FFFE0000FFFE
FFFE0000FFFE
FFFE0000FFFE
FFFE0000FFFE
FFFE0000FFFE
FFFE0000FFFE
FFFF0000FFFE
FFFF0000FFFE
FFFF0000FFFE
FFFF0000FFFE
FFFF0001FFFE
7FFF8001FFFE
7FFF8003FFFE
7FFFC003FFFC
7FFFE007FFFC
3FFFF83FFFFC
3FFFFFFFFFF8
3FFFFFFFFFF8
1FFFFFFFFFF0
1FFFFFFFFFF0
0FFFFFFFFFE0
07FFFFFFFFE0
07FFFFFFFFC0
03FFFFFFFF80
01FFFFFFFF00
00FFFFFFFE00
007FFFFFFC00
001FFFFFF800
000FFFFFE000
0003FFFF8000
00003FF80000
ENDCHAR
STARTCHAR 00DA
ENCODING 218
SWIDTH 618 0
DWIDTH 55 0
BBX 47 85 4 -1
BITMAP
0000007FF000
0000007FE000
000000FFC000
000001FFC000
000001FF8000
000003FF0000
000003FE0000
000007FC0000
000007F80000
00000FF80000
00000FF00000
00001FE00000
00001FC00000
00003F800000
00003F000000
00007E000000
000000000000
000000000000
000000000000
000000000000
000000000000
000000000000
FFFE0000FFFE
FFFE0000FFFE
FFFE0000FFFE
FFFE0000FFFE
FFFE0000FFFE
FFFE0000FFFE
FFFE0000FFFE
FFFE0000FFFE
FFFE0000FFFE
FFFE0000FFFE
FFFE0000FFFE
FFFE0000FFFE
FFFE0000FFFE
FFFE0000FFFE
FFFE0000FFFE
FFFE0000FFFE
FFFE0000FFFE
FFFE0000FFFE
FFFE0000FFFE
FFFE0000FFFE
FFFE0000FFFE
FFFE0000FFFE
FFFE0000FFFE
FFFE0000FFFE
FFFE0000FFFE
FFFE0000FFFE
FFFE0000FFFE
FFFE0000FFFE
FFFE0000FFFE
FFFE0000FFFE
FFFE0000FFFE
FFFE0000FFFE
FFFE0000FFFE
FFFE0000FFFE
FFFE0000FFFE
FFFE0000FFFE
FFFE0000FFFE
FFFE0000FFFE
FFFF0000FFFE
FFFF0000FFFE
FFFF0000FFFE
FFFF0000FFFE
FFFF0001FFFE
7FFF8001FFFE
7FFF8003FFFE
7FFFC003FFFC
7FFFE007FFFC
3FFFF83FFFFC
3FFFFFFFFFF8
3FFFFFFFFFF8
1FFFFFFFFFF0
1FFFFFFFFFF0
0FFFFFFFFFE0
07FFFFFFFFE0
07FFFFFFFFC0
03FFFFFFFF80
01FFFFFFFF00
00FFFFFFFE00
007FFFFFFC00
001FFFFFF800
000FFFFFE000
0003FFFF8000
00003FF80000
ENDCHAR
STARTCHAR 00DB
ENCODING 219
SWIDTH 618 0
DWIDTH 55 0
BBX 47 85 4 -1
BITMAP
00003FF80000
00003FFC0000
00007FFC0000
00007FFE0000
0000FFFE0000
0000FFFF0000
0001FFFF0000
0001FE7F8000
0003FC7F8000
0003F83FC000
0007F81FE000
0007F00FE000
000FE007F000
000FC007F000
001F8003F800
003F8001F800
000000000000
000000000000
000000000000
000000000000
000000000000
000000000000
FFFE0000FFFE
FFFE0000FFFE
FFFE0000FFFE
FFFE0000FFFE
FFFE0000FFFE
FFFE0000FFFE
FFFE0000FFFE
FFFE0000FFFE
FFFE0000FFFE
FFFE0000FFFE
FFFE0000FFFE
FFFE0000FFFE
FFFE0000FFFE
FFFE0000FFFE
FFFE0000FFFE
FFFE0000FFFE
FFFE0000FFFE
FFFE0000FFFE
FFFE0000FFFE
FFFE0000FFFE
FFFE0000FFFE
FFFE0000FFFE
FFFE0000FFFE
FFFE0000FFFE
FFFE0000FFFE
FFFE0000FFFE
FFFE0000FFFE
FFFE0000FFFE
FFFE0000FFFE
FFFE0000FFFE
FFFE0000FFFE
FFFE0000FFFE
FFFE0000FFFE
FFFE0000FFFE
FFFE0000FFFE
FFFE0000FFFE
FFFE0000FFFE
FFFE0000FFFE
FFFF0000FFFE
FFFF0000FFFE
FFFF0000FFFE
FFFF0000FFFE
FFFF0001FFFE
7FFF8001FFFE
7FFF8003FFFE
7FFFC003FFFC
7FFFE007FFFC
3FFFF83FFFFC
3FFFFFFFFFF8
3FFFFFFFFFF8
1FFFFFFFFFF0
1FFFFFFFFFF0
0FFFFFFFFFE0
07FFFFFFFFE0
07FFFFFFFFC0
03FFFFFFFF80
01FFFFFFFF00
00FFFFFFFE00
007FFFFFFC00
001FFFFFF800
000FFFFFE000
0003FFFF8000
00003FF80000
ENDCHAR
STARTCHAR 00DC
ENCODING 220
SWIDTH 618 0
DWIDTH 55 0
BBX 47 83 4 -1
BITMAP
000000010000
0007F00FE000
000FF81FF000
001FF83FF000
001FFC3FF800
001FFC3FF800
001FFC3FF800
001FFC3FF800
001FF83FF800
000FF81FF000
0007F00FE000
0001C0038000
000000000000
000000000000
000000000000
000000000000
000000000000
000000000000
000000000000
000000000000
FFFE0000FFFE
FFFE0000FFFE
FFFE0000FFFE
FFFE0000FFFE
FFFE0000FFFE
FFFE0000FFFE
FFFE0000FFFE
FFFE0000FFFE
FFFE0000FFFE
FFFE0000FFFE
FFFE0000FFFE
FFFE0000FFFE
FFFE0000FFFE
FFFE0000FFFE
FFFE0000FFFE
FFFE0000FFFE
FFFE0000FFFE
FFFE0000FFFE
FFFE0000FFFE
FFFE0000FFFE
FFFE0000FFFE
FFFE0000FFFE
FFFE0000FFFE
FFFE0000FFFE
FFFE0000FFFE
FFFE0000FFFE
FFFE0000FFFE
FFFE0000FFFE
FFFE0000FFFE
FFFE0000FFFE
FFFE0000FFFE
FFFE0000FFFE
FFFE0000FFFE
FFFE0000FFFE
FFFE0000FFFE
FFFE0000FFFE
FFFE0000FFFE
FFFE0000FFFE
FFFF0000FFFE
FFFF0000FFFE
FFFF0000FFFE
FFFF0000FFFE
FFFF0001FFFE
7FFF8001FFFE
7FFF8003FFFE
7FFFC003FFFC
7FFFE007FFFC
3FFFF83FFFFC
3FFFFFFFFFF8
3FFFFFFFFFF8
1FFFFFFFFFF0
1FFFFFFFFFF0
0FFFFFFFFFE0
07FFFFFFFFE0
07FFFFFFFFC0
03FFFFFFFF80
01FFFFFFFF00
00FFFFFFFE00
007FFFFFFC00
001FFFFFF800
000FFFFFE000
0003FFFF8000
00003FF80000
ENDCHAR
STARTCHAR 00DD
ENCODING 221
SWIDTH 562 0
DWIDTH 50 0
BBX 43 84 4 0
BITMAP
000001FFC000
000003FF8000
000003FF0000
000007FE0000
00000FFC0000
00000FF80000
00001FF80000
00001FF00000
00003FE00000
00003FC00000
00007F800000
00007F000000
0000FF000000
0000FE000000
0001FC000000
0001F8000000
000000000000
000000000000
000000000000
000000000000
000000000000
000000000000
FFFE000FFFE0
FFFE000FFFE0
FFFE000FFFE0
FFFE000FFFE0
FFFE000FFFE0
FFFE000FFFE0
FFFE000FFFE0
FFFE000FFFE0
FFFE000FFFE0
FFFE000FFFE0
FFFE000FFFE0
FFFE000FFFE0
FFFE000FFFE0
FFFE000FFFE0
FFFE000FFFE0
FFFE000FFFE0
FFFE000FFFE0
FFFE000FFFE0
FFFE000FFFE0
FFFE000FFFE0
FFFE001FFFE0
FFFE001FFFE0
FFFE001FFFE0
FFFF001FFFC0
FFFF003FFFC0
7FFF803FFFC0
7FFFC07FFFC0
7FFFFFFFFF80
7FFFFFFFFF80
3FFFFFFFFF80
3FFFFFFFFF00
1FFFFFFFFF00
0FFFFFFFFE00
0FFFFFFFFC00
07FFFFFFFC00
03FFFFFFF800
01FFFFFFF000
00FFFFFFC000
003FFFFF8000
000FFFFE0000
0003FFF80000
0003FFF80000
0003FFF80000
0003FFF80000
0003FFF80000
0003FFF80000
0003FFF80000
0003FFF80000
0003FFF80000
0003FFF80000
0003FFF80000
0003FFF80000
0003FFF80000
0003FFF80000
0003FFF80000
0003FFF80000
0003FFF80000
0003FFF80000
0003FFF80000
0003FFF80000
0003FFF80000
0003FFF80000
ENDCHAR
STARTCHAR 00DE
ENCODING 222
SWIDTH 573 0
DWIDTH 51 0
BBX 45 63 4 0
BITMAP
FFFF00000000
FFFF00000000
FFFF00000000
FFFF00000000
FFFF00000000
FFFF00000000
FFFF00000000
FFFF00000000
FFFF3FF00000
FFFFFFFE0000
FFFFFFFF8000
FFFFFFFFE000
FFFFFFFFF000
FFFFFFFFFC00
FFFFFFFFFE00
FFFFFFFFFF00
FFFFFFFFFF00
FFFFFFFFFF80
FFFFFFFFFFC0
FFFFFFFFFFC0
FFFFFFFFFFE0
FFFFFFFFFFE0
FFFFFFFFFFF0
FFFFF07FFFF0
FFFFC01FFFF0
FFFF800FFFF8
FFFF000FFFF8
FFFF0007FFF8
FFFF0007FFF8
FFFF0007FFF8
FFFF0007FFF8
FFFF0007FFF8
FFFF0007FFF8
FFFF000FFFF8
FFFF001FFFF8
FFFF003FFFF0
FFFF03FFFFF0
FFFF3FFFFFF0
FFFF3FFFFFE0
FFFF3FFFFFE0
FFFF3FFFFFC0
FFFF3FFFFFC0
FFFF3FFFFF80
FFFF3FFFFF00
FFFF3FFFFE00
FFFF3FFFFC00
FFFF3FFFF800
FFFF3FFFF000
FFFF3FFFC000
FFFF3FFF0000
FFFF3FF00000
FFFF38000000
FFFF00000000
FFFF00000000
FFFF00000000
FFFF00000000
FFFF00000000
FFFF00000000
FFFF00000000
FFFF00000000
FFFF00000000
FFFF00000000
FFFF00000000
ENDCHAR
STARTCHAR 00DF
ENCODING 223
SWIDTH 585 0
DWIDTH 52 0
BBX 52 63 -1 0
BITMAP
00001FF8000000
0000FFFF000000
0003FFFFC00000
000FFFFFF00000
001FFFFFF80000
003FFFFFFE0000
007FFFFFFF0000
007FFFFFFF0000
00FFFFFFFF8000
01FFFFFFFF8000
01FFFFFFFFC000
01FFFFFFFFC000
03FFFE3FFFC000
03FFF80FFFC000
03FFF00FFFC000
03FFF00FFFC000
03FFF007FFC000
03FFF007FFC000
03FFE00FFFC000
FFFFE00FFF8000
FFFFE01FFF8000
FFFFE01FFF0000
FFFFE03FFE0000
FFFFE07FFC0000
FFFFE07FF80000
FFFFE0FFFE0000
FFFFE0FFFF0000
FFFFE0FFFFC000
FFFFE0FFFFE000
FFFFE07FFFF000
FFFFE03FFFF800
FFFFE01FFFFC00
03FFE00FFFFE00
03FFE007FFFF00
03FFE003FFFF80
03FFE001FFFF80
03FFE0007FFFC0
03FFE0003FFFC0
03FFE0001FFFE0
03FFE0001FFFE0
03FFE0000FFFE0
03FFE00007FFE0
03FFE00007FFF0
03FFE00007FFF0
03FFE00003FFF0
03FFE00007FFF0
03FFE00007FFF0
03FFE00007FFE0
03FFE0000FFFE0
03FFE0003FFFE0
03FFE1FFFFFFE0
03FFE1FFFFFFE0
03FFE1FFFFFFC0
03FFE1FFFFFFC0
03FFE1FFFFFF80
03FFE1FFFFFF80
03FFE1FFFFFF00
03FFE1FFFFFE00
03FFE1FFFFFC00
03FFE1FFFFF000
03FFE1FFFFC000
03FFE1FFFF0000
03FFE1FFF00000
ENDCHAR
STARTCHAR 00E0
ENCODING 224
SWIDTH 551 0
DWIDTH 49 0
BBX 44 66 2 -1
BITMAP
001FFC000000
001FFC000000
000FFE000000
0007FE000000
0003FF000000
0001FF000000
0000FF800000
00007F800000
00007FC00000
00003FC00000
00001FE00000
00000FF00000
000007F00000
000003F80000
000003F80000
000001FC0000
000000000000
000000000000
000000000000
000000000000
00003FE00000
0003FFFC0000
000FFFFF8000
003FFFFFC000
007FFFFFF000
01FFFFFFF800
03FFFFFFFC00
07FFFFFFFE00
07FFFFFFFF00
0FFFFFFFFF80
1FFFFFFFFF80
1FFFFFFFFFC0
3FFFFFFFFFC0
3FFFFFFFFFE0
7FFFF07FFFE0
7FFFC01FFFE0
7FFF000FFFF0
7FFF0007FFF0
FFFE0003FFF0
FFFE0003FFF0
FFFE0003FFF0
FFFC0003FFF0
FFFC0003FFF0
FFFC0001FFF0
FFFC0001FFF0
FFFE0001FFF0
FFFE0001FFF0
FFFE0001FFF0
7FFF0001FFF0
7FFF8001FFF0
7FFFC001FFF0
3FFFF8F1FFF0
3FFFFFF1FFF0
3FFFFFF1FFF0
1FFFFFF1FFF0
1FFFFFF1FFF0
0FFFFFF1FFF0
07FFFFF1FFF0
03FFFFF1FFF0
01FFFFF1FFF0
00FFFFF1FFF0
007FFFF1FFF0
003FFFF1FFF0
000FFFF1FFF0
0001FFF1FFF0
000017800000
ENDCHAR
STARTCHAR 00E1
ENCODING 225
SWIDTH 551 0
DWIDTH 49 0
BBX 44 66 2 -1
BITMAP
000000FFE000
000000FFC000
000001FFC000
000001FF8000
000003FF0000
000003FE0000
000007FC0000
00000FF80000
00000FF80000
00001FF00000
00001FE00000
00003FC00000
00003F800000
00007F000000
00007E000000
0000FE000000
000000000000
000000000000
000000000000
000000000000
00003FE00000
0003FFFC0000
000FFFFF8000
003FFFFFC000
007FFFFFF000
01FFFFFFF800
03FFFFFFFC00
07FFFFFFFE00
07FFFFFFFF00
0FFFFFFFFF80
1FFFFFFFFF80
1FFFFFFFFFC0
3FFFFFFFFFC0
3FFFFFFFFFE0
7FFFF07FFFE0
7FFFC01FFFE0
7FFF000FFFF0
7FFF0007FFF0
FFFE0003FFF0
FFFE0003FFF0
FFFE0003FFF0
FFFC0003FFF0
FFFC0003FFF0
FFFC0001FFF0
FFFC0001FFF0
FFFE0001FFF0
FFFE0001FFF0
FFFE0001FFF0
7FFF0001FFF0
7FFF8001FFF0
7FFFC001FFF0
3FFFF8F1FFF0
3FFFFFF1FFF0
3FFFFFF1FFF0
1FFFFFF1FFF0
1FFFFFF1FFF0
0FFFFFF1FFF0
07FFFFF1FFF0
03FFFFF1FFF0
01FFFFF1FFF0
00FFFFF1FFF0
007FFFF1FFF0
003FFFF1FFF0
000FFFF1FFF0
0001FFF1FFF0
000017800000
ENDCHAR
STARTCHAR 00E2
ENCODING 226
SWIDTH 551 0
DWIDTH 49 0
BBX 44 66 2 -1
BITMAP
00003FF00000
00007FF80000
0000FFF80000
0000FFFC0000
0001FFFC0000
0001FFFE0000
0003FFFF0000
0003FCFF0000
0007F8FF8000
0007F87F8000
000FF03FC000
000FE01FC000
001FC00FE000
001F800FE000
003F8007F000
003F0003F000
000000000000
000000000000
000000000000
000000000000
00003FE00000
0003FFFC0000
000FFFFF8000
003FFFFFC000
007FFFFFF000
01FFFFFFF800
03FFFFFFFC00
07FFFFFFFE00
07FFFFFFFF00
0FFFFFFFFF80
1FFFFFFFFF80
1FFFFFFFFFC0
3FFFFFFFFFC0
3FFFFFFFFFE0
7FFFF07FFFE0
7FFFC01FFFE0
7FFF000FFFF0
7FFF0007FFF0
FFFE0003FFF0
FFFE0003FFF0
FFFE0003FFF0
FFFC0003FFF0
FFFC0003FFF0
FFFC0001FFF0
FFFC0001FFF0
FFFE0001FFF0
FFFE0001FFF0
FFFE0001FFF0
7FFF0001FFF0
7FFF8001FFF0
7FFFC001FFF0
3FFFF8F1FFF0
3FFFFFF1FFF0
3FFFFFF1FFF0
1FFFFFF1FFF0
1FFFFFF1FFF0
0FFFFFF1FFF0
07FFFFF1FFF0
03FFFFF1FFF0
01FFFFF1FFF0
00FFFFF1FFF0
007FFFF1FFF0
003FFFF1FFF0
000FFFF1FFF0
0001FFF1FFF0
000017800000
ENDCHAR
STARTCHAR 00E3
ENCODING 227
SWIDTH 551 0
DWIDTH 49 0
BBX 44 64 2 -1
BITMAP
00000000F800
00000001F000
0001FC01F000
0007FFC3F000
000FFFFFE000
000FFFFFE000
001FFFFFC000
001FFFFFC000
003FFFFF8000
003E03FF0000
003E00380000
007C00000000
000000000000
000000000000
000000000000
000000000000
000000000000
000000000000
00003FE00000
0003FFFC0000
000FFFFF8000
003FFFFFC000
007FFFFFF000
01FFFFFFF800
03FFFFFFFC00
07FFFFFFFE00
07FFFFFFFF00
0FFFFFFFFF80
1FFFFFFFFF80
1FFFFFFFFFC0
3FFFFFFFFFC0
3FFFFFFFFFE0
7FFFF07FFFE0
7FFFC01FFFE0
7FFF000FFFF0
7FFF0007FFF0
FFFE0003FFF0
FFFE0003FFF0
FFFE0003FFF0
FFFC0003FFF0
FFFC0003FFF0
FFFC0001FFF0
FFFC0001FFF0
FFFE0001FFF0
FFFE0001FFF0
FFFE0001FFF0
7FFF0001FFF0
7FFF8001FFF0
7FFFC001FFF0
3FFFF8F1FFF0
3FFFFFF1FFF0
3FFFFFF1FFF0
1FFFFFF1FFF0
1FFFFFF1FFF0
0FFFFFF1FFF0
07FFFFF1FFF0
03FFFFF1FFF0
01FFFFF1FFF0
00FFFFF1FFF0
007FFFF1FFF0
003FFFF1FFF0
000FFFF1FFF0
0001FFF1FFF0
000017800000
ENDCHAR
STARTCHAR 00E4
ENCODING 228
SWIDTH 551 0
DWIDTH 49 0
BBX 44 64 2 -1
BITMAP
000100000000
000FE01FC000
001FF03FE000
003FF03FF000
003FF87FF000
003FF87FF000
003FF87FF000
003FF87FF000
003FF87FF000
001FF03FE000
000FE01FC000
000380070000
000000000000
000000000000
000000000000
000000000000
000000000000
000000000000
00003FE00000
0003FFFC0000
000FFFFF8000
003FFFFFC000
007FFFFFF000
01FFFFFFF800
03FFFFFFFC00
07FFFFFFFE00
07FFFFFFFF00
0FFFFFFFFF80
1FFFFFFFFF80
1FFFFFFFFFC0
3FFFFFFFFFC0
3FFFFFFFFFE0
7FFFF07FFFE0
7FFFC01FFFE0
7FFF000FFFF0
7FFF0007FFF0
FFFE0003FFF0
FFFE0003FFF0
FFFE0003FFF0
FFFC0003FFF0
FFFC0003FFF0
FFFC0001FFF0
FFFC0001FFF0
FFFE0001FFF0
FFFE0001FFF0
FFFE0001FFF0
7FFF0001FFF0
7FFF8001FFF0
7FFFC001FFF0
3FFFF8F1FFF0
3FFFFFF1FFF0
3FFFFFF1FFF0
1FFFFFF1FFF0
1FFFFFF1FFF0
0FFFFFF1FFF0
07FFFFF1FFF0
03FFFFF1FFF0
01FFFFF1FFF0
00FFFFF1FFF0
007FFFF1FFF0
003FFFF1FFF0
000FFFF1FFF0
0001FFF1FFF0
000017800000
ENDCHAR
STARTCHAR 00E5
ENCODING 229
SWIDTH 551 0
DWIDTH 49 0
BBX 44 72 2 -1
BITMAP
000007E00000
00003FF80000
00007FFE0000
0000FFFF0000
0001FFFF8000
0003FFFFC000
0003FFFFC000
0007F81FE000
0007F00FE000
0007E007E000
000FE007E000
000FE007E000
000FE007E000
0007E007E000
0007E007E000
0007F00FE000
0007FC3FE000
0003FFFFC000
0003FFFF8000
0001FFFF8000
0000FFFF0000
00003FFC0000
00000FF00000
000000000000
000000000000
000000000000
00003FE00000
0003FFFC0000
000FFFFF8000
003FFFFFC000
007FFFFFF000
01FFFFFFF800
03FFFFFFFC00
07FFFFFFFE00
07FFFFFFFF00
0FFFFFFFFF80
1FFFFFFFFF80
1FFFFFFFFFC0
3FFFFFFFFFC0
3FFFFFFFFFE0
7FFFF07FFFE0
7FFFC01FFFE0
7FFF000FFFF0
7FFF0007FFF0
FFFE0003FFF0
FFFE0003FFF0
FFFE0003FFF0
FFFC0003FFF0
FFFC0003FFF0
FFFC0001FFF0
FFFC0001FFF0
FFFE0001FFF0
FFFE0001FFF0
FFFE0001FFF0
7FFF0001FFF0
7FFF8001FFF0
7FFFC001FFF0
3FFFF8F1FFF0
3FFFFFF1FFF0
3FFFFFF1FFF0
1FFFFFF1FFF0
1FFFFFF1FFF0
0FFFFFF1FFF0
07FFFFF1FFF0
03FFFFF1FFF0
01FFFFF1FFF0
00FFFFF1FFF0
007FFFF1FFF0
003FFFF1FFF0
000FFFF1FFF0
0001FFF1FFF0
000017800000
ENDCHAR
STARTCHAR 00E6
ENCODING 230
SWIDTH 832 0
DWIDTH 74 0
BBX 73 46 1 -1
BITMAP
0003FF000003FE000000
007FFFE0003FFFC00000
03FFFFFC00FFFFF00000
1FFFFFFE03FFFFFC0000
3FFFFFFF07FFFFFF0000
1FFFFFFF8FFFFFFF8000
1FFFFFFFDFFFFFFFC000
0FFFFFFFFFFFFFFFE000
0FFFFFFFFFFFFFFFE000
07FFFFFFFFFFFFFFF000
07FFFFFFFFFFFFFFF800
07F801FFFFFF07FFFC00
03C000FFFFFC01FFFC00
0200007FFFF0007FFE00
0000003FFFE001FFFE00
000003FFFFE007FFFE00
00007FFFFFC01FFFFF00
0003FFFFFF807FFFFF00
001FFFFFFF81FFFFFC00
007FFFFFFF87FFFFF000
00FFFFFFFF87FFFFC000
03FFFFFFFF83FFFF0000
07FFFFFFFF03FFF80000
0FFFFFFFFF01FFE00000
1FFFFC1FFF81FF800000
3FFFE01FFF80FE000000
7FFF801FFF80F8030000
7FFE001FFF80C0038000
FFFC001FFFC00007E000
FFFC001FFFE0000FF000
FFF8003FFFF0001FFC00
FFF8007FFFF8007FFE00
FFF8007FFFFC01FFFF80
FFFC01FFFFFFFFFFFF00
FFFF07FFFFFFFFFFFE00
FFFFFFFFFFFFFFFFFC00
FFFFFFFFFFFFFFFFFC00
7FFFFFFFFFFFFFFFF800
7FFFFFFFBFFFFFFFF000
3FFFFFFF1FFFFFFFE000
1FFFFFFE0FFFFFFF8000
0FFFFFFC07FFFFFF0000
07FFFFF001FFFFFC0000
03FFFFC0007FFFF80000
00FFFE00001FFFC00000
000F80000000FC000000
ENDCHAR
STARTCHAR 00E7
ENCODING 231
SWIDTH 393 0
DWIDTH 35 0
BBX 31 65 2 -21
BITMAP
00000FFE
0000FFFE
0007FFFE
001FFFFE
007FFFFE
00FFFFFE
01FFFFFE
03FFFFFE
07FFFFFE
0FFFFFFE
1FFFFFFE
1FFFFFFE
3FFFFFFE
3FFFFE00
7FFFE000
7FFFC000
7FFF0000
7FFF0000
FFFE0000
FFFE0000
FFFC0000
FFFC0000
FFFC0000
FFFC0000
FFFE0000
FFFE0000
7FFF0000
7FFF0000
7FFFC000
7FFFE000
3FFFFF00
3FFFFFFE
1FFFFFFE
1FFFFFFE
0FFFFFFE
07FFFFFE
03FFFFFE
01FFFFFE
00FFFFFE
007FFFFE
001FFFFE
0007FFFE
0001FFFE
00007FFE
00007800
00007800
0000F800
0000F000
0000FF80
0000FFF0
0001FFF8
0001FFFC
0001FFFC
000007FE
000001FE
000001FE
000001FE
000001FE
00F003FE
00FFFFFC
00FFFFFC
00FFFFF8
00FFFFF0
003FFFE0
0001FE00
ENDCHAR
STARTCHAR 00E8
ENCODING 232
SWIDTH 551 0
DWIDTH 49 0
BBX 46 66 2 -1
BITMAP
003FF8000000
001FFC000000
000FFC000000
0007FE000000
0003FE000000
0001FF000000
0001FF800000
0000FF800000
00007FC00000
00003FC00000
00001FE00000
00000FE00000
00000FF00000
000007F00000
000003F80000
000001F80000
000000000000
000000000000
000000000000
000000000000
00001FC00000
0001FFFC0000
000FFFFF8000
001FFFFFC000
007FFFFFF000
00FFFFFFF800
01FFFFFFFC00
03FFFFFFFE00
07FFFFFFFF00
0FFFFFFFFF00
0FFFFFFFFF80
1FFFF03FFFC0
1FFFC00FFFC0
3FFF801FFFE0
3FFF007FFFE0
7FFE00FFFF80
7FFE03FFFF00
7FFC07FFFC00
7FFC1FFFF800
FFFC3FFFE000
FFFC7FFFC000
FFF87FFF0000
FFF83FFE0000
FFFC1FF80000
FFFC1FF01C00
FFFC0FC01F00
FFFC07803FC0
7FFE06007FF0
7FFF0000FFFC
7FFF0001FFFC
7FFF8003FFFC
3FFFE00FFFF8
3FFFFEFFFFF0
1FFFFFFFFFF0
1FFFFFFFFFE0
0FFFFFFFFFC0
07FFFFFFFFC0
07FFFFFFFF80
03FFFFFFFF00
01FFFFFFFE00
00FFFFFFFC00
007FFFFFF000
001FFFFFE000
0007FFFF8000
0001FFFE0000
00001FC00000
ENDCHAR
STARTCHAR 00E9
ENCODING 233
SWIDTH 551 0
DWIDTH 49 0
BBX 46 66 2 -1
BITMAP
000000FFE000
000001FFC000
000001FF8000
000003FF0000
000003FF0000
000007FE0000
000007FC0000
00000FF80000
00000FF00000
00001FE00000
00001FE00000
00003FC00000
00007F800000
00007F000000
0000FE000000
0000FC000000
000000000000
000000000000
000000000000
000000000000
00001FC00000
0001FFFC0000
000FFFFF8000
001FFFFFC000
007FFFFFF000
00FFFFFFF800
01FFFFFFFC00
03FFFFFFFE00
07FFFFFFFF00
0FFFFFFFFF00
0FFFFFFFFF80
1FFFF03FFFC0
1FFFC00FFFC0
3FFF801FFFE0
3FFF007FFFE0
7FFE00FFFF80
7FFE03FFFF00
7FFC07FFFC00
7FFC1FFFF800
FFFC3FFFE000
FFFC7FFFC000
FFF87FFF0000
FFF83FFE0000
FFFC1FF80000
FFFC1FF01C00
FFFC0FC01F00
FFFC07803FC0
7FFE06007FF0
7FFF0000FFFC
7FFF0001FFFC
7FFF8003FFFC
3FFFE00FFFF8
3FFFFEFFFFF0
1FFFFFFFFFF0
1FFFFFFFFFE0
0FFFFFFFFFC0
07FFFFFFFFC0
07FFFFFFFF80
03FFFFFFFF00
01FFFFFFFE00
00FFFFFFFC00
007FFFFFF000
001FFFFFE000
0007FFFF8000
0001FFFE0000
00001FC00000
ENDCHAR
STARTCHAR 00EA
ENCODING 234
SWIDTH 551 0
DWIDTH 49 0
BBX 46 66 2 -1
BITMAP
00007FF00000
00007FF80000
0000FFF80000
0000FFFC0000
0001FFFC0000
0001FFFE0000
0003FFFE0000
0007FDFF0000
0007F8FF0000
000FF07F8000
000FE03F8000
001FE03FC000
001FC01FC000
003F800FE000
003F0007E000
007E0003F000
000000000000
000000000000
000000000000
000000000000
00001FC00000
0001FFFC0000
000FFFFF8000
001FFFFFC000
007FFFFFF000
00FFFFFFF800
01FFFFFFFC00
03FFFFFFFE00
07FFFFFFFF00
0FFFFFFFFF00
0FFFFFFFFF80
1FFFF03FFFC0
1FFFC00FFFC0
3FFF801FFFE0
3FFF007FFFE0
7FFE00FFFF80
7FFE03FFFF00
7FFC07FFFC00
7FFC1FFFF800
FFFC3FFFE000
FFFC7FFFC000
FFF87FFF0000
FFF83FFE0000
FFFC1FF80000
FFFC1FF01C00
FFFC0FC01F00
FFFC07803FC0
7FFE06007FF0
7FFF0000FFFC
7FFF0001FFFC
7FFF8003FFFC
3FFFE00FFFF8
3FFFFEFFFFF0
1FFFFFFFFFF0
1FFFFFFFFFE0
0FFFFFFFFFC0
07FFFFFFFFC0
07FFFFFFFF80
03FFFFFFFF00
01FFFFFFFE00
00FFFFFFFC00
007FFFFFF000
001FFFFFE000
0007FFFF8000
0001FFFE0000
00001FC00000
ENDCHAR
STARTCHAR 00EB
ENCODING 235
SWIDTH 551 0
DWIDTH 49 0
BBX 46 64 2 -1
BITMAP
000000020000
000FC01F8000
001FE03FE000
003FF07FE000
003FF07FF000
007FF87FF000
007FF87FF000
003FF87FF000
003FF07FE000
003FF03FE000
001FE01FC000
000380070000
000000000000
000000000000
000000000000
000000000000
000000000000
000000000000
00001FC00000
0001FFFC0000
000FFFFF8000
001FFFFFC000
007FFFFFF000
00FFFFFFF800
01FFFFFFFC00
03FFFFFFFE00
07FFFFFFFF00
0FFFFFFFFF00
0FFFFFFFFF80
1FFFF03FFFC0
1FFFC00FFFC0
3FFF801FFFE0
3FFF007FFFE0
7FFE00FFFF80
7FFE03FFFF00
7FFC07FFFC00
7FFC1FFFF800
FFFC3FFFE000
FFFC7FFFC000
FFF87FFF0000
FFF83FFE0000
FFFC1FF80000
FFFC1FF01C00
FFFC0FC01F00
FFFC07803FC0
7FFE06007FF0
7FFF0000FFFC
7FFF0001FFFC
7FFF8003FFFC
3FFFE00FFFF8
3FFFFEFFFFF0
1FFFFFFFFFF0
1FFFFFFFFFE0
0FFFFFFFFFC0
07FFFFFFFFC0
07FFFFFFFF80
03FFFFFFFF00
01FFFFFFFE00
00FFFFFFFC00
007FFFFFF000
001FFFFFE000
0007FFFF8000
0001FFFE0000
00001FC00000
ENDCHAR
STARTCHAR 00EC
ENCODING 236
SWIDTH 247 0
DWIDTH 22 0
BBX 19 65 -1 0
BITMAP
FFE000
7FE000
7FF000
3FF000
1FF800
0FFC00
07FC00
03FE00
01FE00
01FF00
00FF00
007F80
003F80
001FC0
000FC0
000FE0
000000
000000
000000
000000
000000
07FFE0
07FFE0
07FFE0
07FFE0
07FFE0
07FFE0
07FFE0
07FFE0
07FFE0
07FFE0
07FFE0
07FFE0
07FFE0
07FFE0
07FFE0
07FFE0
07FFE0
07FFE0
07FFE0
07FFE0
07FFE0
07FFE0
07FFE0
07FFE0
07FFE0
07FFE0
07FFE0
07FFE0
07FFE0
07FFE0
07FFE0
07FFE0
07FFE0
07FFE0
07FFE0
07FFE0
07FFE0
07FFE0
07FFE0
07FFE0
07FFE0
07FFE0
07FFE0
07FFE0
ENDCHAR
STARTCHAR 00ED
ENCODING 237
SWIDTH 247 0
DWIDTH 22 0
BBX 19 65 4 0
BITMAP
00FFE0
00FFE0
01FFC0
01FF80
03FF00
03FE00
07FC00
07FC00
0FF800
0FF000
1FE000
1FC000
3F8000
7F0000
7F0000
FE0000
000000
000000
000000
000000
000000
FFFC00
FFFC00
FFFC00
FFFC00
FFFC00
FFFC00
FFFC00
FFFC00
FFFC00
FFFC00
FFFC00
FFFC00
FFFC00
FFFC00
FFFC00
FFFC00
FFFC00
FFFC00
FFFC00
FFFC00
FFFC00
FFFC00
FFFC00
FFFC00
FFFC00
FFFC00
FFFC00
FFFC00
FFFC00
FFFC00
FFFC00
FFFC00
FFFC00
FFFC00
FFFC00
FFFC00
FFFC00
FFFC00
FFFC00
FFFC00
FFFC00
FFFC00
FFFC00
FFFC00
ENDCHAR
STARTCHAR 00EE
ENCODING 238
SWIDTH 247 0
DWIDTH 22 0
BBX 26 65 -2 0
BITMAP
00FFE000
01FFE000
01FFF000
03FFF000
03FFF800
07FFF800
07FFFC00
0FF3FC00
1FF1FE00
1FE1FE00
3FC0FF00
3F807F00
7F003F80
7F001F80
FE001FC0
FC000FC0
00000000
00000000
00000000
00000000
00000000
03FFF000
03FFF000
03FFF000
03FFF000
03FFF000
03FFF000
03FFF000
03FFF000
03FFF000
03FFF000
03FFF000
03FFF000
03FFF000
03FFF000
03FFF000
03FFF000
03FFF000
03FFF000
03FFF000
03FFF000
03FFF000
03FFF000
03FFF000
03FFF000
03FFF000
03FFF000
03FFF000
03FFF000
03FFF000
03FFF000
03FFF000
03FFF000
03FFF000
03FFF000
03FFF000
03FFF000
03FFF000
03FFF000
03FFF000
03FFF000
03FFF000
03FFF000
03FFF000
03FFF000
ENDCHAR
STARTCHAR 00EF
ENCODING 239
SWIDTH 247 0
DWIDTH 22 0
BBX 26 62 -2 1
BITMAP
3F803F00
7FC0FF80
7FE0FFC0
FFE1FFC0
FFE1FFC0
FFE1FFC0
FFE1FFC0
FFE0FFC0
7FC0FF80
3F807F80
0E001C00
00000000
00000000
00000000
00000000
00000000
00000000
00000000
03FFF000
03FFF000
03FFF000
03FFF000
03FFF000
03FFF000
03FFF000
03FFF000
03FFF000
03FFF000
03FFF000
03FFF000
03FFF000
03FFF000
03FFF000
03FFF000
03FFF000
03FFF000
03FFF000
03FFF000
03FFF000
03FFF000
03FFF000
03FFF000
03FFF000
03FFF000
03FFF000
03FFF000
03FFF000
03FFF000
03FFF000
03FFF000
03FFF000
03FFF000
03FFF000
03FFF000
03FFF000
03FFF000
03FFF000
03FFF000
03FFF000
03FFF000
03FFF000
03FFF000
ENDCHAR
STARTCHAR 00F0
ENCODING 240
SWIDTH 528 0
DWIDTH 47 0
BBX 43 63 2 -1
BITMAP
007FFE000000
003FFE000000
003FFF03C000
001FFF8FC000
000FFFFFE000
000FFFFFE000
0007FFFFE000
0007FFFFF000
0007FFFFC000
003FFFFE0000
01FFFFF80000
01FFFFFC0000
00FFFFFE0000
00FFFFFE0000
00FFFFFF0000
007C3FFF8000
00601FFF8000
00001FFFC000
00000FFFE000
00000FFFE000
0000C7FFF000
0007E3FFF800
003FF3FFF800
007FF1FFFC00
01FFF9FFFE00
03FFF8FFFE00
07FFFC7FFF00
07FFFE7FFF00
0FFFFE3FFF80
1FFFFF3FFF80
1FFFFF1FFF80
3FFFFF9FFFC0
3FFFE00FFFC0
7FFF800FFFC0
7FFF0007FFE0
7FFF0007FFE0
7FFE0007FFE0
FFFE0003FFE0
FFFC0003FFE0
FFFC0003FFE0
FFFC0003FFE0
FFFC0003FFE0
FFFC0003FFE0
FFFC0003FFE0
FFFE0007FFE0
7FFE0007FFE0
7FFF000FFFE0
7FFF801FFFC0
3FFFC07FFFC0
3FFFFFFFFFC0
3FFFFFFFFF80
1FFFFFFFFF80
1FFFFFFFFF00
0FFFFFFFFE00
07FFFFFFFE00
03FFFFFFFC00
01FFFFFFF800
00FFFFFFF000
007FFFFFE000
003FFFFFC000
000FFFFF0000
0003FFFC0000
00007FE00000
ENDCHAR
STARTCHAR 00F1
ENCODING 241
SWIDTH 528 0
DWIDTH 47 0
BBX 40 63 4 0
BITMAP
00000007C0
0000000F80
000FE00F80
003FFE3F80
007FFFFF00
00FFFFFF00
00FFFFFE00
01FFFFFE00
01FFFFFC00
01F01FF800
03E001C000
03E0000000
0000000000
0000000000
0000000000
0000000000
0000000000
0000000000
0000FF0000
000FFFE000
003FFFF800
00FFFFFE00
01FFFFFF00
03FFFFFFC0
07FFFFFFE0
0FFFFFFFF0
1FFFFFFFF0
1FFFFFFFF8
3FFFFFFFF8
3FFFFFFFFC
7FFFFFFFFC
7FFFFFFFFE
7FFF01FFFE
FFFE00FFFE
FFFC007FFE
FFFC003FFF
FFFC003FFF
FFF8003FFF
FFF8003FFF
FFF8003FFF
FFF8003FFF
FFF8003FFF
FFF8003FFF
FFF8003FFF
FFF8003FFF
FFF8003FFF
FFF8003FFF
FFF8003FFF
FFF8003FFF
FFF8003FFF
FFF8003FFF
FFF8003FFF
FFF8003FFF
FFF8003FFF
FFF8003FFF
FFF8003FFF
FFF8003FFF
FFF8003FFF
FFF8003FFF
FFF8003FFF
FFF8003FFF
FFF8003FFF
FFF8003FFF
ENDCHAR
STARTCHAR 00F2
ENCODING 242
SWIDTH 540 0
DWIDTH 48 0
BBX 45 66 2 -1
BITMAP
003FF8000000
001FFC000000
000FFC000000
0007FE000000
0003FE000000
0003FF000000
0001FF000000
0000FF800000
00007FC00000
00003FC00000
00001FE00000
00001FE00000
00000FF00000
000007F00000
000003F80000
000001F80000
000000000000
000000000000
000000000000
000000000000
00003FE00000
0001FFFC0000
000FFFFF8000
001FFFFFC000
007FFFFFF000
00FFFFFFF800
01FFFFFFFC00
03FFFFFFFE00
07FFFFFFFF00
0FFFFFFFFF00
0FFFFFFFFF80
1FFFFFFFFFC0
1FFFFFFFFFC0
3FFFFFFFFFE0
3FFFE07FFFE0
7FFFC01FFFF0
7FFF800FFFF0
7FFF0007FFF0
7FFE0003FFF0
FFFE0003FFF0
FFFE0003FFF8
FFFE0003FFF8
FFFC0001FFF8
FFFE0001FFF8
FFFE0003FFF8
FFFE0003FFF8
FFFE0003FFF0
7FFF0007FFF0
7FFF0007FFF0
7FFF800FFFF0
7FFFC01FFFE0
3FFFF07FFFE0
3FFFFFFFFFE0
1FFFFFFFFFC0
1FFFFFFFFFC0
0FFFFFFFFF80
07FFFFFFFF00
07FFFFFFFF00
03FFFFFFFE00
01FFFFFFFC00
00FFFFFFF800
007FFFFFF000
001FFFFFC000
0007FFFF0000
0001FFFC0000
00001F800000
ENDCHAR
STARTCHAR 00F3
ENCODING 243
SWIDTH 540 0
DWIDTH 48 0
BBX 45 66 2 -1
BITMAP
000000FFE000
000001FFC000
000001FF8000
000003FF0000
000003FE0000
000007FE0000
000007FC0000
00000FF80000
00000FF00000
00001FE00000
00003FC00000
00003FC00000
00007F800000
00007F000000
0000FE000000
0000FC000000
000000000000
000000000000
000000000000
000000000000
00003FE00000
0001FFFC0000
000FFFFF8000
001FFFFFC000
007FFFFFF000
00FFFFFFF800
01FFFFFFFC00
03FFFFFFFE00
07FFFFFFFF00
0FFFFFFFFF00
0FFFFFFFFF80
1FFFFFFFFFC0
1FFFFFFFFFC0
3FFFFFFFFFE0
3FFFE07FFFE0
7FFFC01FFFF0
7FFF800FFFF0
7FFF0007FFF0
7FFE0003FFF0
FFFE0003FFF0
FFFE0003FFF8
FFFE0003FFF8
FFFC0001FFF8
FFFE0001FFF8
FFFE0003FFF8
FFFE0003FFF8
FFFE0003FFF0
7FFF0007FFF0
7FFF0007FFF0
7FFF800FFFF0
7FFFC01FFFE0
3FFFF07FFFE0
3FFFFFFFFFE0
1FFFFFFFFFC0
1FFFFFFFFFC0
0FFFFFFFFF80
07FFFFFFFF00
07FFFFFFFF00
03FFFFFFFE00
01FFFFFFFC00
00FFFFFFF800
007FFFFFF000
001FFFFFC000
0007FFFF0000
0001FFFC0000
00001F800000
ENDCHAR
STARTCHAR 00F4
ENCODING 244
SWIDTH 540 0
DWIDTH 48 0
BBX 45 66 2 -1
BITMAP
00007FF00000
00007FF00000
0000FFF80000
0000FFFC0000
0001FFFC0000
0003FFFE0000
0003FFFE0000
0007FDFF0000
0007F8FF0000
000FF07F8000
000FE03F8000
001FE03FC000
001FC01FC000
003F800FE000
003F0007E000
007E0003F000
000000000000
000000000000
000000000000
000000000000
00003FE00000
0001FFFC0000
000FFFFF8000
001FFFFFC000
007FFFFFF000
00FFFFFFF800
01FFFFFFFC00
03FFFFFFFE00
07FFFFFFFF00
0FFFFFFFFF00
0FFFFFFFFF80
1FFFFFFFFFC0
1FFFFFFFFFC0
3FFFFFFFFFE0
3FFFE07FFFE0
7FFFC01FFFF0
7FFF800FFFF0
7FFF0007FFF0
7FFE0003FFF0
FFFE0003FFF0
FFFE0003FFF8
FFFE0003FFF8
FFFC0001FFF8
FFFE0001FFF8
FFFE0003FFF8
FFFE0003FFF8
FFFE0003FFF0
7FFF0007FFF0
7FFF0007FFF0
7FFF800FFFF0
7FFFC01FFFE0
3FFFF07FFFE0
3FFFFFFFFFE0
1FFFFFFFFFC0
1FFFFFFFFFC0
0FFFFFFFFF80
07FFFFFFFF00
07FFFFFFFF00
03FFFFFFFE00
01FFFFFFFC00
00FFFFFFF800
007FFFFFF000
001FFFFFC000
0007FFFF0000
0001FFFC0000
00001F800000
ENDCHAR
STARTCHAR 00F5
ENCODING 245
SWIDTH 540 0
DWIDTH 48 0
BBX 45 64 2 -1
BITMAP
00000001F000
00000001F000
0003FC03F000
0007FF87E000
000FFFFFE000
001FFFFFE000
001FFFFFC000
003FFFFF8000
003FFFFF8000
007E03FE0000
007C00380000
007C00000000
000000000000
000000000000
000000000000
000000000000
000000000000
000000000000
00003FE00000
0001FFFC0000
000FFFFF8000
001FFFFFC000
007FFFFFF000
00FFFFFFF800
01FFFFFFFC00
03FFFFFFFE00
07FFFFFFFF00
0FFFFFFFFF00
0FFFFFFFFF80
1FFFFFFFFFC0
1FFFFFFFFFC0
3FFFFFFFFFE0
3FFFE07FFFE0
7FFFC01FFFF0
7FFF800FFFF0
7FFF0007FFF0
7FFE0003FFF0
FFFE0003FFF0
FFFE0003FFF8
FFFE0003FFF8
FFFC0001FFF8
FFFE0001FFF8
FFFE0003FFF8
FFFE0003FFF8
FFFE0003FFF0
7FFF0007FFF0
7FFF0007FFF0
7FFF800FFFF0
7FFFC01FFFE0
3FFFF07FFFE0
3FFFFFFFFFE0
1FFFFFFFFFC0
1FFFFFFFFFC0
0FFFFFFFFF80
07FFFFFFFF00
07FFFFFFFF00
03FFFFFFFE00
01FFFFFFFC00
00FFFFFFF800
007FFFFFF000
001FFFFFC000
0007FFFF0000
0001FFFC0000
00001F800000
ENDCHAR
STARTCHAR 00F6
ENCODING 246
SWIDTH 540 0
DWIDTH 48 0
BBX 45 63 2 0
BITMAP
000FC01F8000
001FE03FC000
003FF07FE000
007FF07FF000
007FF8FFF000
007FF8FFF000
007FF07FF000
003FF07FE000
003FF03FE000
001FE03FC000
000780070000
000000000000
000000000000
000000000000
000000000000
000000000000
000000000000
00003FE00000
0001FFFC0000
000FFFFF8000
001FFFFFC000
007FFFFFF000
00FFFFFFF800
01FFFFFFFC00
03FFFFFFFE00
07FFFFFFFF00
0FFFFFFFFF00
0FFFFFFFFF80
1FFFFFFFFFC0
1FFFFFFFFFC0
3FFFFFFFFFE0
3FFFE07FFFE0
7FFFC01FFFF0
7FFF800FFFF0
7FFF0007FFF0
7FFE0003FFF0
FFFE0003FFF0
FFFE0003FFF8
FFFE0003FFF8
FFFC0001FFF8
FFFE0001FFF8
FFFE0003FFF8
FFFE0003FFF8
FFFE0003FFF0
7FFF0007FFF0
7FFF0007FFF0
7FFF800FFFF0
7FFFC01FFFE0
3FFFF07FFFE0
3FFFFFFFFFE0
1FFFFFFFFFC0
1FFFFFFFFFC0
0FFFFFFFFF80
07FFFFFFFF00
07FFFFFFFF00
03FFFFFFFE00
01FFFFFFFC00
00FFFFFFF800
007FFFFFF000
001FFFFFC000
0007FFFF0000
0001FFFC0000
00001F800000
ENDCHAR
STARTCHAR 00F7
ENCODING 247
SWIDTH 832 0
DWIDTH 74 0
BBX 52 49 11 2
BITMAP
000001F8000000
000007FE000000
00000FFF000000
00000FFF000000
00001FFF800000
00001FFF800000
00001FFF800000
00001FFF800000
00001FFF800000
00001FFF800000
00000FFF000000
00000FFF000000
000003FC000000
000001F8000000
00000000000000
00000000000000
00000000000000
00000000000000
00000000000000
FFFFFFFFFFFFF0
FFFFFFFFFFFFF0
FFFFFFFFFFFFF0
FFFFFFFFFFFFF0
FFFFFFFFFFFFF0
FFFFFFFFFFFFF0
FFFFFFFFFFFFF0
FFFFFFFFFFFFF0
FFFFFFFFFFFFF0
FFFFFFFFFFFFF0
00000000000000
00000000000000
00000000000000
00000000000000
00000000000000
00000000000000
000001F8000000
000003FE000000
000007FF000000
00000FFF000000
00001FFF800000
00001FFF800000
00001FFF800000
00001FFF800000
00001FFF800000
00001FFF800000
00000FFF000000
00000FFF000000
000007FE000000
000001F8000000
ENDCHAR
STARTCHAR 00F8
ENCODING 248
SWIDTH 540 0
DWIDTH 48 0
BBX 45 52 2 -4
BITMAP
000000000300
000000000780
000000000FE0
00003FE00FF0
0001FFFC1FF8
000FFFFF3FF8
001FFFFFFFF0
007FFFFFFFE0
00FFFFFFFFC0
01FFFFFFFF80
03FFFFFFFF80
07FFFFFFFF00
0FFFFFFFFF00
0FFFFFFFFF80
1FFFFFFFFFC0
1FFFFFFFFFC0
3FFFF07FFFE0
3FFFC07FFFE0
7FFF80FFFFF0
7FFF01FFFFF0
7FFE03FFFFF0
7FFC07FFFFF0
FFFC07FDFFF0
FFFC0FF9FFF8
FFFC1FF1FFF8
FFFC3FE1FFF8
FFFC7FC1FFF8
FFFC7FC1FFF8
FFFCFF81FFF8
7FFDFF01FFF8
7FFFFE03FFF0
7FFFFC03FFF0
7FFFFC07FFF0
7FFFF80FFFF0
3FFFF01FFFE0
3FFFF87FFFE0
1FFFFFFFFFC0
1FFFFFFFFFC0
0FFFFFFFFF80
07FFFFFFFF80
07FFFFFFFF00
0FFFFFFFFE00
1FFFFFFFFC00
1FFFFFFFF800
3FFFFFFFF000
7FFFFFFFC000
FFE7FFFF0000
FFC1FFFC0000
7F801F800000
3F0000000000
1E0000000000
060000000000
ENDCHAR
STARTCHAR 00F9
ENCODING 249
SWIDTH 528 0
DWIDTH 47 0
BBX 40 66 4 -1
BITMAP
01FFE00000
00FFE00000
007FF00000
003FF00000
001FF80000
000FF80000
0007FC0000
0007FC0000
0003FE0000
0001FE0000
0000FF0000
00007F0000
00003F8000
00003F8000
00001FC000
00000FE000
0000000000
0000000000
0000000000
0000000000
0000000000
FFF8003FFF
FFF8003FFF
FFF8003FFF
FFF8003FFF
FFF8003FFF
FFF8003FFF
FFF8003FFF
FFF8003FFF
FFF8003FFF
FFF8003FFF
FFF8003FFF
FFF8003FFF
FFF8003FFF
FFF8003FFF
FFF8003FFF
FFF8003FFF
FFF8003FFF
FFF8003FFF
FFF8003FFF
FFF8003FFF
FFF8003FFF
FFF8003FFF
FFF8003FFF
FFF8003FFF
FFF8003FFF
FFF8003FFF
FFFC003FFF
FFFC003FFF
FFFC007FFE
FFFE00FFFE
FFFF01FFFE
7FFFFFFFFE
7FFFFFFFFC
3FFFFFFFFC
3FFFFFFFF8
1FFFFFFFF8
1FFFFFFFF0
0FFFFFFFE0
07FFFFFFE0
03FFFFFFC0
01FFFFFF80
007FFFFE00
003FFFFC00
000FFFE000
0000FE0000
ENDCHAR
STARTCHAR 00FA
ENCODING 250
SWIDTH 528 0
DWIDTH 47 0
BBX 40 66 4 -1
BITMAP
000007FF00
000007FE00
00000FFC00
00001FFC00
00001FF800
00003FF000
00003FE000
00007FC000
00007F8000
0000FF8000
0000FF0000
0001FE0000
0001FC0000
0003F80000
0003F00000
0007F00000
0000000000
0000000000
0000000000
0000000000
0000000000
FFF8003FFF
FFF8003FFF
FFF8003FFF
FFF8003FFF
FFF8003FFF
FFF8003FFF
FFF8003FFF
FFF8003FFF
FFF8003FFF
FFF8003FFF
FFF8003FFF
FFF8003FFF
FFF8003FFF
FFF8003FFF
FFF8003FFF
FFF8003FFF
FFF8003FFF
FFF8003FFF
FFF8003FFF
FFF8003FFF
FFF8003FFF
FFF8003FFF
FFF8003FFF
FFF8003FFF
FFF8003FFF
FFF8003FFF
FFFC003FFF
FFFC003FFF
FFFC007FFE
FFFE00FFFE
FFFF01FFFE
7FFFFFFFFE
7FFFFFFFFC
3FFFFFFFFC
3FFFFFFFF8
1FFFFFFFF8
1FFFFFFFF0
0FFFFFFFE0
07FFFFFFE0
03FFFFFFC0
01FFFFFF80
007FFFFE00
003FFFFC00
000FFFE000
0000FE0000
ENDCHAR
STARTCHAR 00FB
ENCODING 251
SWIDTH 528 0
DWIDTH 47 0
BBX 40 66 4 -1
BITMAP
0003FF8000
0003FFC000
0007FFC000
0007FFE000
000FFFE000
000FFFF000
001FFFF000
001FE7F800
003FC7F800
003FC3FC00
007F81FE00
007F00FE00
00FE007F00
00FC007F00
01FC003F80
03F8001F80
0000000000
0000000000
0000000000
0000000000
0000000000
FFF8003FFF
FFF8003FFF
FFF8003FFF
FFF8003FFF
FFF8003FFF
FFF8003FFF
FFF8003FFF
FFF8003FFF
FFF8003FFF
FFF8003FFF
FFF8003FFF
FFF8003FFF
FFF8003FFF
FFF8003FFF
FFF8003FFF
FFF8003FFF
FFF8003FFF
FFF8003FFF
FFF8003FFF
FFF8003FFF
FFF8003FFF
FFF8003FFF
FFF8003FFF
FFF8003FFF
FFF8003FFF
FFF8003FFF
FFFC003FFF
FFFC003FFF
FFFC007FFE
FFFE00FFFE
FFFF01FFFE
7FFFFFFFFE
7FFFFFFFFC
3FFFFFFFFC
3FFFFFFFF8
1FFFFFFFF8
1FFFFFFFF0
0FFFFFFFE0
07FFFFFFE0
03FFFFFFC0
01FFFFFF80
007FFFFE00
003FFFFC00
000FFFE000
0000FE0000
ENDCHAR
STARTCHAR 00FC
ENCODING 252
SWIDTH 528 0
DWIDTH 47 0
BBX 40 64 4 -1
BITMAP
0008001000
007F00FE00
00FF81FF00
01FF83FF00
01FFC3FF80
01FFC3FF80
01FFC3FF80
01FFC3FF80
01FF83FF80
00FF81FF00
007F00FE00
001C003C00
0000000000
0000000000
0000000000
0000000000
0000000000
0000000000
0000000000
FFF8003FFF
FFF8003FFF
FFF8003FFF
FFF8003FFF
FFF8003FFF
FFF8003FFF
FFF8003FFF
FFF8003FFF
FFF8003FFF
FFF8003FFF
FFF8003FFF
FFF8003FFF
FFF8003FFF
FFF8003FFF
FFF8003FFF
FFF8003FFF
FFF8003FFF
FFF8003FFF
FFF8003FFF
FFF8003FFF
FFF8003FFF
FFF8003FFF
FFF8003FFF
FFF8003FFF
FFF8003FFF
FFF8003FFF
FFFC003FFF
FFFC003FFF
FFFC007FFE
FFFE00FFFE
FFFF01FFFE
7FFFFFFFFE
7FFFFFFFFC
3FFFFFFFFC
3FFFFFFFF8
1FFFFFFFF8
1FFFFFFFF0
0FFFFFFFE0
07FFFFFFE0
03FFFFFFC0
01FFFFFF80
007FFFFE00
003FFFFC00
000FFFE000
0000FE0000
ENDCHAR
STARTCHAR 00FD
ENCODING 253
SWIDTH 528 0
DWIDTH 47 0
BBX 40 84 4 -19
BITMAP
000007FF00
000007FE00
00000FFC00
00001FFC00
00001FF800
00003FF000
00003FE000
00007FC000
00007F8000
0000FF8000
0000FF0000
0001FE0000
0001FC0000
0003F80000
0003F00000
0007F00000
0000000000
0000000000
0000000000
0000000000
0000000000
FFF8003FFF
FFF8003FFF
FFF8003FFF
FFF8003FFF
FFF8003FFF
FFF8003FFF
FFF8003FFF
FFF8003FFF
FFF8003FFF
FFF8003FFF
FFF8003FFF
FFF8003FFF
FFF8003FFF
FFF8003FFF
FFF8003FFF
FFF8003FFF
FFF8003FFF
FFF8003FFF
FFF8003FFF
FFF8003FFF
FFF8003FFF
FFF8003FFF
FFF8003FFF
FFF8003FFF
FFF8003FFF
FFF8003FFF
FFF8003FFF
FFFC003FFF
FFFC007FFE
FFFE007FFE
FFFF00FFFE
7FFF83FFFE
7FFFFFFFFC
7FFFFFFFFC
3FFFFFFFF8
3FFFFFFFF8
1FFFFFFFF0
0FFFFFFFF0
07FFFFFFE0
03FFFFFFC0
01FFFFFF80
00FFFFFE00
003FFFFC00
001FFFF000
0007FFE000
0007FFE000
0007FFE000
0007FFE000
0007FFE000
0007FFE000
0007FFE000
0007FFE000
0007FFE000
0007FFE000
0007FFE000
0007FFE000
0007FFE000
0007FFE000
0007FFE000
0007FFE000
0007FFE000
0007FFE000
0007FFE000
ENDCHAR
STARTCHAR 00FE
ENCODING 254
SWIDTH 551 0
DWIDTH 49 0
BBX 44 81 4 -19
BITMAP
FFF800000000
FFF800000000
FFF800000000
FFF800000000
FFF800000000
FFF800000000
FFF800000000
FFF800000000
FFF800000000
FFF800000000
FFF800000000
FFF800000000
FFF800000000
FFF800000000
FFF800000000
FFF800000000
FFF800000000
FFF87FC00000
FFFBFFFC0000
FFFFFFFF0000
FFFFFFFFC000
FFFFFFFFE000
FFFFFFFFF000
FFFFFFFFF800
FFFFFFFFFC00
FFFFFFFFFE00
FFFFFFFFFF00
FFFFFFFFFF80
FFFFFFFFFF80
FFFFFFFFFFC0
FFFFFFFFFFC0
FFFFE0FFFFC0
FFFF803FFFE0
FFFF001FFFE0
FFFE000FFFE0
FFFC0007FFE0
FFFC0007FFF0
FFFC0007FFF0
FFFC0003FFF0
FFF80003FFF0
FFF80003FFF0
FFF80007FFF0
FFF80007FFF0
FFF80007FFF0
FFF80007FFE0
FFF8000FFFE0
FFF8001FFFE0
FFF8003FFFE0
FFF8F1FFFFC0
FFF8FFFFFFC0
FFF8FFFFFFC0
FFF8FFFFFF80
FFF8FFFFFF00
FFF8FFFFFF00
FFF8FFFFFE00
FFF8FFFFFC00
FFF8FFFFF800
FFF8FFFFF000
FFF8FFFFE000
FFF8FFFF8000
FFF8FFFF0000
FFF8FFF80000
FFF80E000000
FFF800000000
FFF800000000
FFF800000000
FFF800000000
FFF800000000
FFF800000000
FFF800000000
FFF800000000
FFF800000000
FFF800000000
FFF800000000
FFF800000000
FFF800000000
FFF800000000
FFF800000000
FFF800000000
FFF800000000
FFF800000000
ENDCHAR
STARTCHAR 00FF
ENCODING 255
SWIDTH 528 0
DWIDTH 47 0
BBX 40 82 4 -19
BITMAP
0008001000
007F00FE00
00FF81FF00
01FF83FF00
01FFC3FF80
01FFC3FF80
01FFC3FF80
01FFC3FF80
01FF83FF80
00FF81FF00
007F00FE00
001C003C00
0000000000
0000000000
0000000000
0000000000
0000000000
0000000000
0000000000
FFF8003FFF
FFF8003FFF
FFF8003FFF
FFF8003FFF
FFF8003FFF
FFF8003FFF
FFF8003FFF
FFF8003FFF
FFF8003FFF
FFF8003FFF
FFF8003FFF
FFF8003FFF
FFF8003FFF
FFF8003FFF
FFF8003FFF
FFF8003FFF
FFF8003FFF
FFF8003FFF
FFF8003FFF
FFF8003FFF
FFF8003FFF
FFF8003FFF
FFF8003FFF
FFF8003FFF
FFF8003FFF
FFF8003FFF
FFF8003FFF
FFFC003FFF
FFFC007FFE
FFFE007FFE
FFFF00FFFE
7FFF83FFFE
7FFFFFFFFC
7FFFFFFFFC
3FFFFFFFF8
3FFFFFFFF8
1FFFFFFFF0
0FFFFFFFF0
07FFFFFFE0
03FFFFFFC0
01FFFFFF80
00FFFFFE00
003FFFFC00
001FFFF000
0007FFE000
0007FFE000
0007FFE000
0007FFE000
0007FFE000
0007FFE000
0007FFE000
0007FFE000
0007FFE000
0007FFE000
0007FFE000
0007FFE000
0007FFE000
0007FFE000
0007FFE000
0007FFE000
0007FFE000
0007FFE000
0007FFE000
ENDCHAR
STARTCHAR 0102
ENCODING 258
SWIDTH 618 0
DWIDTH 55 0
BBX 47 80 4 0
BITMAP
001F0000F800
001F0000F800
001F0001F800
001F8001F800
001FC003F000
000FF00FF000
000FFFFFF000
0007FFFFE000
0007FFFFC000
0003FFFFC000
0001FFFF8000
00007FFE0000
00001FF00000
000000000000
000000000000
000000000000
000000000000
00007FFC0000
0003FFFF8000
000FFFFFE000
003FFFFFF800
007FFFFFFC00
00FFFFFFFF00
01FFFFFFFF80
03FFFFFFFF80
07FFFFFFFFC0
07FFFFFFFFE0
0FFFFFFFFFF0
1FFFFFFFFFF0
1FFFFFFFFFF8
3FFFFFFFFFF8
3FFFFFFFFFFC
3FFFF01FFFFC
7FFFE007FFFC
7FFFC003FFFC
7FFF8003FFFE
7FFF0001FFFE
FFFF0001FFFE
FFFF0000FFFE
FFFF0000FFFE
FFFF0000FFFE
FFFF0000FFFE
FFFE3FFFFFFE
FFFE3FFFFFFE
FFFE3FFFFFFE
FFFE3FFFFFFE
FFFE3FFFFFFE
FFFE3FFFFFFE
FFFE3FFFFFFE
FFFE3FFFFFFE
FFFE3FFFFFFE
FFFE3FFFFFFE
FFFE3FFFFFFE
FFFE3FFFFFFE
FFFE3FFFFFFE
FFFE3FFFFFFE
FFFE3FFFFFFE
FFFE0000FFFE
FFFE0000FFFE
FFFE0000FFFE
FFFE0000FFFE
FFFE0000FFFE
FFFE0000FFFE
FFFE0000FFFE
FFFE0000FFFE
FFFE0000FFFE
FFFE0000FFFE
FFFE0000FFFE
FFFE0000FFFE
FFFE0000FFFE
FFFE0000FFFE
FFFE0000FFFE
FFFE0000FFFE
FFFE0000FFFE
FFFE0000FFFE
FFFE0000FFFE
FFFE0000FFFE
FFFE0000FFFE
FFFE0000FFFE
FFFE0000FFFE
ENDCHAR
STARTCHAR 0103
ENCODING 259
SWIDTH 551 0
DWIDTH 49 0
BBX 44 65 2 -1
BITMAP
003E0001F000
003E0001F000
003E0001F000
003F0003F000
003F0003F000
001FC007E000
001FF03FE000
001FFFFFE000
000FFFFFC000
0007FFFF8000
0003FFFF0000
0001FFFE0000
00007FF80000
00000FC00000
000000000000
000000000000
000000000000
000000000000
000000000000
00003FE00000
0003FFFC0000
000FFFFF8000
003FFFFFC000
007FFFFFF000
01FFFFFFF800
03FFFFFFFC00
07FFFFFFFE00
07FFFFFFFF00
0FFFFFFFFF80
1FFFFFFFFF80
1FFFFFFFFFC0
3FFFFFFFFFC0
3FFFFFFFFFE0
7FFFF07FFFE0
7FFFC01FFFE0
7FFF000FFFF0
7FFF0007FFF0
FFFE0003FFF0
FFFE0003FFF0
FFFE0003FFF0
FFFC0003FFF0
FFFC0003FFF0
FFFC0001FFF0
FFFC0001FFF0
FFFE0001FFF0
FFFE0001FFF0
FFFE0001FFF0
7FFF0001FFF0
7FFF8001FFF0
7FFFC001FFF0
3FFFF8F1FFF0
3FFFFFF1FFF0
3FFFFFF1FFF0
1FFFFFF1FFF0
1FFFFFF1FFF0
0FFFFFF1FFF0
07FFFFF1FFF0
03FFFFF1FFF0
01FFFFF1FFF0
00FFFFF1FFF0
007FFFF1FFF0
003FFFF1FFF0
000FFFF1FFF0
0001FFF1FFF0
000017800000
ENDCHAR
STARTCHAR 0106
ENCODING 262
SWIDTH 506 0
DWIDTH 45 0
BBX 41 84 2 0
BITMAP
00000007FF00
0000000FFE00
0000000FFC00
0000001FF800
0000003FF000
0000003FE000
0000007FE000
0000007FC000
000000FF8000
000000FF0000
000001FE0000
000001FC0000
000003FC0000
000003F80000
000007F00000
000007E00000
000000000000
000000000000
000000000000
000000000000
000000000000
000000000000
00000007FF80
000001FFFF80
00000FFFFF80
00003FFFFF80
0000FFFFFF80
0003FFFFFF80
0007FFFFFF80
001FFFFFFF80
003FFFFFFF80
007FFFFFFF80
00FFFFFFFF80
01FFFFFFFF80
03FFFFFFFF80
03FFFFFFFF80
07FFFFFFC000
0FFFFFF00000
0FFFFF800000
1FFFFE000000
1FFFFC000000
3FFFF8000000
3FFFF0000000
3FFFE0000000
7FFFC0000000
7FFFC0000000
7FFF80000000
7FFF80000000
7FFF80000000
7FFF80000000
7FFF00000000
FFFF00000000
FFFF00000000
FFFF00000000
FFFF00000000
7FFF00000000
7FFF80000000
7FFF80000000
7FFF80000000
7FFF80000000
7FFFC0000000
3FFFC0000000
3FFFE0000000
3FFFF0000000
3FFFF8000000
1FFFFC000000
1FFFFF000000
0FFFFFC00000
0FFFFFF80000
07FFFFFFFF80
03FFFFFFFF80
03FFFFFFFF80
01FFFFFFFF80
00FFFFFFFF80
007FFFFFFF80
003FFFFFFF80
000FFFFFFF80
0007FFFFFF80
0003FFFFFF80
0000FFFFFF80
00003FFFFF80
00000FFFFF80
000000FFFF80
00000003FF80
ENDCHAR
STARTCHAR 0107
ENCODING 263
SWIDTH 393 0
DWIDTH 35 0
BBX 33 65 2 0
BITMAP
000003FF80
000007FF00
00000FFE00
00000FFC00
00001FF800
00001FF000
00003FF000
00003FE000
00007FC000
00007F8000
0000FF0000
0000FE0000
0001FE0000
0001FC0000
0003F80000
0003F00000
0000000000
0000000000
0000000000
0000000000
0000000000
00000FFE00
0000FFFE00
0007FFFE00
001FFFFE00
007FFFFE00
00FFFFFE00
01FFFFFE00
03FFFFFE00
07FFFFFE00
0FFFFFFE00
1FFFFFFE00
1FFFFFFE00
3FFFFFFE00
3FFFFE0000
7FFFE00000
7FFFC00000
7FFF000000
7FFF000000
FFFE000000
FFFE000000
FFFC000000
FFFC000000
FFFC000000
FFFC000000
FFFE000000
FFFE000000
7FFF000000
7FFF000000
7FFFC00000
7FFFE00000
3FFFFF0000
3FFFFFFE00
1FFFFFFE00
1FFFFFFE00
0FFFFFFE00
07FFFFFE00
03FFFFFE00
01FFFFFE00
00FFFFFE00
007FFFFE00
001FFFFE00
0007FFFE00
0001FFFE00
00000FFE00
ENDCHAR
STARTCHAR 010C
ENCODING 268
SWIDTH 506 0
DWIDTH 45 0
BBX 41 84 2 0
BITMAP
0003F0003F80
0003F8003F00
0001FC007F00
0000FE00FE00
0000FE01FE00
00007F03FC00
00007F83FC00
00003FC7F800
00003FEFF800
00001FFFF000
00001FFFE000
00000FFFE000
00000FFFC000
000007FFC000
000007FF8000
000003FF8000
000000000000
000000000000
000000000000
000000000000
000000000000
000000000000
00000007FF80
000001FFFF80
00000FFFFF80
00003FFFFF80
0000FFFFFF80
0003FFFFFF80
0007FFFFFF80
001FFFFFFF80
003FFFFFFF80
007FFFFFFF80
00FFFFFFFF80
01FFFFFFFF80
03FFFFFFFF80
03FFFFFFFF80
07FFFFFFC000
0FFFFFF00000
0FFFFF800000
1FFFFE000000
1FFFFC000000
3FFFF8000000
3FFFF0000000
3FFFE0000000
7FFFC0000000
7FFFC0000000
7FFF80000000
7FFF80000000
7FFF80000000
7FFF80000000
7FFF00000000
FFFF00000000
FFFF00000000
FFFF00000000
FFFF00000000
7FFF00000000
7FFF80000000
7FFF80000000
7FFF80000000
7FFF80000000
7FFFC0000000
3FFFC0000000
3FFFE0000000
3FFFF0000000
3FFFF8000000
1FFFFC000000
1FFFFF000000
0FFFFFC00000
0FFFFFF80000
07FFFFFFFF80
03FFFFFFFF80
03FFFFFFFF80
01FFFFFFFF80
00FFFFFFFF80
007FFFFFFF80
003FFFFFFF80
000FFFFFFF80
0007FFFFFF80
0003FFFFFF80
0000FFFFFF80
00003FFFFF80
00000FFFFF80
000000FFFF80
00000003FF80
ENDCHAR
STARTCHAR 010D
ENCODING 269
SWIDTH 393 0
DWIDTH 35 0
BBX 34 65 2 0
BITMAP
01F8001FC0
01FC001F80
00FE003F80
00FF007F00
007F00FF00
003F81FE00
003FC1FE00
001FE3FC00
001FF7FC00
000FFFF800
000FFFF000
0007FFF000
0007FFE000
0003FFE000
0003FFC000
0001FFC000
0000000000
0000000000
0000000000
0000000000
0000000000
00000FFE00
0000FFFE00
0007FFFE00
001FFFFE00
007FFFFE00
00FFFFFE00
01FFFFFE00
03FFFFFE00
07FFFFFE00
0FFFFFFE00
1FFFFFFE00
1FFFFFFE00
3FFFFFFE00
3FFFFE0000
7FFFE00000
7FFFC00000
7FFF000000
7FFF000000
FFFE000000
FFFE000000
FFFC000000
FFFC000000
FFFC000000
FFFC000000
FFFE000000
FFFE000000
7FFF000000
7FFF000000
7FFFC00000
7FFFE00000
3FFFFF0000
3FFFFFFE00
1FFFFFFE00
1FFFFFFE00
0FFFFFFE00
07FFFFFE00
03FFFFFE00
01FFFFFE00
00FFFFFE00
007FFFFE00
001FFFFE00
0007FFFE00
0001FFFE00
00000FFE00
ENDCHAR
STARTCHAR 0110
ENCODING 272
SWIDTH 641 0
DWIDTH 57 0
BBX 55 62 0 0
BITMAP
07FFFFF0000000
07FFFFFF800000
07FFFFFFF00000
07FFFFFFFC0000
07FFFFFFFF0000
07FFFFFFFFC000
07FFFFFFFFE000
07FFFFFFFFF000
07FFFFFFFFF800
07FFFFFFFFFC00
07FFFFFFFFFE00
07FFFFFFFFFF00
07FFFFFFFFFF80
07FFFFFFFFFFC0
07FFFFFFFFFFC0
07FFF00FFFFFE0
07FFF001FFFFE0
07FFF000FFFFF0
07FFF0003FFFF0
07FFF0001FFFF8
07FFF0000FFFF8
07FFF0000FFFFC
07FFF00007FFFC
07FFF00003FFFC
07FFF00003FFFC
FFFFFFE003FFFE
FFFFFFE001FFFE
FFFFFFE001FFFE
FFFFFFE001FFFE
FFFFFFE001FFFE
FFFFFFE001FFFE
FFFFFFE001FFFE
FFFFFFE001FFFE
FFFFFFE001FFFE
07FFF00001FFFE
07FFF00001FFFE
07FFF00003FFFE
07FFF00003FFFC
07FFF00007FFFC
07FFF00007FFFC
07FFF0000FFFFC
07FFF0001FFFF8
07FFF0003FFFF8
07FFF0007FFFF0
07FFF000FFFFF0
07FFF003FFFFE0
07FFF01FFFFFE0
07FFF1FFFFFFC0
07FFF1FFFFFFC0
07FFF1FFFFFF80
07FFF1FFFFFF00
07FFF1FFFFFE00
07FFF1FFFFFC00
07FFF1FFFFF800
07FFF1FFFFF000
07FFF1FFFFE000
07FFF1FFFFC000
07FFF1FFFF0000
07FFF1FFFC0000
07FFF1FFF00000
07FFF1FF800000
07FFF1F0000000
ENDCHAR
STARTCHAR 0111
ENCODING 273
SWIDTH 562 0
DWIDTH 50 0
BBX 48 63 2 -1
BITMAP
00000001FFF0
00000001FFF0
00000001FFF0
00000001FFF0
00000001FFF0
00000FFFFFFF
00000FFFFFFF
00000FFFFFFF
00000FFFFFFF
00000FFFFFFF
00000FFFFFFF
00000FFFFFFF
00000001FFF0
00000001FFF0
00000001FFF0
00000001FFF0
00000001FFF0
00000F81FFF0
0001FFF1FFF0
000FFFF1FFF0
003FFFF1FFF0
007FFFF1FFF0
00FFFFF1FFF0
01FFFFF1FFF0
03FFFFF1FFF0
07FFFFF1FFF0
0FFFFFF1FFF0
1FFFFFF1FFF0
1FFFFFF1FFF0
3FFFFFF1FFF0
3FFFFFF1FFF0
7FFFF8F1FFF0
7FFFC001FFF0
7FFF8001FFF0
7FFF0001FFF0
FFFE0001FFF0
FFFE0001FFF0
FFFE0001FFF0
FFFC0001FFF0
FFFC0001FFF0
FFFC0003FFF0
FFFC0003FFF0
FFFE0003FFF0
FFFE0003FFF0
FFFE0003FFF0
7FFF0007FFF0
7FFF800FFFE0
7FFFC01FFFE0
7FFFF07FFFE0
3FFFFFFFFFC0
3FFFFFFFFFC0
1FFFFFFFFFC0
1FFFFFFFFF80
0FFFFFFFFF00
07FFFFFFFF00
03FFFFFFFE00
01FFFFFFFC00
00FFFFFFF800
007FFFFFF000
003FFFFFC000
000FFFFF8000
0003FFFC0000
00001F800000
ENDCHAR
STARTCHAR 011E
ENCODING 286
SWIDTH 765 0
DWIDTH 68 0
BBX 63 84 3 -1
BITMAP
00003E0001F80000
00003E0001F80000
00003F0001F80000
00003F0001F00000
00001F8003F00000
00001FC007F00000
00001FF01FE00000
00000FFFFFE00000
00000FFFFFC00000
000007FFFFC00000
000003FFFF800000
000001FFFF000000
0000007FFC000000
00000007C0000000
0000000000000000
0000000000000000
0000000000000000
0000000000000000
0000000000000000
0000000000000000
0000007FFF000000
000007FFFFE00000
00001FFFFFFC0000
00007FFFFFFF0000
0001FFFFFFFFC000
0007FFFFFFFFE000
000FFFFFFFFFF800
001FFFFFFFFFFC00
003FFFFFFFFFFE00
007FFFFFFFFFFF00
00FFFFFFFFFFFE00
01FFFFFFFFFFFC00
03FFFFFFFFFFF800
07FFFFFFFFFFF000
07FFFFFFFFFFE000
0FFFFFE003FFC000
1FFFFF0000FF8000
1FFFFE00003F8000
3FFFF800001F0000
3FFFF00000060000
7FFFE00000000000
7FFFE00000000000
7FFFC00000000000
7FFF800000000000
FFFF8001FFFFFFFE
FFFF8001FFFFFFFE
FFFF0001FFFFFFFE
FFFF0001FFFFFFFE
FFFF0001FFFFFFFE
FFFF0001FFFFFFFE
FFFF0001FFFFFFFE
FFFE0001FFFFFFFE
FFFE0001FFFFFFFE
FFFF0001FFFFFFFE
FFFF0001FFFFFFFE
FFFF0001FFFFFFFE
FFFF0001FFFFFFFC
FFFF0001FFFFFFFC
FFFF80000003FFFC
FFFF80000007FFFC
7FFFC0000007FFFC
7FFFC000000FFFF8
7FFFE000000FFFF8
3FFFF000001FFFF8
3FFFF800003FFFF0
3FFFFC00007FFFF0
1FFFFF0000FFFFE0
1FFFFFC003FFFFE0
0FFFFFFE7FFFFFC0
07FFFFFFFFFFFFC0
07FFFFFFFFFFFF80
03FFFFFFFFFFFF00
01FFFFFFFFFFFF00
00FFFFFFFFFFFE00
007FFFFFFFFFFC00
003FFFFFFFFFF800
001FFFFFFFFFF000
000FFFFFFFFFE000
0007FFFFFFFFC000
0001FFFFFFFF0000
00007FFFFFFC0000
00001FFFFFF00000
000007FFFFC00000
0000007FFC000000
ENDCHAR
STARTCHAR 011F
ENCODING 287
SWIDTH 551 0
DWIDTH 49 0
BBX 44 84 2 -20
BITMAP
003E0001F000
003E0001F000
003E0001F000
003F0003F000
003F0007F000
003F800FE000
001FF03FE000
001FFFFFE000
000FFFFFC000
0007FFFF8000
0007FFFF0000
0001FFFE0000
0000FFF80000
00000F800000
000000000000
000000000000
000000000000
000000000000
000000000000
00003FE00000
0003FFFC0000
000FFFFF8000
003FFFFFC000
007FFFFFF000
00FFFFFFF800
03FFFFFFFC00
03FFFFFFFE00
07FFFFFFFF00
0FFFFFFFFF80
1FFFFFFFFF80
1FFFFFFFFFC0
3FFFFFFFFFC0
3FFFFFFFFFE0
7FFFF07FFFE0
7FFFC01FFFE0
7FFF800FFFF0
7FFF0007FFF0
7FFE0003FFF0
FFFE0003FFF0
FFFE0003FFF0
FFFC0003FFF0
FFFC0003FFF0
FFFC0001FFF0
FFFC0001FFF0
FFFE0001FFF0
FFFE0001FFF0
7FFE0001FFF0
7FFF0001FFF0
7FFF8001FFF0
7FFFC001FFF0
3FFFF8F1FFF0
3FFFFFF1FFF0
1FFFFFF1FFF0
1FFFFFF1FFF0
0FFFFFF1FFF0
0FFFFFF1FFF0
07FFFFF1FFF0
03FFFFF1FFF0
01FFFFF1FFF0
00FFFFF1FFF0
003FFFF3FFF0
001FFFF3FFF0
0007FFF3FFF0
0000FFF3FFF0
00000003FFF0
00000003FFF0
00000007FFF0
00000007FFF0
0000000FFFF0
03C0001FFFE0
03FE00FFFFE0
03FFFFFFFFE0
03FFFFFFFFC0
03FFFFFFFFC0
03FFFFFFFF80
03FFFFFFFF80
03FFFFFFFF00
03FFFFFFFE00
03FFFFFFFC00
03FFFFFFF800
03FFFFFFE000
03FFFFFF8000
007FFFFE0000
00003F800000
ENDCHAR
STARTCHAR 0128
ENCODING 296
SWIDTH 281 0
DWIDTH 25 0
BBX 27 82 -1 0
BITMAP
000001E0
000003E0
07F803E0
0FFF8FE0
1FFFFFC0
3FFFFFC0
3FFFFF80
7FFFFF80
7FFFFF00
7C07FC00
F8007000
F8000000
00000000
00000000
00000000
00000000
00000000
00000000
00000000
00000000
03FFF800
03FFF800
03FFF800
03FFF800
03FFF800
03FFF800
03FFF800
03FFF800
03FFF800
03FFF800
03FFF800
03FFF800
03FFF800
03FFF800
03FFF800
03FFF800
03FFF800
03FFF800
03FFF800
03FFF800
03FFF800
03FFF800
03FFF800
03FFF800
03FFF800
03FFF800
03FFF800
03FFF800
03FFF800
03FFF800
03FFF800
03FFF800
03FFF800
03FFF800
03FFF800
03FFF800
03FFF800
03FFF800
03FFF800
03FFF800
03FFF800
03FFF800
03FFF800
03FFF800
03FFF800
03FFF800
03FFF800
03FFF800
03FFF800
03FFF800
03FFF800
03FFF800
03FFF800
03FFF800
03FFF800
03FFF800
03FFF800
03FFF800
03FFF800
03FFF800
03FFF800
03FFF800
ENDCHAR
STARTCHAR 0129
ENCODING 297
SWIDTH 247 0
DWIDTH 22 0
BBX 27 63 -2 0
BITMAP
000003E0
000003E0
07F807E0
0FFF8FC0
1FFFFFC0
3FFFFFC0
3FFFFF80
7FFFFF00
7FFFFE00
FC07FC00
F8007000
F8000000
00000000
00000000
00000000
00000000
00000000
00000000
00000000
03FFF000
03FFF000
03FFF000
03FFF000
03FFF000
03FFF000
03FFF000
03FFF000
03FFF000
03FFF000
03FFF000
03FFF000
03FFF000
03FFF000
03FFF000
03FFF000
03FFF000
03FFF000
03FFF000
03FFF000
03FFF000
03FFF000
03FFF000
03FFF000
03FFF000
03FFF000
03FFF000
03FFF000
03FFF000
03FFF000
03FFF000
03FFF000
03FFF000
03FFF000
03FFF000
03FFF000
03FFF000
03FFF000
03FFF000
03FFF000
03FFF000
03FFF000
03FFF000
03FFF000
ENDCHAR
STARTCHAR 0130
ENCODING 304
SWIDTH 281 0
DWIDTH 25 0
BBX 15 82 5 0
BITMAP
07C0
1FF0
1FF0
3FF8
3FF8
3FF8
3FF8
3FF8
1FF0
0FF0
07C0
0000
0000
0000
0000
0000
0000
0000
0000
0000
FFFE
FFFE
FFFE
FFFE
FFFE
FFFE
FFFE
FFFE
FFFE
FFFE
FFFE
FFFE
FFFE
FFFE
FFFE
FFFE
FFFE
FFFE
FFFE
FFFE
FFFE
FFFE
FFFE
FFFE
FFFE
FFFE
FFFE
FFFE
FFFE
FFFE
FFFE
FFFE
FFFE
FFFE
FFFE
FFFE
FFFE
FFFE
FFFE
FFFE
FFFE
FFFE
FFFE
FFFE
FFFE
FFFE
FFFE
FFFE
FFFE
FFFE
FFFE
FFFE
FFFE
FFFE
FFFE
FFFE
FFFE
FFFE
FFFE
FFFE
FFFE
FFFE
ENDCHAR
STARTCHAR 0131
ENCODING 305
SWIDTH 247 0
DWIDTH 22 0
BBX 14 44 4 0
BITMAP
FFFC
FFFC
FFFC
FFFC
FFFC
FFFC
FFFC
FFFC
FFFC
FFFC
FFFC
FFFC
FFFC
FFFC
FFFC
FFFC
FFFC
FFFC
FFFC
FFFC
FFFC
FFFC
FFFC
FFFC
FFFC
FFFC
FFFC
FFFC
FFFC
FFFC
FFFC
FFFC
FFFC
FFFC
FFFC
FFFC
FFFC
FFFC
FFFC
FFFC
FFFC
FFFC
FFFC
FFFC
ENDCHAR
STARTCHAR 0141
ENCODING 321
SWIDTH 438 0
DWIDTH 39 0
BBX 39 62 0 0
BITMAP
07FFF00000
07FFF00000
07FFF00000
07FFF00000
07FFF00000
07FFF00000
07FFF00000
07FFF00000
07FFF00000
07FFF00000
07FFF00000
07FFF00000
07FFF00000
07FFF00000
07FFF00C00
07FFF01C00
07FFF07C00
07FFF0FC00
07FFF3FC00
07FFF7FC00
07FFFFFC00
07FFFFFC00
07FFFFFC00
07FFFFFC00
07FFFFFC00
07FFFFF800
07FFFFE000
07FFFFC000
07FFFF0000
1FFFFE0000
3FFFF80000
FFFFF00000
FFFFF00000
FFFFF00000
FFFFF00000
FFFFF00000
FFFFF00000
FFFFF00000
FFFFF00000
FFFFF00000
E7FFF00000
C7FFF00000
87FFF00000
07FFF80000
07FFF80000
07FFFC0000
07FFFE0000
07FFFFFFFE
03FFFFFFFE
03FFFFFFFE
03FFFFFFFE
01FFFFFFFE
01FFFFFFFE
00FFFFFFFE
00FFFFFFFE
007FFFFFFE
003FFFFFFE
001FFFFFFE
000FFFFFFE
0003FFFFFE
0000FFFFFE
00000FFFFE
ENDCHAR
STARTCHAR 0142
ENCODING 322
SWIDTH 270 0
DWIDTH 24 0
BBX 24 62 0 0
BITMAP
07FFE0
07FFE0
07FFE0
07FFE0
07FFE0
07FFE0
07FFE0
07FFE0
07FFE0
07FFE0
07FFE0
07FFE0
07FFE0
07FFE0
07FFE0
07FFE0
07FFE0
07FFE0
07FFE1
07FFE3
07FFEF
07FFFF
07FFFF
07FFFF
07FFFF
07FFFF
07FFFF
07FFFE
07FFFC
0FFFF8
1FFFE0
3FFFE0
FFFFE0
FFFFE0
FFFFE0
FFFFE0
FFFFE0
FFFFE0
FFFFE0
E7FFE0
C7FFE0
07FFE0
07FFE0
07FFE0
07FFE0
07FFE0
07FFE0
07FFE0
07FFE0
07FFE0
07FFE0
07FFE0
07FFE0
07FFE0
07FFE0
07FFE0
07FFE0
07FFE0
07FFE0
07FFE0
07FFE0
07FFE0
ENDCHAR
STARTCHAR 0152
ENCODING 338
SWIDTH 1035 0
DWIDTH 92 0
BBX 86 64 2 -1
BITMAP
0000007FFE000000000000
000003FFFFC00000001FFC
00001FFFFFF8000003FFFC
00007FFFFFFE00001FFFFC
0000FFFFFFFF0000FFFFFC
0003FFFFFFFFC003FFFFFC
0007FFFFFFFFE007FFFFFC
000FFFFFFFFFF01FFFFFFC
003FFFFFFFFFF83FFFFFFC
007FFFFFFFFFFC7FFFFFFC
007FFFFFFFFFFEFFFFFFFC
00FFFFFFFFFFFFFFFFFFFC
01FFFFFFFFFFFFFFFFFFFC
03FFFFFFFFFFFFFFFFFFFC
07FFFFFFFFFFFFFFFFFFFC
07FFFFF80FFFFFFFFFF000
0FFFFFC001FFFFFFFF0000
0FFFFF00007FFFFFFC0000
1FFFFC00003FFFFFF00000
1FFFF800001FFFFFE00000
3FFFF000000FFFFFC00000
3FFFF0000007FFFF800000
3FFFE0000003FFFF000000
7FFFC0000003FFFF000000
7FFFC0000001FFFE000000
7FFF80000001FFFFFFFFFC
7FFF80000000FFFFFFFFFC
7FFF80000000FFFFFFFFFC
7FFF80000000FFFFFFFFFC
7FFF00000000FFFFFFFFFC
FFFF00000000FFFFFFFFFC
FFFF00000000FFFFFFFFFC
FFFF00000000FFFFFFFFFC
FFFF00000000FFFFFFFFFC
7FFF00000000FFFFFFFFFC
7FFF80000000FFFFFFFFFC
7FFF80000000FFFFFFFFFC
7FFF80000001FFFFFFFFFC
7FFFC0000001FFFFFFFFFC
7FFFC0000001FFFE000000
3FFFE0000003FFFF000000
3FFFE0000007FFFF000000
3FFFF0000007FFFF800000
1FFFF800000FFFFFC00000
1FFFFC00001FFFFFE00000
1FFFFE00003FFFFFF00000
0FFFFF8000FFFFFFFC0000
0FFFFFE003FFFFFFFF8000
07FFFFFE7FFFFFFFFFFE00
03FFFFFFFFFFFFFFFFFFFC
03FFFFFFFFFFFFFFFFFFFC
01FFFFFFFFFFFFFFFFFFFC
00FFFFFFFFFFFFFFFFFFFC
007FFFFFFFFFFEFFFFFFFC
003FFFFFFFFFFC7FFFFFFC
001FFFFFFFFFF83FFFFFFC
000FFFFFFFFFF01FFFFFFC
0007FFFFFFFFE007FFFFFC
0003FFFFFFFFC001FFFFFC
0000FFFFFFFF00007FFFFC
00003FFFFFFE00001FFFFC
00000FFFFFF8000001FFFC
000003FFFFC000000007FC
0000003FFC000000000000
ENDCHAR
STARTCHAR 0153
ENCODING 339
SWIDTH 888 0
DWIDTH 79 0
BBX 76 46 2 -1
BITMAP
00001FC000007F800000
0001FFFC0007FFF80000
000FFFFF001FFFFE0000
001FFFFFC03FFFFF8000
007FFFFFE0FFFFFFC000
00FFFFFFF1FFFFFFE000
01FFFFFFFBFFFFFFF000
03FFFFFFFFFFFFFFF800
07FFFFFFFFFFFFFFFC00
07FFFFFFFFFFFFFFFE00
0FFFFFFFFFFFFFFFFE00
1FFFFFFFFFFFC0FFFF00
1FFFFFFFFFFF003FFF80
3FFFFFFFFFFE007FFF80
3FFFE07FFFFC01FFFF80
7FFFC01FFFF803FFFE00
7FFF800FFFF807FFFC00
7FFF0007FFF01FFFF000
7FFE0003FFF03FFFE000
FFFE0003FFF0FFFFC000
FFFE0003FFF1FFFF0000
FFFE0003FFF0FFFE0000
FFFC0001FFF0FFF80000
FFFE0001FFF07FF00000
FFFE0003FFF03FC03000
FFFE0003FFF03F807C00
FFFE0003FFF81E00FF00
7FFF0007FFF80C00FFC0
7FFF0007FFFC0001FFF0
7FFF800FFFFE0003FFF0
7FFFC01FFFFF000FFFF0
3FFFF07FFFFF801FFFE0
3FFFFFFFFFFFFBFFFFE0
1FFFFFFFFFFFFFFFFFC0
1FFFFFFFFFFFFFFFFF80
0FFFFFFFFFFFFFFFFF80
0FFFFFFFFFFFFFFFFF00
07FFFFFFFFFFFFFFFE00
03FFFFFFFFFFFFFFFC00
01FFFFFFFBFFFFFFF800
00FFFFFFF1FFFFFFF000
007FFFFFE0FFFFFFE000
001FFFFF803FFFFF8000
000FFFFF001FFFFE0000
0001FFF80003FFF80000
00003F8000003F800000
ENDCHAR
STARTCHAR 015E
ENCODING 350
SWIDTH 528 0
DWIDTH 47 0
BBX 42 83 3 -21
BITMAP
0007FFFFFC00
003FFFFFFC00
00FFFFFFFC00
03FFFFFFFC00
07FFFFFFFC00
0FFFFFFFFC00
1FFFFFFFFC00
1FFFFFFFFC00
3FFFFFFFFC00
7FFFFFFFFC00
7FFFFFFFFC00
7FFFFFFFFC00
FFFFFFFFFC00
FFFFFFFFFC00
FFFFC0000000
FFFF00000000
FFFF00000000
FFFF00000000
FFFF80000000
FFFF80000000
FFFFE0000000
7FFFF0000000
7FFFFC000000
3FFFFE000000
3FFFFF800000
1FFFFFE00000
1FFFFFF00000
0FFFFFFC0000
07FFFFFF0000
03FFFFFF8000
01FFFFFFE000
007FFFFFF000
003FFFFFF800
000FFFFFFC00
0003FFFFFE00
0001FFFFFE00
00007FFFFF00
00001FFFFF00
00000FFFFF80
000003FFFF80
000001FFFF80
000000FFFFC0
0000007FFFC0
0000007FFFC0
0000007FFFC0
0000007FFFC0
000000FFFFC0
FFFFFFFFFFC0
FFFFFFFFFFC0
FFFFFFFFFF80
FFFFFFFFFF80
FFFFFFFFFF80
FFFFFFFFFF00
FFFFFFFFFF00
FFFFFFFFFE00
FFFFFFFFFC00
FFFFFFFFF800
FFFFFFFFF000
FFFFFFFFE000
FFFFFFFF8000
FFFFFFFE0000
FFFFFFE00000
00000F000000
00000F000000
00001F000000
00001F000000
00001FF00000
00001FFE0000
00001FFF0000
00003FFF8000
00003FFF8000
000000FFC000
0000003FC000
0000003FC000
0000003FC000
0000003FC000
001E007FC000
001FFFFF8000
001FFFFF8000
001FFFFF0000
001FFFFE0000
0007FFFC0000
00003FE00000
ENDCHAR
STARTCHAR 015F
ENCODING 351
SWIDTH 427 0
DWIDTH 38 0
BBX 33 65 3 -21
BITMAP
001FFFFE00
00FFFFFE00
03FFFFFE00
0FFFFFFE00
1FFFFFFE00
3FFFFFFE00
3FFFFFFE00
7FFFFFFE00
7FFFFFFE00
7FFFFFFE00
7FFFFFFE00
FFFFFFFE00
FFFC000000
7FFC000000
7FFC000000
7FFF000000
7FFFC00000
3FFFF80000
3FFFFE0000
1FFFFF8000
0FFFFFE000
07FFFFF000
03FFFFF800
00FFFFFC00
007FFFFE00
000FFFFF00
0003FFFF00
0000FFFF80
00003FFF80
00001FFF80
00001FFF80
00007FFF80
FFFFFFFF80
FFFFFFFF80
FFFFFFFF80
FFFFFFFF80
FFFFFFFF00
FFFFFFFF00
FFFFFFFE00
FFFFFFFC00
FFFFFFF800
FFFFFFF000
FFFFFFC000
FFFFFE0000
0001F00000
0001F00000
0001E00000
0001E00000
0001FF0000
0003FFC000
0003FFE000
0003FFF000
0003FFF800
00000FF800
000007F800
000003FC00
000003FC00
000003F800
01E007F800
01FFFFF800
01FFFFF800
01FFFFF000
01FFFFE000
00FFFF8000
0003FC0000
ENDCHAR
STARTCHAR 0160
ENCODING 352
SWIDTH 528 0
DWIDTH 47 0
BBX 42 84 3 0
BITMAP
01FC000FC000
00FC001FC000
007E003F8000
007F003F8000
003F807F0000
003FC0FF0000
001FE1FE0000
001FE3FE0000
000FF3FC0000
000FFFFC0000
0007FFF80000
0007FFF80000
0003FFF00000
0003FFE00000
0001FFE00000
0001FFC00000
000000000000
000000000000
000000000000
000000000000
000000000000
000000000000
0007FFFFFC00
003FFFFFFC00
00FFFFFFFC00
03FFFFFFFC00
07FFFFFFFC00
0FFFFFFFFC00
1FFFFFFFFC00
1FFFFFFFFC00
3FFFFFFFFC00
7FFFFFFFFC00
7FFFFFFFFC00
7FFFFFFFFC00
FFFFFFFFFC00
FFFFFFFFFC00
FFFFC0000000
FFFF00000000
FFFF00000000
FFFF00000000
FFFF80000000
FFFF80000000
FFFFE0000000
7FFFF0000000
7FFFFC000000
3FFFFE000000
3FFFFF800000
1FFFFFE00000
1FFFFFF00000
0FFFFFFC0000
07FFFFFF0000
03FFFFFF8000
01FFFFFFE000
007FFFFFF000
003FFFFFF800
000FFFFFFC00
0003FFFFFE00
0001FFFFFE00
00007FFFFF00
00001FFFFF00
00000FFFFF80
000003FFFF80
000001FFFF80
000000FFFFC0
0000007FFFC0
0000007FFFC0
0000007FFFC0
0000007FFFC0
000000FFFFC0
FFFFFFFFFFC0
FFFFFFFFFFC0
FFFFFFFFFF80
FFFFFFFFFF80
FFFFFFFFFF80
FFFFFFFFFF00
FFFFFFFFFF00
FFFFFFFFFE00
FFFFFFFFFC00
FFFFFFFFF800
FFFFFFFFF000
FFFFFFFFE000
FFFFFFFF8000
FFFFFFFE0000
FFFFFFE00000
ENDCHAR
STARTCHAR 0161
ENCODING 353
SWIDTH 427 0
DWIDTH 38 0
BBX 33 65 3 0
BITMAP
1F8000FC00
0FC001F800
0FE003F800
07F007F000
07F00FF000
03F80FE000
03FC1FE000
01FE3FC000
01FF7FC000
00FFFF8000
00FFFF8000
007FFF0000
007FFF0000
003FFE0000
003FFE0000
001FFC0000
0000000000
0000000000
0000000000
0000000000
0000000000
001FFFFE00
00FFFFFE00
03FFFFFE00
0FFFFFFE00
1FFFFFFE00
3FFFFFFE00
3FFFFFFE00
7FFFFFFE00
7FFFFFFE00
7FFFFFFE00
7FFFFFFE00
FFFFFFFE00
FFFC000000
7FFC000000
7FFC000000
7FFF000000
7FFFC00000
3FFFF80000
3FFFFE0000
1FFFFF8000
0FFFFFE000
07FFFFF000
03FFFFF800
00FFFFFC00
007FFFFE00
000FFFFF00
0003FFFF00
0000FFFF80
00003FFF80
00001FFF80
00001FFF80
00007FFF80
FFFFFFFF80
FFFFFFFF80
FFFFFFFF80
FFFFFFFF80
FFFFFFFF00
FFFFFFFF00
FFFFFFFE00
FFFFFFFC00
FFFFFFF800
FFFFFFF000
FFFFFFC000
FFFFFE0000
ENDCHAR
STARTCHAR 0168
ENCODING 360
SWIDTH 618 0
DWIDTH 55 0
BBX 47 83 4 -1
BITMAP
00000000F800
00000000F800
0001FE01F800
0003FFE3F000
0007FFFFF000
000FFFFFE000
001FFFFFE000
001FFFFFC000
001FFFFF8000
003F01FF0000
003E001C0000
003E00000000
000000000000
000000000000
000000000000
000000000000
000000000000
000000000000
000000000000
000000000000
FFFE0000FFFE
FFFE0000FFFE
FFFE0000FFFE
FFFE0000FFFE
FFFE0000FFFE
FFFE0000FFFE
FFFE0000FFFE
FFFE0000FFFE
FFFE0000FFFE
FFFE0000FFFE
FFFE0000FFFE
FFFE0000FFFE
FFFE0000FFFE
FFFE0000FFFE
FFFE0000FFFE
FFFE0000FFFE
FFFE0000FFFE
FFFE0000FFFE
FFFE0000FFFE
FFFE0000FFFE
FFFE0000FFFE
FFFE0000FFFE
FFFE0000FFFE
FFFE0000FFFE
FFFE0000FFFE
FFFE0000FFFE
FFFE0000FFFE
FFFE0000FFFE
FFFE0000FFFE
FFFE0000FFFE
FFFE0000FFFE
FFFE0000FFFE
FFFE0000FFFE
FFFE0000FFFE
FFFE0000FFFE
FFFE0000FFFE
FFFE0000FFFE
FFFE0000FFFE
FFFF0000FFFE
FFFF0000FFFE
FFFF0000FFFE
FFFF0000FFFE
FFFF0001FFFE
7FFF8001FFFE
7FFF8003FFFE
7FFFC003FFFC
7FFFE007FFFC
3FFFF83FFFFC
3FFFFFFFFFF8
3FFFFFFFFFF8
1FFFFFFFFFF0
1FFFFFFFFFF0
0FFFFFFFFFE0
07FFFFFFFFE0
07FFFFFFFFC0
03FFFFFFFF80
01FFFFFFFF00
00FFFFFFFE00
007FFFFFFC00
001FFFFFF800
000FFFFFE000
0003FFFF8000
00003FF80000
ENDCHAR
STARTCHAR 0169
ENCODING 361
SWIDTH 528 0
DWIDTH 47 0
BBX 40 64 4 -1
BITMAP
00000007C0
00000007C0
000FE00F80
003FFE1F80
007FFFFF80
007FFFFF00
00FFFFFF00
00FFFFFE00
01FFFFFC00
01F81FF800
01F001C000
03E0000000
0000000000
0000000000
0000000000
0000000000
0000000000
0000000000
0000000000
FFF8003FFF
FFF8003FFF
FFF8003FFF
FFF8003FFF
FFF8003FFF
FFF8003FFF
FFF8003FFF
FFF8003FFF
FFF8003FFF
FFF8003FFF
FFF8003FFF
FFF8003FFF
FFF8003FFF
FFF8003FFF
FFF8003FFF
FFF8003FFF
FFF8003FFF
FFF8003FFF
FFF8003FFF
FFF8003FFF
FFF8003FFF
FFF8003FFF
FFF8003FFF
FFF8003FFF
FFF8003FFF
FFF8003FFF
FFFC003FFF
FFFC003FFF
FFFC007FFE
FFFE00FFFE
FFFF01FFFE
7FFFFFFFFE
7FFFFFFFFC
3FFFFFFFFC
3FFFFFFFF8
1FFFFFFFF8
1FFFFFFFF0
0FFFFFFFE0
07FFFFFFE0
03FFFFFFC0
01FFFFFF80
007FFFFE00
003FFFFC00
000FFFE000
0000FE0000
ENDCHAR
STARTCHAR 0178
ENCODING 376
SWIDTH 562 0
DWIDTH 50 0
BBX 43 82 4 0
BITMAP
000400040000
001F803F0000
007FC07F8000
007FE0FFC000
00FFE1FFC000
00FFE1FFE000
00FFE1FFE000
00FFE1FFC000
007FE0FFC000
007FC0FFC000
003FC07F8000
000E000C0000
000000000000
000000000000
000000000000
000000000000
000000000000
000000000000
000000000000
000000000000
FFFE000FFFE0
FFFE000FFFE0
FFFE000FFFE0
FFFE000FFFE0
FFFE000FFFE0
FFFE000FFFE0
FFFE000FFFE0
FFFE000FFFE0
FFFE000FFFE0
FFFE000FFFE0
FFFE000FFFE0
FFFE000FFFE0
FFFE000FFFE0
FFFE000FFFE0
FFFE000FFFE0
FFFE000FFFE0
FFFE000FFFE0
FFFE000FFFE0
FFFE000FFFE0
FFFE000FFFE0
FFFE001FFFE0
FFFE001FFFE0
FFFE001FFFE0
FFFF001FFFC0
FFFF003FFFC0
7FFF803FFFC0
7FFFC07FFFC0
7FFFFFFFFF80
7FFFFFFFFF80
3FFFFFFFFF80
3FFFFFFFFF00
1FFFFFFFFF00
0FFFFFFFFE00
0FFFFFFFFC00
07FFFFFFFC00
03FFFFFFF800
01FFFFFFF000
00FFFFFFC000
003FFFFF8000
000FFFFE0000
0003FFF80000
0003FFF80000
0003FFF80000
0003FFF80000
0003FFF80000
0003FFF80000
0003FFF80000
0003FFF80000
0003FFF80000
0003FFF80000
0003FFF80000
0003FFF80000
0003FFF80000
0003FFF80000
0003FFF80000
0003FFF80000
0003FFF80000
0003FFF80000
0003FFF80000
0003FFF80000
0003FFF80000
0003FFF80000
ENDCHAR
STARTCHAR 017D
ENCODING 381
SWIDTH 528 0
DWIDTH 47 0
BBX 45 84 1 0
BITMAP
007E0003F000
003F0007F000
003F800FE000
001FC01FE000
001FE01FC000
000FE03F8000
000FF07F8000
0007F8FF0000
0007FDFF0000
0003FFFE0000
0001FFFE0000
0001FFFC0000
0000FFFC0000
0000FFF80000
00007FF80000
00007FF00000
000000000000
000000000000
000000000000
000000000000
000000000000
000000000000
1FFFFFFFFE00
1FFFFFFFFF80
1FFFFFFFFFE0
1FFFFFFFFFE0
1FFFFFFFFFF0
1FFFFFFFFFF8
1FFFFFFFFFF8
1FFFFFFFFFF8
1FFFFFFFFFF8
1FFFFFFFFFF8
1FFFFFFFFFF8
1FFFFFFFFFF8
1FFFFFFFFFF8
1FFFFFFFFFF0
0000007FFFF0
0000007FFFE0
000000FFFFC0
000001FFFFC0
000003FFFF80
000003FFFF00
000007FFFF00
00000FFFFE00
00000FFFFC00
00001FFFF800
00003FFFF800
00007FFFF000
00007FFFE000
0000FFFFC000
0001FFFFC000
0003FFFF8000
0003FFFF0000
0007FFFE0000
000FFFFE0000
001FFFFC0000
001FFFF80000
003FFFF80000
007FFFF00000
007FFFE00000
00FFFFC00000
01FFFFC00000
03FFFF800000
03FFFF000000
07FFFE000000
0FFFFE000000
1FFFFC000000
1FFFF8000000
3FFFF8000000
7FFFFFFFFFF8
7FFFFFFFFFF8
FFFFFFFFFFF8
FFFFFFFFFFF8
FFFFFFFFFFF8
FFFFFFFFFFF8
FFFFFFFFFFF8
FFFFFFFFFFF8
FFFFFFFFFFF8
7FFFFFFFFFF8
7FFFFFFFFFF8
3FFFFFFFFFF8
1FFFFFFFFFF8
0FFFFFFFFFF8
03FFFFFFFFF8
ENDCHAR
STARTCHAR 017E
ENCODING 382
SWIDTH 450 0
DWIDTH 40 0
BBX 37 65 1 0
BITMAP
03F0003F80
03F8007F00
01F8007E00
01FC00FE00
00FE01FC00
00FF03FC00
007F87F800
007FC7F800
003FCFF000
003FFFF000
001FFFE000
001FFFE000
000FFFC000
0007FFC000
0007FF8000
0003FF8000
0000000000
0000000000
0000000000
0000000000
0000000000
1FFFFFFE00
1FFFFFFFC0
1FFFFFFFE0
1FFFFFFFF0
1FFFFFFFF8
1FFFFFFFF8
1FFFFFFFF8
1FFFFFFFF8
1FFFFFFFF8
1FFFFFFFF8
1FFFFFFFF8
1FFFFFFFF8
1FFFFFFFF0
00003FFFF0
00007FFFE0
0000FFFFC0
0001FFFF80
0003FFFF00
0003FFFE00
0007FFFC00
000FFFF800
001FFFF800
003FFFF000
007FFFE000
00FFFFC000
01FFFF8000
03FFFF0000
07FFFE0000
07FFFC0000
0FFFF80000
1FFFF00000
3FFFFFFFF8
3FFFFFFFF8
7FFFFFFFF8
7FFFFFFFF8
FFFFFFFFF8
FFFFFFFFF8
FFFFFFFFF8
7FFFFFFFF8
7FFFFFFFF8
7FFFFFFFF8
3FFFFFFFF8
1FFFFFFFF8
07FFFFFFF8
ENDCHAR
STARTCHAR 0192
ENCODING 402
SWIDTH 562 0
DWIDTH 50 0
BBX 46 81 1 -19
BITMAP
00000007FFFC
0000001FFFFC
0000007FFFFC
000000FFFFFC
000001FFFFFC
000003FFFFFC
000003FFFFFC
000007FFFFFC
000007FFFFFC
000007FFFFFC
00000FFFFFFC
00000FFFFFFC
00000FFFF000
00000FFFE000
00001FFFC000
00001FFFC000
00001FFFC000
00001FFF8000
00001FFF8000
00003FFF8000
00003FFF8000
00003FFF8000
00003FFF8000
07FFFFFFFFF0
07FFFFFFFFF0
07FFFFFFFFF0
07FFFFFFFFF0
07FFFFFFFFF0
07FFFFFFFFF0
07FFFFFFFFF0
07FFFFFFFFF0
07FFFFFFFFF0
07FFFFFFFFF0
07FFFFFFFFF0
07FFFFFFFFF0
07FFFFFFFFF0
0000FFFE0000
0000FFFE0000
0000FFFE0000
0000FFFC0000
0000FFFC0000
0000FFFC0000
0001FFFC0000
0001FFFC0000
0001FFFC0000
0001FFFC0000
0001FFFC0000
0001FFF80000
0001FFF80000
0003FFF80000
0003FFF80000
0003FFF80000
0003FFF80000
0003FFF80000
0003FFF00000
0003FFF00000
0003FFF00000
0007FFF00000
0007FFF00000
0007FFF00000
0007FFF00000
0007FFF00000
0007FFE00000
0007FFE00000
000FFFE00000
000FFFE00000
000FFFE00000
001FFFE00000
003FFFE00000
FFFFFFC00000
FFFFFFC00000
FFFFFFC00000
FFFFFF800000
FFFFFF800000
FFFFFF000000
FFFFFE000000
FFFFFE000000
FFFFFC000000
FFFFF0000000
FFFFC0000000
FFFE00000000
ENDCHAR
STARTCHAR 01A0
ENCODING 416
SWIDTH 765 0
DWIDTH 68 0
BBX 66 68 2 -1
BITMAP
00000000000003FFC0
00000000000007FF80
00000000000007FF80
00000000000007FF00
0000003FFE000FFF00
000003FFFFE00FFE00
00001FFFFFFC0FFE00
00007FFFFFFF1FFC00
0000FFFFFFFF9FFC00
0003FFFFFFFFFFF800
0007FFFFFFFFFFF800
000FFFFFFFFFFFF000
001FFFFFFFFFFFF000
007FFFFFFFFFFFE000
007FFFFFFFFFFFE000
00FFFFFFFFFFFFC000
01FFFFFFFFFFFFC000
03FFFFFFFFFFFFE000
07FFFFFFFFFFFFE000
07FFFFF80FFFFFF000
0FFFFFC001FFFFF000
0FFFFF00007FFFF800
1FFFFC00003FFFF800
1FFFF800001FFFFC00
3FFFF000000FFFFC00
3FFFF0000007FFFE00
3FFFE0000003FFFE00
7FFFC0000003FFFE00
7FFFC0000001FFFE00
7FFF80000001FFFF00
7FFF80000000FFFF00
7FFF80000000FFFF00
7FFF80000000FFFF00
7FFF00000000FFFF00
FFFF00000000FFFF00
FFFF00000000FFFF00
FFFF00000000FFFF00
FFFF00000000FFFF00
7FFF00000000FFFF00
7FFF80000000FFFF00
7FFF80000000FFFF00
7FFF80000001FFFF00
7FFFC0000001FFFF00
7FFFC0000001FFFE00
3FFFE0000003FFFE00
3FFFE0000007FFFE00
3FFFF0000007FFFE00
1FFFF800000FFFFC00
1FFFFC00001FFFFC00
1FFFFE00003FFFF800
0FFFFF8000FFFFF800
0FFFFFE003FFFFF000
07FFFFFE7FFFFFF000
03FFFFFFFFFFFFE000
03FFFFFFFFFFFFC000
01FFFFFFFFFFFFC000
00FFFFFFFFFFFF8000
007FFFFFFFFFFF0000
003FFFFFFFFFFE0000
001FFFFFFFFFFC0000
000FFFFFFFFFF80000
0007FFFFFFFFF00000
0003FFFFFFFFC00000
0000FFFFFFFF800000
00003FFFFFFE000000
00000FFFFFF8000000
000003FFFFE0000000
0000003FFE00000000
ENDCHAR
STARTCHAR 01A1
ENCODING 417
SWIDTH 540 0
DWIDTH 48 0
BBX 50 52 2 -1
BITMAP
0000000003FFC0
0000000007FF80
0000000007FF80
0000000007FF00
000000000FFF00
000000000FFE00
00003FE00FFE00
0001FFFC1FFC00
000FFFFF9FFC00
001FFFFFFFF800
007FFFFFFFF800
00FFFFFFFFF000
01FFFFFFFFF000
03FFFFFFFFE000
07FFFFFFFFE000
0FFFFFFFFFC000
0FFFFFFFFFC000
1FFFFFFFFFC000
1FFFFFFFFFC000
3FFFFFFFFFE000
3FFFE07FFFE000
7FFFC01FFFF000
7FFF800FFFF000
7FFF0007FFF000
7FFE0003FFF000
FFFE0003FFF000
FFFE0003FFF800
FFFE0003FFF800
FFFC0001FFF800
FFFE0001FFF800
FFFE0003FFF800
FFFE0003FFF800
FFFE0003FFF000
7FFF0007FFF000
7FFF0007FFF000
7FFF800FFFF000
7FFFC01FFFE000
3FFFF07FFFE000
3FFFFFFFFFE000
1FFFFFFFFFC000
1FFFFFFFFFC000
0FFFFFFFFF8000
07FFFFFFFF0000
07FFFFFFFF0000
03FFFFFFFE0000
01FFFFFFFC0000
00FFFFFFF80000
007FFFFFF00000
001FFFFFC00000
0007FFFF000000
0001FFFC000000
00001F80000000
ENDCHAR
STARTCHAR 01AF
ENCODING 431
SWIDTH 663 0
DWIDTH 59 0
BBX 59 68 4 -1
BITMAP
000000000001FFE0
000000000001FFE0
000000000001FFC0
000000000003FFC0
000000000003FF80
FFFE0000FFFFFF80
FFFE0000FFFFFF00
FFFE0000FFFFFF00
FFFE0000FFFFFE00
FFFE0000FFFFFE00
FFFE0000FFFFFC00
FFFE0000FFFFFC00
FFFE0000FFFFF800
FFFE0000FFFFF800
FFFE0000FFFFF000
FFFE0000FFFFF000
FFFE0000FFFFE000
FFFE0000FFFFE000
FFFE0000FFFFC000
FFFE0000FFFE0000
FFFE0000FFFE0000
FFFE0000FFFE0000
FFFE0000FFFE0000
FFFE0000FFFE0000
FFFE0000FFFE0000
FFFE0000FFFE0000
FFFE0000FFFE0000
FFFE0000FFFE0000
FFFE0000FFFE0000
FFFE0000FFFE0000
FFFE0000FFFE0000
FFFE0000FFFE0000
FFFE0000FFFE0000
FFFE0000FFFE0000
FFFE0000FFFE0000
FFFE0000FFFE0000
FFFE0000FFFE0000
FFFE0000FFFE0000
FFFE0000FFFE0000
FFFE0000FFFE0000
FFFE0000FFFE0000
FFFE0000FFFE0000
FFFE0000FFFE0000
FFFF0000FFFE0000
FFFF0000FFFE0000
FFFF0000FFFE0000
FFFF0000FFFE0000
FFFF0001FFFE0000
7FFF8001FFFE0000
7FFF8003FFFE0000
7FFFC003FFFC0000
7FFFE007FFFC0000
3FFFF83FFFFC0000
3FFFFFFFFFF80000
3FFFFFFFFFF80000
1FFFFFFFFFF00000
1FFFFFFFFFF00000
0FFFFFFFFFE00000
07FFFFFFFFE00000
07FFFFFFFFC00000
03FFFFFFFF800000
01FFFFFFFF000000
00FFFFFFFE000000
007FFFFFFC000000
001FFFFFF8000000
000FFFFFE0000000
0003FFFF80000000
00003FF800000000
ENDCHAR
STARTCHAR 01B0
ENCODING 432
SWIDTH 562 0
DWIDTH 50 0
BBX 51 52 4 -1
BITMAP
0000000001FFE0
0000000001FFE0
0000000003FFC0
0000000003FFC0
0000000003FF80
0000000007FF80
0000000007FF00
FFF8003FFFFF00
FFF8003FFFFE00
FFF8003FFFFE00
FFF8003FFFFC00
FFF8003FFFFC00
FFF8003FFFF800
FFF8003FFFF800
FFF8003FFFF000
FFF8003FFFF000
FFF8003FFFE000
FFF8003FFFE000
FFF8003FFFC000
FFF8003FFFC000
FFF8003FFF0000
FFF8003FFF0000
FFF8003FFF0000
FFF8003FFF0000
FFF8003FFF0000
FFF8003FFF0000
FFF8003FFF0000
FFF8003FFF0000
FFF8003FFF0000
FFF8003FFF0000
FFF8003FFF0000
FFF8003FFF0000
FFF8003FFF0000
FFFC003FFF0000
FFFC003FFF0000
FFFC007FFE0000
FFFE00FFFE0000
FFFF01FFFE0000
7FFFFFFFFE0000
7FFFFFFFFC0000
3FFFFFFFFC0000
3FFFFFFFF80000
1FFFFFFFF80000
1FFFFFFFF00000
0FFFFFFFE00000
07FFFFFFE00000
03FFFFFFC00000
01FFFFFF800000
007FFFFE000000
003FFFFC000000
000FFFE0000000
0000FE00000000
ENDCHAR
STARTCHAR 02C6
ENCODING 710
SWIDTH 495 0
DWIDTH 44 0
BBX 27 16 9 49
BITMAP
00FFE000
01FFE000
01FFF000
03FFF000
03FFF800
07FFF800
07FFFC00
0FF3FC00
0FF1FE00
1FE0FE00
1FC0FF00
3F807F00
7F003F80
7F001FC0
FE001FC0
FC000FE0
ENDCHAR
STARTCHAR 02C7
ENCODING 711
SWIDTH 495 0
DWIDTH 44 0
BBX 27 16 9 49
BITMAP
FC000FE0
FE000FC0
7F001FC0
7F003F80
3F807F80
3FC0FF00
1FE0FE00
0FF1FE00
0FF3FC00
07FFFC00
07FFF800
03FFF800
03FFF000
01FFF000
01FFE000
00FFE000
ENDCHAR
STARTCHAR 02C9
ENCODING 713
SWIDTH 495 0
DWIDTH 44 0
BBX 25 7 10 53
BITMAP
FFFFFF80
FFFFFF80
FFFFFF80
FFFFFF80
FFFFFF80
FFFFFF80
FFFFFF80
ENDCHAR
STARTCHAR 02D8
ENCODING 728
SWIDTH 495 0
DWIDTH 44 0
BBX 27 14 9 50
BITMAP
F80007E0
F80007C0
FC0007C0
FC000FC0
FE000FC0
7F001FC0
7FC07F80
3FFFFF80
3FFFFF00
1FFFFF00
0FFFFE00
07FFF800
01FFF000
003F0000
ENDCHAR
STARTCHAR 02D9
ENCODING 729
SWIDTH 495 0
DWIDTH 44 0
BBX 11 11 17 52
BITMAP
3F00
7F80
FFC0
FFE0
FFE0
FFE0
FFE0
FFE0
FFC0
7F80
1F00
ENDCHAR
STARTCHAR 02DA
ENCODING 730
SWIDTH 495 0
DWIDTH 44 0
BBX 23 23 11 49
BITMAP
00FC00
03FF80
0FFFC0
1FFFF0
3FFFF0
7FFFF8
7FCFFC
FF01FC
FE00FC
FC00FE
FC00FE
FC007E
FC00FE
FC00FE
FE00FC
FF01FC
7F87FC
7FFFF8
3FFFF8
1FFFF0
0FFFE0
07FF80
01FE00
ENDCHAR
STARTCHAR 02DB
ENCODING 731
SWIDTH 495 0
DWIDTH 44 0
BBX 15 20 15 -20
BITMAP
01F0
03C0
07C0
0F80
1F00
3F00
7E00
7E00
FE00
FE00
FE00
FF00
FFFE
FFFE
FFFE
FFFE
7FFE
3FFE
1FFE
03FE
ENDCHAR
STARTCHAR 02DC
ENCODING 732
SWIDTH 495 0
DWIDTH 44 0
BBX 27 12 9 51
BITMAP
000003E0
000003E0
07F007C0
1FFF0FC0
1FFFFFC0
3FFFFF80
7FFFFF80
7FFFFF00
FFFFFE00
FC0FFC00
F8006000
F0000000
ENDCHAR
STARTCHAR 02DD
ENCODING 733
SWIDTH 495 0
DWIDTH 44 0
BBX 28 16 13 50
BITMAP
07FC3FF0
0FFC3FE0
0FF87FC0
0FF07FC0
1FF0FF80
1FE0FF00
1FC1FE00
1FC1FE00
3F81FC00
3F83F800
3F03F800
7E07F000
7E07E000
7C07C000
F80FC000
F80F8000
ENDCHAR
STARTCHAR 0394
ENCODING 916
SWIDTH 708 0
DWIDTH 63 0
BBX 64 64 0 0
BITMAP
000001FFFF800000
000001FFFF800000
000003FFFF800000
000003FFFFC00000
000003FFFFC00000
000007FFFFC00000
000007FFFFE00000
000007FFFFE00000
00000FFFFFF00000
00000FFFFFF00000
00001FFFFFF00000
00001FFFFFF80000
00001FFFFFF80000
00003FFFFFF80000
00003FFFFFFC0000
00003FFFFFFC0000
00007FFFFFFC0000
00007FFFFFFE0000
00007FFFFFFE0000
0000FFFEFFFF0000
0000FFFE7FFF0000
0001FFFE7FFF0000
0001FFFC7FFF8000
0001FFFC3FFF8000
0003FFFC3FFF8000
0003FFF83FFFC000
0003FFF81FFFC000
0007FFF81FFFE000
0007FFF01FFFE000
0007FFF00FFFE000
000FFFF00FFFF000
000FFFE00FFFF000
001FFFE007FFF000
001FFFE007FFF800
001FFFC007FFF800
003FFFC003FFF800
003FFFC003FFFC00
003FFF8003FFFC00
007FFF8001FFFE00
007FFF8001FFFE00
00FFFF0001FFFE00
00FFFF0000FFFF00
00FFFF0000FFFF00
01FFFE0000FFFF00
01FFFE00007FFF80
01FFFE00007FFF80
03FFFC00003FFFC0
03FFFC00003FFFC0
03FFFC00003FFFC0
07FFF800001FFFE0
07FFF800001FFFE0
0FFFF000001FFFE0
0FFFFFFFFFFFFFF0
0FFFFFFFFFFFFFF0
1FFFFFFFFFFFFFF0
1FFFFFFFFFFFFFF8
1FFFFFFFFFFFFFF8
3FFFFFFFFFFFFFFC
3FFFFFFFFFFFFFFC
3FFFFFFFFFFFFFFC
7FFFFFFFFFFFFFFE
7FFFFFFFFFFFFFFE
FFFFFFFFFFFFFFFE
FFFFFFFFFFFFFFFF
ENDCHAR
STARTCHAR 03A9
ENCODING 937
SWIDTH 798 0
DWIDTH 71 0
BBX 67 66 2 0
BITMAP
00000001E000000000
000000FFFFE0000000
000007FFFFFC000000
00001FFFFFFF800000
00007FFFFFFFE00000
0001FFFFFFFFF00000
0003FFFFFFFFFC0000
000FFFFFFFFFFE0000
001FFFFFFFFFFF0000
003FFFFFFFFFFF8000
007FFFFFFFFFFFC000
00FFFFFFFFFFFFE000
00FFFFFFFFFFFFF000
01FFFFFFFFFFFFF000
03FFFFFF1FFFFFF800
03FFFFF000FFFFF800
07FFFFC0007FFFFC00
07FFFF00001FFFFC00
07FFFF00000FFFFE00
0FFFFE000007FFFE00
0FFFFC000007FFFE00
0FFFF8000003FFFF00
1FFFF8000003FFFF00
1FFFF0000001FFFF00
1FFFF0000001FFFF00
1FFFF0000001FFFF00
1FFFF0000000FFFF00
1FFFE0000000FFFF00
1FFFE0000000FFFF80
1FFFE0000000FFFF80
1FFFE0000000FFFF80
1FFFE0000000FFFF80
1FFFE0000000FFFF00
1FFFE0000000FFFF00
1FFFE0000000FFFF00
1FFFE0000000FFFF00
1FFFF0000000FFFF00
0FFFF0000001FFFF00
0FFFF0000001FFFE00
0FFFF0000001FFFE00
07FFF8000001FFFE00
07FFF8000003FFFC00
03FFF8000003FFFC00
03FFFC000007FFF800
01FFFC000007FFF800
01FFFE00000FFFF000
00FFFF00000FFFE000
007FFF00001FFFE000
003FFF80003FFFC000
001FFFC0007FFF8000
000FFFE000FFFF0000
0007FFF000FFFE0000
0003FFF000FFF80000
FFFFFFF000FFFFFFE0
FFFFFFF000FFFFFFE0
FFFFFFF000FFFFFFE0
FFFFFFF000FFFFFFE0
FFFFFFF000FFFFFFE0
FFFFFFF000FFFFFFE0
FFFFFFF000FFFFFFE0
FFFFFFF000FFFFFFE0
FFFFFFF000FFFFFFE0
FFFFFFF000FFFFFFE0
FFFFFFF000FFFFFFE0
FFFFFFF000FFFFFFE0
FFFFFFF000FFFFFFE0
ENDCHAR
STARTCHAR 03BC
ENCODING 956
SWIDTH 641 0
DWIDTH 57 0
BBX 57 66 -2 -19
BITMAP
003FFFC0007FFF80
003FFFC0007FFF00
003FFFC0007FFF00
003FFF80007FFF00
003FFF8000FFFF00
007FFF8000FFFF00
007FFF8000FFFF00
007FFF8000FFFE00
007FFF8000FFFE00
007FFF0000FFFE00
007FFF0001FFFE00
007FFF0001FFFE00
00FFFF0001FFFE00
00FFFF0001FFFC00
00FFFF0001FFFC00
00FFFF0001FFFC00
00FFFE0001FFFC00
00FFFE0003FFFC00
01FFFE0003FFFC00
01FFFE0003FFFC00
01FFFE0003FFF800
01FFFE0003FFF800
01FFFC0003FFF800
01FFFC0007FFF800
03FFFC0007FFF800
03FFFC0007FFF800
03FFFC0007FFF000
03FFFC0007FFF000
03FFFC000FFFF000
03FFFC000FFFF000
03FFFC000FFFF000
07FFFC001FFFF000
07FFFC003FFFE000
07FFFE003FFFE000
07FFFF007FFFE000
07FFFF81FFFFE000
07FFFFFFFFFFE000
0FFFFFFFFFFFE000
0FFFFFFFFFFFC000
0FFFFFFFFFFFC000
0FFFFFFFFFFFC000
0FFFFFFFFFFFC000
0FFFFFFFEFFFC000
1FFFFFFFEFFFC000
1FFFEFFFCFFFC000
1FFFC7FF9FFF8000
1FFFC3FE1FFF8000
1FFFC07000000000
1FFFC00000000000
1FFFC00000000000
3FFFC00000000000
3FFFC00000000000
3FFF800000000000
3FFF800000000000
3FFF800000000000
3FFF800000000000
7FFF800000000000
7FFF800000000000
7FFF000000000000
7FFF000000000000
7FFF000000000000
7FFF000000000000
7FFF000000000000
FFFF000000000000
FFFF000000000000
FFFE000000000000
ENDCHAR
STARTCHAR 03C0
ENCODING 960
SWIDTH 742 0
DWIDTH 66 0
BBX 67 47 0 0
BITMAP
001FFFFFFFFFFFFFE0
00FFFFFFFFFFFFFFC0
03FFFFFFFFFFFFFFC0
07FFFFFFFFFFFFFFC0
0FFFFFFFFFFFFFFFC0
0FFFFFFFFFFFFFFFC0
1FFFFFFFFFFFFFFFC0
3FFFFFFFFFFFFFFF80
3FFFFFFFFFFFFFFF80
3FFFFFFFFFFFFFFF80
7FF8FFFF003FFF8000
7FF0FFFE003FFF8000
7FE0FFFE007FFF8000
7FE0FFFE007FFF8000
FFE0FFFE007FFF8000
FFC1FFFE007FFF0000
0001FFFE007FFF0000
0001FFFE007FFF0000
0001FFFC00FFFF0000
0001FFFC00FFFF0000
0001FFFC00FFFF0000
0003FFFC00FFFF0000
0003FFFC00FFFE0000
0003FFFC00FFFE0000
0003FFF801FFFE0000
0003FFF801FFFE0000
0003FFF801FFFE0000
0003FFF801FFFE0000
0007FFF801FFFC0000
0007FFF801FFFC0000
0007FFF001FFFC0000
0007FFF003FFFC0000
0007FFF003FFFC0000
0007FFF003FFFC0000
000FFFF003FFF80000
000FFFF003FFF80000
000FFFF003FFF80000
000FFFE007FFF80000
000FFFE007FFF80000
000FFFE007FFF80000
001FFFE007FFF80000
001FFFE007FFF00000
001FFFE007FFF00000
001FFFC007FFF00000
001FFFC00FFFF00000
001FFFC00FFFF00000
001FFFC00FFFF00000
ENDCHAR
STARTCHAR 1EA0
ENCODING 7840
SWIDTH 618 0
DWIDTH 55 0
BBX 47 86 4 -23
BITMAP
00007FFC0000
0003FFFF8000
000FFFFFE000
003FFFFFF800
007FFFFFFC00
00FFFFFFFF00
01FFFFFFFF80
03FFFFFFFF80
07FFFFFFFFC0
07FFFFFFFFE0
0FFFFFFFFFF0
1FFFFFFFFFF0
1FFFFFFFFFF8
3FFFFFFFFFF8
3FFFFFFFFFFC
3FFFF01FFFFC
7FFFE007FFFC
7FFFC003FFFC
7FFF8003FFFE
7FFF0001FFFE
FFFF0001FFFE
FFFF0000FFFE
FFFF0000FFFE
FFFF0000FFFE
FFFF0000FFFE
FFFE3FFFFFFE
FFFE3FFFFFFE
FFFE3FFFFFFE
FFFE3FFFFFFE
FFFE3FFFFFFE
FFFE3FFFFFFE
FFFE3FFFFFFE
FFFE3FFFFFFE
FFFE3FFFFFFE
FFFE3FFFFFFE
FFFE3FFFFFFE
FFFE3FFFFFFE
FFFE3FFFFFFE
FFFE3FFFFFFE
FFFE3FFFFFFE
FFFE0000FFFE
FFFE0000FFFE
FFFE0000FFFE
FFFE0000FFFE
FFFE0000FFFE
FFFE0000FFFE
FFFE0000FFFE
FFFE0000FFFE
FFFE0000FFFE
FFFE0000FFFE
FFFE0000FFFE
FFFE0000FFFE
FFFE0000FFFE
FFFE0000FFFE
FFFE0000FFFE
FFFE0000FFFE
FFFE0000FFFE
FFFE0000FFFE
FFFE0000FFFE
FFFE0000FFFE
FFFE0000FFFE
FFFE0000FFFE
FFFE0000FFFE
000000000000
000000000000
000000000000
000000000000
000000000000
000000000000
00000FF00000
00003FF80000
00007FFC0000
0000FFFE0000
0000FFFF0000
0001FFFF0000
0001FFFF0000
0001FFFF8000
0001FFFF8000
0001FFFF8000
0001FFFF0000
0001FFFF0000
0000FFFF0000
0000FFFE0000
00007FFC0000
00003FF80000
00000FF00000
ENDCHAR
STARTCHAR 1EA1
ENCODING 7841
SWIDTH 551 0
DWIDTH 49 0
BBX 44 68 2 -23
BITMAP
00003FE00000
0003FFFC0000
000FFFFF8000
003FFFFFC000
007FFFFFF000
01FFFFFFF800
03FFFFFFFC00
07FFFFFFFE00
07FFFFFFFF00
0FFFFFFFFF80
1FFFFFFFFF80
1FFFFFFFFFC0
3FFFFFFFFFC0
3FFFFFFFFFE0
7FFFF07FFFE0
7FFFC01FFFE0
7FFF000FFFF0
7FFF0007FFF0
FFFE0003FFF0
FFFE0003FFF0
FFFE0003FFF0
FFFC0003FFF0
FFFC0003FFF0
FFFC0001FFF0
FFFC0001FFF0
FFFE0001FFF0
FFFE0001FFF0
FFFE0001FFF0
7FFF0001FFF0
7FFF8001FFF0
7FFFC001FFF0
3FFFF8F1FFF0
3FFFFFF1FFF0
3FFFFFF1FFF0
1FFFFFF1FFF0
1FFFFFF1FFF0
0FFFFFF1FFF0
07FFFFF1FFF0
03FFFFF1FFF0
01FFFFF1FFF0
00FFFFF1FFF0
007FFFF1FFF0
003FFFF1FFF0
000FFFF1FFF0
0001FFF1FFF0
000017800000
000000000000
000000000000
000000000000
000000000000
000000000000
00001FE00000
00007FF00000
0000FFF80000
0000FFFC0000
0001FFFE0000
0003FFFE0000
0003FFFF0000
0003FFFF0000
0003FFFF0000
0003FFFF0000
0003FFFF0000
0003FFFE0000
0001FFFE0000
0001FFFC0000
0000FFFC0000
00007FF80000
00001FE00000
ENDCHAR
STARTCHAR 1EA2
ENCODING 7842
SWIDTH 618 0
DWIDTH 55 0
BBX 47 85 4 0
BITMAP
000007F00000
00001FFC0000
00003FFE0000
00007FFF0000
0000FFFF0000
0000FE3F8000
0000FC1F8000
0000F80F8000
0000180F8000
0000001F8000
0000001F8000
000000FF8000
000003FF0000
000003FE0000
000003FC0000
000003F80000
000003C00000
000003C00000
000003C00000
000000000000
000000000000
000000000000
00007FFC0000
0003FFFF8000
000FFFFFE000
003FFFFFF800
007FFFFFFC00
00FFFFFFFF00
01FFFFFFFF80
03FFFFFFFF80
07FFFFFFFFC0
07FFFFFFFFE0
0FFFFFFFFFF0
1FFFFFFFFFF0
1FFFFFFFFFF8
3FFFFFFFFFF8
3FFFFFFFFFFC
3FFFF01FFFFC
7FFFE007FFFC
7FFFC003FFFC
7FFF8003FFFE
7FFF0001FFFE
FFFF0001FFFE
FFFF0000FFFE
FFFF0000FFFE
FFFF0000FFFE
FFFF0000FFFE
FFFE3FFFFFFE
FFFE3FFFFFFE
FFFE3FFFFFFE
FFFE3FFFFFFE
FFFE3FFFFFFE
FFFE3FFFFFFE
FFFE3FFFFFFE
FFFE3FFFFFFE
FFFE3FFFFFFE
FFFE3FFFFFFE
FFFE3FFFFFFE
FFFE3FFFFFFE
FFFE3FFFFFFE
FFFE3FFFFFFE
FFFE3FFFFFFE
FFFE0000FFFE
FFFE0000FFFE
FFFE0000FFFE
FFFE0000FFFE
FFFE0000FFFE
FFFE0000FFFE
FFFE0000FFFE
FFFE0000FFFE
FFFE0000FFFE
FFFE0000FFFE
FFFE0000FFFE
FFFE0000FFFE
FFFE0000FFFE
FFFE0000FFFE
FFFE0000FFFE
FFFE0000FFFE
FFFE0000FFFE
FFFE0000FFFE
FFFE0000FFFE
FFFE0000FFFE
FFFE0000FFFE
FFFE0000FFFE
FFFE0000FFFE
ENDCHAR
ENDFONT
